M48
;Layer_Color=9474304
;FILE_FORMAT=2:5
INCH,LZ
;TYPE=PLATED
T01F00S00C0.01200
T03F00S00C0.02800
T04F00S00C0.04000
%
T01
X002896Y0009808
X0036Y00172
X0035397Y0025223
X0044589Y0026822
X0044211Y0022556
Y0019356
X0044796Y0014437
X0049565Y0016359
X0053673Y0016344
X0058643Y0016426
X0058734Y0028979
X0054382Y0029276
X0051183Y0029439
X00495Y0035
X0028947Y0036692
X00305Y0042
X0030954Y0058413
X002791Y0062916
X0030851Y0077431
X0034163Y0078782
X0035507Y0074456
X0042544Y0073434
X0044815Y0071269
X00454Y00759
X00456Y00793
X00428Y00819
X0045961Y0085758
X0034763Y0086937
X0030462Y0091321
X0070018Y0087977
X0075563Y0087946
X0073104Y0078962
X0069104
X0069304Y0074962
X0073004
X0073815Y0065095
X0080596Y0060533
X008043Y0057448
X0080304Y0050251
X0060897Y0050024
X0065002Y0055305
X0062277Y0069259
X0047937Y0060651
X0091505Y0069073
X00853Y00845
X0077733Y0026218
X0074533Y0026229
X00729Y00234
X00793
X0095909Y0033543
X0096147Y003844
X0096168Y004339
X0101584Y0043475
X0106555Y0043411
X0106682Y0038462
X0101584Y0038398
X01015Y00335
X0107
X0112
X0111907Y0038525
X0111864Y0043538
X0117449
X0117428Y0038652
X01175Y00335
X0123238Y0040255
X01557Y00391
X0153375Y0048388
X0150026Y0063077
X0143735Y0068824
X01262Y00796
X0095335Y0082644
X0095126Y0076745
X0094538Y00598
X0094981Y0056027
X0170585Y0057513
X0175759Y0058911
X0175347Y0064044
X0169Y00641
X0180848Y0062651
X0183907Y0064579
X01889Y00701
X0193677Y0072867
X0196468Y0066732
X0206Y00755
X0216217Y0072699
X021942Y0070252
X0222762Y0072834
X0226174Y0070348
X02295Y00725
X0232813Y0070165
X0236259Y007248
X0239504Y0070004
X0243Y00725
X0246204Y0070101
X02495Y00725
X0247133Y0089109
X0239414Y0061015
X0236306Y0053208
X0242752Y0053176
X024277Y0046709
X0236245Y0046755
X023934Y0039631
X0246154Y0039677
X0246232Y0027171
X0249549Y0029677
X0242909Y0029705
X0239561Y0027165
X0236241Y0029733
X0232745Y0027237
X0229334Y0029565
X0226112Y0027059
X0222777Y0029319
X0219421Y0027036
X0216109Y0029207
X0198921Y0029921
X0193534Y0030385
X0193909Y0038673
X018932Y0039251
X0187055Y003652
X0188035Y0046463
X01847Y00458
X01848Y00519
X0188Y00505
X020149Y0051663
X02049Y00517
Y0045
X0201147Y0044882
X0200368Y0038792
X0204135Y0022545
X0168414Y0021441
X01618Y00193
X01617Y00795
X0167926Y0079515
X0181038Y0075216
X0228798Y0056541
X022858Y0050086
X0228677Y0043777
X0250516Y0049795
X0250492Y0055789
X0262469Y0056658
X0262529Y005333
X0262519Y0049895
X026259Y0046677
X0262818Y0043279
X0262937Y0039918
X02631Y00367
X0263093Y0033327
X0263084Y0029834
X0263181Y0026649
X0256294Y002757
X0252894Y0027463
X0267063Y0018563
X0262544Y0059986
X0262529Y006345
X0262439Y0066687
X0262363Y0070136
X0262529Y0073298
X0259577Y0072997
X025295Y0072675
X02605Y0082575
X0255462Y0089268
X0251343Y0089578
T03
X00375Y0045
Y005
Y0055
X01375Y005
X01425
T04
X0035Y0005
X0045
X0055
X0065
X0075
X0085
X0095
X0105
X0115
X0125
X0135
X0145
X0155
X0165
X0175
X0185
X0195
X0205
X0215
X0225
X0235
X0245
X0255
X0265
Y0095
X0255
X0245
X0235
X0225
X0215
X0205
X0195
X0185
X0175
X0165
X0155
X0145
X0135
X0125
X0115
X0105
X0095
X0085
X0075
X0065
X0055
X0045
X0035
M30
