G04*
G04 #@! TF.GenerationSoftware,Altium Limited,Altium Designer,25.2.1 (25)*
G04*
G04 Layer_Color=8388736*
%FSLAX25Y25*%
%MOIN*%
G70*
G04*
G04 #@! TF.SameCoordinates,CFDFC737-2A4F-4172-B32B-428E1D980CDD*
G04*
G04*
G04 #@! TF.FilePolarity,Negative*
G04*
G01*
G75*
%ADD17R,0.05343X0.02253*%
G04:AMPARAMS|DCode=18|XSize=53.43mil|YSize=22.53mil|CornerRadius=11.26mil|HoleSize=0mil|Usage=FLASHONLY|Rotation=0.000|XOffset=0mil|YOffset=0mil|HoleType=Round|Shape=RoundedRectangle|*
%AMROUNDEDRECTD18*
21,1,0.05343,0.00000,0,0,0.0*
21,1,0.03091,0.02253,0,0,0.0*
1,1,0.02253,0.01545,0.00000*
1,1,0.02253,-0.01545,0.00000*
1,1,0.02253,-0.01545,0.00000*
1,1,0.02253,0.01545,0.00000*
%
%ADD18ROUNDEDRECTD18*%
%ADD24R,0.04528X0.02362*%
%ADD25R,0.04528X0.01181*%
G04:AMPARAMS|DCode=30|XSize=9.55mil|YSize=33.06mil|CornerRadius=4.77mil|HoleSize=0mil|Usage=FLASHONLY|Rotation=270.000|XOffset=0mil|YOffset=0mil|HoleType=Round|Shape=RoundedRectangle|*
%AMROUNDEDRECTD30*
21,1,0.00955,0.02351,0,0,270.0*
21,1,0.00000,0.03306,0,0,270.0*
1,1,0.00955,-0.01176,0.00000*
1,1,0.00955,-0.01176,0.00000*
1,1,0.00955,0.01176,0.00000*
1,1,0.00955,0.01176,0.00000*
%
%ADD30ROUNDEDRECTD30*%
G04:AMPARAMS|DCode=31|XSize=33.06mil|YSize=9.55mil|CornerRadius=4.77mil|HoleSize=0mil|Usage=FLASHONLY|Rotation=270.000|XOffset=0mil|YOffset=0mil|HoleType=Round|Shape=RoundedRectangle|*
%AMROUNDEDRECTD31*
21,1,0.03306,0.00000,0,0,270.0*
21,1,0.02351,0.00955,0,0,270.0*
1,1,0.00955,0.00000,-0.01176*
1,1,0.00955,0.00000,0.01176*
1,1,0.00955,0.00000,0.01176*
1,1,0.00955,0.00000,-0.01176*
%
%ADD31ROUNDEDRECTD31*%
%ADD32R,0.00955X0.03306*%
%ADD33R,0.06102X0.05118*%
%ADD37R,0.02526X0.02762*%
G04:AMPARAMS|DCode=38|XSize=27.62mil|YSize=25.26mil|CornerRadius=7.63mil|HoleSize=0mil|Usage=FLASHONLY|Rotation=90.000|XOffset=0mil|YOffset=0mil|HoleType=Round|Shape=RoundedRectangle|*
%AMROUNDEDRECTD38*
21,1,0.02762,0.00999,0,0,90.0*
21,1,0.01235,0.02526,0,0,90.0*
1,1,0.01527,0.00500,0.00618*
1,1,0.01527,0.00500,-0.00618*
1,1,0.01527,-0.00500,-0.00618*
1,1,0.01527,-0.00500,0.00618*
%
%ADD38ROUNDEDRECTD38*%
%ADD39R,0.02762X0.01778*%
G04:AMPARAMS|DCode=40|XSize=27.62mil|YSize=25.26mil|CornerRadius=7.63mil|HoleSize=0mil|Usage=FLASHONLY|Rotation=180.000|XOffset=0mil|YOffset=0mil|HoleType=Round|Shape=RoundedRectangle|*
%AMROUNDEDRECTD40*
21,1,0.02762,0.00999,0,0,180.0*
21,1,0.01235,0.02526,0,0,180.0*
1,1,0.01527,-0.00618,0.00500*
1,1,0.01527,0.00618,0.00500*
1,1,0.01527,0.00618,-0.00500*
1,1,0.01527,-0.00618,-0.00500*
%
%ADD40ROUNDEDRECTD40*%
%ADD41R,0.02762X0.02526*%
%ADD42R,0.03156X0.02762*%
%ADD43R,0.03550X0.03550*%
%ADD44R,0.01975X0.03550*%
%ADD45R,0.03550X0.01975*%
%ADD46R,0.05124X0.05124*%
%ADD47R,0.08071X0.08071*%
G04:AMPARAMS|DCode=48|XSize=39.43mil|YSize=72.9mil|CornerRadius=3.95mil|HoleSize=0mil|Usage=FLASHONLY|Rotation=90.000|XOffset=0mil|YOffset=0mil|HoleType=Round|Shape=RoundedRectangle|*
%AMROUNDEDRECTD48*
21,1,0.03943,0.06500,0,0,90.0*
21,1,0.03154,0.07290,0,0,90.0*
1,1,0.00790,0.03250,0.01577*
1,1,0.00790,0.03250,-0.01577*
1,1,0.00790,-0.03250,-0.01577*
1,1,0.00790,-0.03250,0.01577*
%
%ADD48ROUNDEDRECTD48*%
G04:AMPARAMS|DCode=49|XSize=129.98mil|YSize=72.9mil|CornerRadius=4.07mil|HoleSize=0mil|Usage=FLASHONLY|Rotation=90.000|XOffset=0mil|YOffset=0mil|HoleType=Round|Shape=RoundedRectangle|*
%AMROUNDEDRECTD49*
21,1,0.12998,0.06476,0,0,90.0*
21,1,0.12185,0.07290,0,0,90.0*
1,1,0.00813,0.03238,0.06093*
1,1,0.00813,0.03238,-0.06093*
1,1,0.00813,-0.03238,-0.06093*
1,1,0.00813,-0.03238,0.06093*
%
%ADD49ROUNDEDRECTD49*%
%ADD50R,0.01778X0.02762*%
G04:AMPARAMS|DCode=51|XSize=39.37mil|YSize=86.61mil|CornerRadius=19.68mil|HoleSize=0mil|Usage=FLASHONLY|Rotation=270.000|XOffset=0mil|YOffset=0mil|HoleType=Round|Shape=RoundedRectangle|*
%AMROUNDEDRECTD51*
21,1,0.03937,0.04724,0,0,270.0*
21,1,0.00000,0.08661,0,0,270.0*
1,1,0.03937,-0.02362,0.00000*
1,1,0.03937,-0.02362,0.00000*
1,1,0.03937,0.02362,0.00000*
1,1,0.03937,0.02362,0.00000*
%
%ADD51ROUNDEDRECTD51*%
G04:AMPARAMS|DCode=52|XSize=39.37mil|YSize=70.87mil|CornerRadius=19.68mil|HoleSize=0mil|Usage=FLASHONLY|Rotation=270.000|XOffset=0mil|YOffset=0mil|HoleType=Round|Shape=RoundedRectangle|*
%AMROUNDEDRECTD52*
21,1,0.03937,0.03150,0,0,270.0*
21,1,0.00000,0.07087,0,0,270.0*
1,1,0.03937,-0.01575,0.00000*
1,1,0.03937,-0.01575,0.00000*
1,1,0.03937,0.01575,0.00000*
1,1,0.03937,0.01575,0.00000*
%
%ADD52ROUNDEDRECTD52*%
%ADD53C,0.06800*%
%ADD54R,0.06800X0.06800*%
%ADD55C,0.04400*%
%ADD56R,0.04400X0.04400*%
%ADD57R,0.04400X0.04400*%
G36*
X248756Y56693D02*
Y53740D01*
X243244D01*
Y59252D01*
X246197D01*
X248756Y56693D01*
D02*
G37*
G36*
X107591Y36258D02*
X107785Y36157D01*
X107844Y36131D01*
X107899Y36119D01*
X107933Y36110D01*
X108022Y36047D01*
X108077Y36034D01*
X108111Y36026D01*
X108157Y35996D01*
X108208Y35962D01*
X108267Y35945D01*
X108343Y35903D01*
X108402Y35878D01*
X108436Y35869D01*
X108478Y35852D01*
X108588Y35802D01*
X108652Y35789D01*
X108719Y35747D01*
X108732Y35734D01*
X108774Y35717D01*
X108829Y35704D01*
X108871Y35688D01*
X108892Y35666D01*
X108909Y35658D01*
X108926Y35641D01*
X108985Y35624D01*
X109028Y35607D01*
X109078Y35574D01*
X109121Y35557D01*
X109154Y35548D01*
X109209Y35527D01*
X109315Y35481D01*
X109349Y35472D01*
X109395Y35459D01*
X109425Y35438D01*
X109476Y35405D01*
X109535Y35388D01*
X109602Y35362D01*
X109628Y35337D01*
X109645Y35329D01*
X109704Y35303D01*
X109759Y35282D01*
X109788Y35261D01*
X109805Y35244D01*
X109847Y35227D01*
X109881Y35219D01*
X109936Y35206D01*
X110008Y35168D01*
X110202Y35075D01*
X110257Y35062D01*
X110291Y35054D01*
X110304Y35041D01*
X110321Y35033D01*
X110346Y35007D01*
X110388Y34990D01*
X110456Y34973D01*
X110515Y34940D01*
X110532Y34923D01*
X110549Y34914D01*
X110591Y34898D01*
X110638Y34885D01*
X110688Y34851D01*
X110735Y34830D01*
X110794Y34813D01*
X110836Y34796D01*
X110853Y34788D01*
X110946Y34745D01*
X111009Y34733D01*
X111056Y34703D01*
X111073Y34686D01*
X111090Y34678D01*
X111132Y34661D01*
X111166Y34652D01*
X111212Y34640D01*
X111263Y34597D01*
X111309Y34576D01*
X111343Y34568D01*
X111436Y34517D01*
X111495Y34492D01*
X111542Y34479D01*
X111584Y34462D01*
X111673Y34424D01*
X111707Y34416D01*
X111762Y34395D01*
X111791Y34374D01*
X111850Y34340D01*
X111884Y34331D01*
X111964Y34302D01*
X111986Y34280D01*
X112002Y34272D01*
X112062Y34247D01*
X112117Y34226D01*
X112129Y34213D01*
X112146Y34205D01*
X112222Y34171D01*
X112256Y34162D01*
X112298Y34145D01*
X112374Y34111D01*
X112467Y34061D01*
X112526Y34035D01*
X112594Y34018D01*
X112649Y33997D01*
X112662Y33985D01*
X112679Y33976D01*
X112704Y33951D01*
X112771Y33934D01*
X112826Y33921D01*
X112856Y33900D01*
X112877Y33871D01*
X112915Y33858D01*
X112949Y33849D01*
X112995Y33837D01*
X113029Y33803D01*
X113050Y33765D01*
X113186Y33757D01*
X113215Y33735D01*
X113224Y33702D01*
X113190Y33693D01*
X113169Y33689D01*
X113143Y33697D01*
X113084Y33706D01*
X113033Y33757D01*
X112915Y33765D01*
X112869Y33795D01*
X112860Y33812D01*
X112847Y33824D01*
X112788Y33841D01*
X112721Y33849D01*
X112594Y33909D01*
X112560Y33917D01*
X112510Y33926D01*
X112400Y33976D01*
X112366Y33985D01*
X112260Y34023D01*
X112197Y34061D01*
X112154Y34078D01*
X112087Y34095D01*
X112032Y34116D01*
X111926Y34162D01*
X111863Y34175D01*
X111707Y34247D01*
X111639Y34264D01*
X111584Y34285D01*
X111512Y34323D01*
X111478Y34331D01*
X111432Y34344D01*
X111398Y34352D01*
X111301Y34399D01*
X111267Y34407D01*
X111191Y34424D01*
X111132Y34466D01*
X111056Y34500D01*
X110959Y34521D01*
X110916Y34538D01*
X110828Y34576D01*
X110773Y34589D01*
X110739Y34597D01*
X110650Y34644D01*
X110562Y34665D01*
X110515Y34695D01*
X110498Y34712D01*
X110481Y34720D01*
X110456Y34728D01*
X110422Y34737D01*
X110367Y34750D01*
X110325Y34767D01*
X110236Y34804D01*
X110202Y34813D01*
X110156Y34826D01*
X110114Y34843D01*
X110067Y34864D01*
X109932Y34906D01*
X109856Y34948D01*
X109797Y34973D01*
X109695Y34999D01*
X109585Y35050D01*
X109552Y35058D01*
X109501Y35067D01*
X109442Y35100D01*
X109366Y35134D01*
X109307Y35151D01*
X109252Y35164D01*
X109197Y35193D01*
X109192Y35197D01*
X109180Y35210D01*
X109133Y35223D01*
X109091Y35231D01*
X109057Y35240D01*
X109015Y35257D01*
X109002Y35269D01*
X108960Y35286D01*
X108892Y35303D01*
X108846Y35316D01*
X108816Y35329D01*
X108770Y35366D01*
X108715Y35388D01*
X108681Y35396D01*
X108626Y35409D01*
X108592Y35417D01*
X108495Y35464D01*
X108406Y35485D01*
X108364Y35502D01*
X108309Y35531D01*
X108275Y35540D01*
X108221Y35552D01*
X108191Y35565D01*
X108174Y35582D01*
X108157Y35590D01*
X108140Y35607D01*
X108098Y35624D01*
X108001Y35645D01*
X107959Y35662D01*
X107946Y35675D01*
X107887Y35700D01*
X107815Y35713D01*
X107773Y35730D01*
X107684Y35768D01*
X107637Y35781D01*
X107599Y35793D01*
X107566Y35802D01*
X107422Y35793D01*
X107380Y35776D01*
X107363Y35768D01*
X107312Y35734D01*
X107266Y35721D01*
X107232Y35713D01*
X107185Y35692D01*
X107151Y35683D01*
X107101Y35675D01*
X107050Y35641D01*
X106995Y35629D01*
X106928Y35586D01*
X106915Y35574D01*
X106847Y35557D01*
X106758Y35544D01*
X106716Y35527D01*
X106704Y35514D01*
X106628Y35481D01*
X106581Y35468D01*
X106539Y35451D01*
X106475Y35413D01*
X106408Y35396D01*
X106349Y35388D01*
X106306Y35362D01*
X106256Y35329D01*
X106188Y35312D01*
X106108Y35299D01*
X106065Y35282D01*
X106002Y35244D01*
X105956Y35231D01*
X105913Y35214D01*
X105884Y35185D01*
X105867Y35176D01*
X105825Y35159D01*
X105791Y35151D01*
X105690Y35142D01*
X105605Y35083D01*
X105550Y35071D01*
X105449Y35045D01*
X105406Y35028D01*
X105318Y34990D01*
X105284Y34982D01*
X105237Y34944D01*
X105199Y34923D01*
X105132Y34906D01*
X105051Y34893D01*
X105009Y34876D01*
X104997Y34864D01*
X104937Y34838D01*
X104857Y34809D01*
X104819Y34796D01*
X104751Y34788D01*
X104735Y34771D01*
X104718Y34762D01*
X104675Y34745D01*
X104620Y34724D01*
X104582Y34695D01*
X104566Y34686D01*
X104523Y34669D01*
X104392Y34648D01*
X104287Y34593D01*
X104253Y34585D01*
X104198Y34564D01*
X104109Y34517D01*
X104075Y34509D01*
X104016Y34500D01*
X103982Y34492D01*
X103936Y34454D01*
X103889Y34433D01*
X103856Y34424D01*
X103767Y34411D01*
X103725Y34395D01*
X103653Y34357D01*
X103572Y34327D01*
X103501Y34272D01*
X103442Y34264D01*
X103349Y34255D01*
X103255Y34196D01*
X103222Y34188D01*
X103137Y34162D01*
X103078Y34145D01*
X103023Y34124D01*
X102905Y34065D01*
X102841Y34027D01*
X102681Y33993D01*
X102520Y33917D01*
X102478Y33900D01*
X102393Y33892D01*
X102381Y33879D01*
X102377Y33866D01*
X102334Y33849D01*
X102301Y33841D01*
X102258Y33833D01*
X102208Y33782D01*
X102148Y33765D01*
X102030Y33773D01*
X102026Y33803D01*
X102056Y33841D01*
X102089Y33849D01*
X102208Y33866D01*
X102246Y33904D01*
X102250Y33917D01*
X102267Y33926D01*
X102309Y33942D01*
X102381Y33955D01*
X102398Y33972D01*
X102406Y33989D01*
X102461Y34018D01*
X102508Y34031D01*
X102550Y34048D01*
X102605Y34078D01*
X102647Y34095D01*
X102723Y34137D01*
X102782Y34162D01*
X102816Y34171D01*
X102880Y34183D01*
X102922Y34200D01*
X102951Y34221D01*
X102994Y34247D01*
X103036Y34264D01*
X103082Y34276D01*
X103124Y34293D01*
X103146Y34314D01*
X103163Y34323D01*
X103222Y34348D01*
X103255Y34357D01*
X103315Y34399D01*
X103420Y34437D01*
X103450Y34458D01*
X103467Y34475D01*
X103526Y34492D01*
X103615Y34505D01*
X103644Y34517D01*
X103720Y34568D01*
X103779Y34585D01*
X103834Y34606D01*
X103847Y34619D01*
X103864Y34627D01*
X103881Y34644D01*
X103940Y34669D01*
X103987Y34682D01*
X104016Y34703D01*
X104067Y34737D01*
X104130Y34750D01*
X104181Y34783D01*
X104194Y34796D01*
X104236Y34813D01*
X104295Y34821D01*
X104363Y34847D01*
X104388Y34872D01*
X104405Y34881D01*
X104447Y34898D01*
X104481Y34906D01*
X104536Y34919D01*
X104566Y34931D01*
X104612Y34969D01*
X104658Y34990D01*
X104705Y35003D01*
X104735Y35016D01*
X104751Y35033D01*
X104768Y35041D01*
X104785Y35058D01*
X104891Y35096D01*
X104954Y35134D01*
X105009Y35147D01*
X105056Y35176D01*
X105106Y35210D01*
X105174Y35227D01*
X105254Y35240D01*
X105292Y35269D01*
X105309Y35278D01*
X105326Y35295D01*
X105385Y35312D01*
X105419Y35320D01*
X105478Y35354D01*
X105529Y35388D01*
X105588Y35405D01*
X105647Y35438D01*
X105690Y35464D01*
X105723Y35472D01*
X105778Y35493D01*
X105799Y35514D01*
X105816Y35523D01*
X105875Y35548D01*
X105973Y35561D01*
X106040Y35603D01*
X106053Y35616D01*
X106095Y35633D01*
X106129Y35641D01*
X106175Y35654D01*
X106264Y35717D01*
X106319Y35730D01*
X106361Y35747D01*
X106391Y35776D01*
X106433Y35793D01*
X106480Y35806D01*
X106509Y35819D01*
X106526Y35835D01*
X106543Y35844D01*
X106602Y35869D01*
X106691Y35890D01*
X106737Y35920D01*
X106754Y35937D01*
X106839Y35962D01*
X106889Y35971D01*
X106970Y36026D01*
X107016Y36047D01*
X107063Y36059D01*
X107109Y36089D01*
X107126Y36106D01*
X107168Y36123D01*
X107249Y36152D01*
X107261Y36165D01*
X107320Y36191D01*
X107354Y36199D01*
X107413Y36233D01*
X107430Y36250D01*
X107473Y36266D01*
X107591Y36258D01*
D02*
G37*
G36*
X113372Y33672D02*
X113376Y33668D01*
X113380Y33664D01*
X113397Y33655D01*
X113401Y33634D01*
X113363Y33621D01*
X113278Y33630D01*
X113266Y33643D01*
X113257Y33668D01*
X113270Y33680D01*
X113372Y33672D01*
D02*
G37*
G36*
X101988Y33757D02*
X101992Y33727D01*
X101971Y33706D01*
X101903Y33689D01*
X101836Y33680D01*
X101815Y33659D01*
X101806Y33643D01*
X101777Y33613D01*
X101684Y33621D01*
X101663Y33643D01*
X101671Y33659D01*
X101684Y33672D01*
X101717Y33680D01*
X101760Y33689D01*
X101768D01*
X101810Y33697D01*
X101840Y33744D01*
X101853Y33757D01*
X101912Y33765D01*
X101988Y33757D01*
D02*
G37*
G36*
X101586Y33575D02*
X101578Y33558D01*
X101574Y33554D01*
X101565D01*
X101540Y33562D01*
X101536Y33575D01*
X101574Y33588D01*
X101586Y33575D01*
D02*
G37*
G36*
X113587D02*
Y33566D01*
X113595Y33558D01*
X113574Y33537D01*
X113524Y33545D01*
X113511Y33558D01*
X113519Y33583D01*
X113574Y33588D01*
X113587Y33575D01*
D02*
G37*
G36*
X106552Y33004D02*
X106589Y32916D01*
X106611Y32861D01*
X106619Y32742D01*
X106661Y32700D01*
X106767Y32662D01*
X106813Y32649D01*
X106868Y32637D01*
X106940Y32633D01*
X106987Y32671D01*
X107012Y32713D01*
X107037Y32738D01*
X107046Y32755D01*
X107063Y32797D01*
X107075Y32844D01*
X107101Y32869D01*
X107135Y32878D01*
X107228Y32869D01*
X107287Y32835D01*
X107329Y32793D01*
X107346Y32785D01*
X107359Y32747D01*
X107350Y32704D01*
X107325Y32662D01*
X107316Y32628D01*
X107308Y32578D01*
X107274Y32510D01*
X107299Y32468D01*
X107320Y32447D01*
X107337Y32438D01*
X107376Y32400D01*
X107384Y32383D01*
X107397Y32371D01*
X107413Y32362D01*
X107481Y32294D01*
X107515Y32286D01*
X107574Y32294D01*
X107667Y32345D01*
X107701Y32379D01*
X107756Y32392D01*
X107819Y32396D01*
X107857Y32366D01*
X107874Y32324D01*
X107882Y32307D01*
X107921Y32261D01*
X107942Y32240D01*
X107959Y32197D01*
X107916Y32138D01*
X107870Y32092D01*
X107853Y32083D01*
X107781Y32037D01*
X107773Y32020D01*
X107747Y31995D01*
X107739Y31978D01*
X107722Y31935D01*
X107756Y31876D01*
X107781Y31817D01*
X107794Y31737D01*
X107802Y31703D01*
X107836Y31669D01*
X107921Y31661D01*
X108085Y31648D01*
X108119Y31640D01*
X108149Y31627D01*
X108161Y31614D01*
X108170Y31580D01*
X108178Y31487D01*
X108187Y31462D01*
X108178Y31437D01*
X108153Y31394D01*
X108107Y31348D01*
X108047Y31340D01*
X107895Y31331D01*
X107857Y31302D01*
X107849Y31268D01*
X107840Y31242D01*
X107832Y31209D01*
X107811Y31120D01*
X107798Y31073D01*
X107807Y31006D01*
X107844Y30959D01*
X107887Y30934D01*
X107963Y30892D01*
X107997Y30858D01*
X108013Y30849D01*
X108035Y30837D01*
X108052Y30795D01*
X108039Y30740D01*
X108013Y30672D01*
X107992Y30642D01*
X107946Y30596D01*
X107929Y30587D01*
X107904Y30579D01*
X107853Y30587D01*
X107811Y30604D01*
X107756Y30625D01*
X107709Y30672D01*
X107676Y30680D01*
X107642Y30672D01*
X107574Y30604D01*
X107561Y30600D01*
X107553Y30583D01*
X107498Y30503D01*
X107477Y30482D01*
X107460Y30439D01*
X107451Y30406D01*
X107460Y30355D01*
X107545Y30220D01*
X107561Y30178D01*
X107553Y30127D01*
X107481Y30055D01*
X107422Y30030D01*
X107405Y30021D01*
X107346Y29996D01*
X107329Y30004D01*
X107291Y30042D01*
X107282Y30059D01*
X107223Y30118D01*
X107215Y30135D01*
X107198Y30152D01*
X107190Y30169D01*
X107177Y30182D01*
X107135Y30199D01*
X107101Y30207D01*
X107020Y30194D01*
X106953Y30169D01*
X106940Y30156D01*
X106864Y30123D01*
X106847Y30114D01*
X106826Y30093D01*
X106818Y30034D01*
X106826Y30000D01*
X106818Y29915D01*
X106809Y29814D01*
X106797Y29801D01*
X106763Y29793D01*
X106640Y29780D01*
X106619Y29776D01*
X106594Y29785D01*
X106552Y29810D01*
X106530Y29831D01*
X106522Y29865D01*
X106513Y29890D01*
X106497Y29958D01*
X106488Y30085D01*
X106458Y30114D01*
X106315Y30123D01*
X106273Y30139D01*
X106213Y30148D01*
X106188Y30139D01*
X106112Y30097D01*
X106070Y30013D01*
X106049Y29983D01*
X106015Y29932D01*
X105990Y29890D01*
X105943Y29877D01*
X105901Y29903D01*
X105884Y29920D01*
X105867Y29928D01*
X105757Y29987D01*
X105753Y30051D01*
X105761Y30076D01*
X105770Y30110D01*
X105791Y30165D01*
X105821Y30245D01*
X105837Y30287D01*
X105829Y30338D01*
X105808Y30359D01*
X105753Y30380D01*
X105723Y30402D01*
X105630Y30494D01*
X105613Y30503D01*
X105588Y30511D01*
X105546Y30503D01*
X105525Y30490D01*
X105516Y30473D01*
X105503Y30461D01*
X105461Y30444D01*
X105406Y30423D01*
X105377Y30402D01*
X105351Y30376D01*
X105292Y30385D01*
X105280Y30397D01*
X105271Y30414D01*
X105191Y30520D01*
X105170Y30558D01*
X105178Y30617D01*
X105203Y30642D01*
X105208Y30655D01*
X105225Y30663D01*
X105271Y30702D01*
X105288Y30718D01*
X105297Y30735D01*
X105318Y30756D01*
X105334Y30765D01*
X105373Y30803D01*
X105377Y30858D01*
X105368Y30900D01*
X105343Y31001D01*
X105301Y31069D01*
X105258Y31111D01*
X105225Y31120D01*
X105094Y31116D01*
X105043Y31124D01*
X105001Y31141D01*
X104988Y31154D01*
X104971Y31162D01*
X104950Y31217D01*
X104941Y31344D01*
X104950Y31369D01*
X104975Y31411D01*
X105009Y31420D01*
X105094Y31428D01*
X105123Y31441D01*
X105166Y31458D01*
X105199Y31466D01*
X105242Y31475D01*
X105263Y31496D01*
X105280Y31555D01*
X105288Y31665D01*
X105297Y31690D01*
X105305Y31724D01*
X105313Y31749D01*
X105280Y31809D01*
X105242Y31847D01*
X105225Y31855D01*
X105208Y31872D01*
X105191Y31880D01*
X105132Y31906D01*
X105072Y31940D01*
X105051Y31995D01*
X105064Y32041D01*
X105094Y32071D01*
X105111Y32113D01*
X105132Y32168D01*
X105157Y32193D01*
X105250Y32185D01*
X105292Y32168D01*
X105428Y32134D01*
X105457Y32130D01*
X105491Y32138D01*
X105525Y32172D01*
X105533Y32189D01*
X105563Y32219D01*
X105580Y32227D01*
X105584Y32231D01*
X105609Y32256D01*
X105618Y32273D01*
X105656Y32320D01*
X105668Y32333D01*
X105677Y32366D01*
X105668Y32409D01*
X105626Y32468D01*
X105601Y32510D01*
X105567Y32620D01*
X105575Y32679D01*
X105596Y32700D01*
X105673Y32742D01*
X105706Y32776D01*
X105740Y32785D01*
X105774Y32776D01*
X105821Y32738D01*
X105896Y32662D01*
X105905Y32645D01*
X105939Y32586D01*
X105951Y32573D01*
X105994Y32557D01*
X106087Y32565D01*
X106171Y32624D01*
X106218Y32637D01*
X106247Y32658D01*
X106268Y32679D01*
X106294Y32781D01*
X106285Y32916D01*
X106332Y32979D01*
X106349Y32987D01*
X106391Y33004D01*
X106450Y32996D01*
X106492Y33013D01*
X106552Y33004D01*
D02*
G37*
G36*
X108740Y33342D02*
X108753Y33330D01*
X108783Y33250D01*
X108804Y33228D01*
X108812Y33211D01*
X108829Y33195D01*
X108837Y33161D01*
X108863Y33093D01*
X108884Y33064D01*
X108901Y33055D01*
X108943Y33038D01*
X109002Y33030D01*
X109154Y33038D01*
X109226Y33093D01*
X109235Y33110D01*
X109268Y33169D01*
X109311Y33228D01*
X109336Y33271D01*
X109357Y33292D01*
X109391Y33300D01*
X109433Y33283D01*
X109514Y33254D01*
X109543Y33233D01*
X109564Y33211D01*
X109581Y33169D01*
X109573Y33102D01*
X109505Y32958D01*
X109497Y32924D01*
X109505Y32890D01*
X109539Y32831D01*
X109573Y32781D01*
X109598Y32738D01*
X109619Y32717D01*
X109636Y32709D01*
X109687Y32675D01*
X109746Y32683D01*
X109805Y32709D01*
X109915Y32717D01*
X110025Y32709D01*
X110046Y32688D01*
X110054Y32645D01*
Y32637D01*
X110063Y32569D01*
X110088Y32510D01*
X110080Y32493D01*
X110059Y32472D01*
X110000Y32438D01*
X109966Y32404D01*
X109906Y32388D01*
X109860Y32375D01*
X109830Y32354D01*
X109818Y32341D01*
X109784Y32231D01*
X109776Y32147D01*
X109784Y32087D01*
X109822Y32049D01*
X109839Y32041D01*
X109856Y32024D01*
X109873Y32016D01*
X109906Y31982D01*
X109924Y31973D01*
X109949Y31948D01*
X109966Y31940D01*
X109983Y31923D01*
X110042Y31889D01*
X110054Y31876D01*
X110046Y31792D01*
X110012Y31758D01*
X109961Y31665D01*
X109898Y31644D01*
X109873Y31652D01*
X109818Y31665D01*
X109729Y31711D01*
X109670Y31737D01*
X109636Y31745D01*
X109602Y31737D01*
X109581Y31724D01*
X109573Y31707D01*
X109543Y31669D01*
X109526Y31661D01*
X109480Y31623D01*
X109471Y31606D01*
X109429Y31547D01*
X109421Y31513D01*
X109429Y31428D01*
X109480Y31318D01*
X109471Y31259D01*
X109433Y31213D01*
X109416Y31196D01*
X109374Y31179D01*
X109315Y31162D01*
X109239Y31170D01*
X109222Y31187D01*
X109209Y31192D01*
X109201Y31209D01*
X109167Y31285D01*
X109150Y31327D01*
X109091Y31403D01*
X109053Y31441D01*
X108985Y31458D01*
X108850Y31449D01*
X108774Y31407D01*
X108723Y31323D01*
X108711Y31318D01*
X108702Y31302D01*
X108652Y31209D01*
X108639Y31196D01*
X108605Y31187D01*
X108537Y31196D01*
X108512Y31221D01*
X108495Y31230D01*
X108419Y31272D01*
X108398Y31293D01*
X108390Y31327D01*
X108440Y31437D01*
X108453Y31492D01*
X108461Y31525D01*
X108478Y31568D01*
X108483Y31614D01*
X108440Y31682D01*
X108415Y31724D01*
X108385Y31745D01*
X108356Y31775D01*
X108347Y31792D01*
X108326Y31813D01*
X108292Y31821D01*
X108238Y31809D01*
X108191Y31796D01*
X108149Y31779D01*
X108090Y31762D01*
X107988Y31771D01*
X107959Y31800D01*
X107929Y31880D01*
X107916Y31893D01*
X107908Y31910D01*
X107899Y31935D01*
X107908Y31978D01*
X107954Y32041D01*
X107997Y32058D01*
X108030Y32066D01*
X108077Y32079D01*
X108123Y32125D01*
X108183Y32159D01*
X108204Y32214D01*
X108195Y32434D01*
X108166Y32463D01*
X108132Y32472D01*
X108073Y32514D01*
X107963Y32573D01*
X107950Y32611D01*
X107959Y32721D01*
X108001Y32781D01*
X108047Y32827D01*
X108081Y32835D01*
X108123Y32827D01*
X108183Y32802D01*
X108238Y32789D01*
X108280Y32772D01*
X108326Y32751D01*
X108352Y32759D01*
X108444Y32810D01*
X108466Y32840D01*
X108487Y32861D01*
X108546Y32895D01*
X108559Y32907D01*
X108563Y32945D01*
X108542Y33017D01*
X108533Y33093D01*
X108525Y33119D01*
X108512Y33173D01*
X108508Y33228D01*
X108533Y33271D01*
X108546Y33283D01*
X108626Y33313D01*
X108656Y33334D01*
X108698Y33351D01*
X108740Y33342D01*
D02*
G37*
G36*
X107388Y28314D02*
X107451Y28301D01*
X107494Y28284D01*
X107540Y28263D01*
X107595Y28242D01*
X107629Y28217D01*
X107637Y28200D01*
X107667Y28170D01*
X107684Y28162D01*
X107701Y28145D01*
X107713Y28141D01*
X107722Y28124D01*
X107781Y28065D01*
X107798Y27997D01*
X107811Y27951D01*
X107840Y27854D01*
X107849Y27794D01*
X107840Y25749D01*
X107815Y25690D01*
X107798Y25622D01*
X107777Y25534D01*
X107730Y25470D01*
X107722Y25453D01*
X107684Y25407D01*
X107667Y25398D01*
X107650Y25381D01*
X107633Y25373D01*
X107608Y25348D01*
X107515Y25297D01*
X107490Y25289D01*
X107388Y25280D01*
X107346Y25263D01*
X106260Y25267D01*
X106218Y25251D01*
X106209Y25225D01*
X106218Y25191D01*
X106230Y25179D01*
X106247Y25170D01*
X106319Y25115D01*
X106327Y25082D01*
X106319Y23053D01*
X106298Y23024D01*
X106264Y23015D01*
X106129Y23024D01*
X105850D01*
X105732Y23015D01*
X105706Y23024D01*
X105664Y23049D01*
X105651Y23062D01*
X105643Y23096D01*
X105634Y23155D01*
X105643Y23189D01*
X105639Y28035D01*
X105647Y28086D01*
X105651Y28107D01*
X105618Y28166D01*
X105575Y28242D01*
X105542Y28276D01*
X105550Y28310D01*
X105563Y28322D01*
X105685Y28318D01*
X107363Y28322D01*
X107388Y28314D01*
D02*
G37*
G36*
X111030Y28289D02*
X111064Y28280D01*
X111195Y28259D01*
X111229Y28251D01*
X111271Y28225D01*
X111280Y28208D01*
X111318Y28170D01*
X111335Y28162D01*
X111432Y28065D01*
X111440Y28031D01*
X111500Y27938D01*
X111516Y27820D01*
X111525Y26366D01*
Y26358D01*
X111516Y26079D01*
X111508Y26053D01*
X111491Y26011D01*
X111449Y25918D01*
X111428Y25863D01*
X111411Y25838D01*
X111394Y25829D01*
X111339Y25774D01*
X111331Y25758D01*
X111238Y25698D01*
X111216Y25677D01*
X111200Y25669D01*
X111178Y25648D01*
X111187Y25614D01*
X111208Y25593D01*
X111267Y25567D01*
X111309Y25542D01*
X111356Y25504D01*
X111398Y25462D01*
X111407Y25445D01*
X111424Y25428D01*
X111457Y25352D01*
X111491Y25267D01*
X111508Y25208D01*
X111516Y25149D01*
X111521Y23497D01*
X111491Y23400D01*
X111500Y23366D01*
X111491Y23324D01*
X111457Y23273D01*
X111415Y23197D01*
X111309Y23091D01*
X111267Y23074D01*
X111221Y23062D01*
X111170Y23028D01*
X111132Y23015D01*
X111069Y23019D01*
X111026Y23002D01*
X110993Y22994D01*
X110912Y22990D01*
X110887Y22998D01*
X110802Y22990D01*
X109784Y22994D01*
X109704Y22990D01*
X109666Y23019D01*
X109657Y23079D01*
X109666Y23780D01*
X109678Y23793D01*
X109712Y23801D01*
X109835Y23797D01*
X110667Y23801D01*
X110693Y23793D01*
X110777Y23801D01*
X110815Y23831D01*
X110824Y23865D01*
X110815Y23949D01*
X110819Y25204D01*
X110798Y25234D01*
X110743Y25255D01*
X110638Y25251D01*
X110029Y25259D01*
X110000Y25280D01*
X109987Y25327D01*
X109995Y25386D01*
X110004Y26020D01*
X110016Y26041D01*
X110084Y26058D01*
X110785Y26066D01*
X110815Y26096D01*
X110824Y26129D01*
X110815Y26239D01*
X110807Y27456D01*
X110769Y27494D01*
X110709Y27503D01*
X110650Y27494D01*
X109792Y27498D01*
X109695Y27494D01*
X109666Y27524D01*
X109657Y27558D01*
X109666Y28259D01*
X109695Y28297D01*
X109818Y28293D01*
X111005Y28297D01*
X111030Y28289D01*
D02*
G37*
G36*
X102998Y28301D02*
X103032Y28284D01*
X103049Y28225D01*
X103044Y27663D01*
X103049Y27566D01*
X103027Y27528D01*
X102985Y27511D01*
X102909Y27503D01*
X102884Y27511D01*
X101772Y27515D01*
X101743Y27503D01*
X101730Y27490D01*
X101739Y27456D01*
X101751Y27444D01*
X101827Y27401D01*
X101865Y27363D01*
X101882Y27321D01*
X101891Y27287D01*
X101882Y27228D01*
Y26839D01*
Y26831D01*
X101891Y26087D01*
X101912Y26066D01*
X101946Y26058D01*
X102664Y26049D01*
X102685Y26037D01*
X102693Y26003D01*
X102698Y25306D01*
X102685Y25276D01*
X102664Y25255D01*
X102579Y25246D01*
X102546Y25255D01*
X101916Y25251D01*
X101802Y25255D01*
X101760Y25229D01*
X101747Y25217D01*
X101755Y25191D01*
X101777Y25170D01*
X101794Y25162D01*
X101853Y25120D01*
X101865Y25107D01*
X101882Y25048D01*
X101891Y23831D01*
X101912Y23810D01*
X101988Y23801D01*
X102013Y23810D01*
X102068Y23805D01*
X102808Y23810D01*
X102833Y23801D01*
X102960Y23810D01*
X102985Y23801D01*
X103019Y23793D01*
X103040Y23772D01*
X103049Y23738D01*
X103044Y23641D01*
X103049Y23096D01*
X103015Y23036D01*
X102994Y23015D01*
X102960Y23007D01*
X102930Y23002D01*
X101240Y23011D01*
X101206Y23045D01*
X101198Y23079D01*
X101193Y23159D01*
X101198Y27997D01*
X101189Y28023D01*
X101198Y28082D01*
X101206Y28107D01*
X101181Y28149D01*
X101168Y28162D01*
X101155Y28166D01*
X101147Y28183D01*
X101130Y28225D01*
X101122Y28259D01*
X101130Y28293D01*
X101143Y28306D01*
X102947Y28310D01*
X102998Y28301D01*
D02*
G37*
G36*
X103889Y28306D02*
X104899Y28310D01*
X104941Y28301D01*
X104984Y28284D01*
X105072Y28246D01*
X105119Y28234D01*
X105166Y28204D01*
X105182Y28187D01*
X105199Y28179D01*
X105258Y28137D01*
X105305Y28065D01*
X105322Y28048D01*
X105330Y28031D01*
X105347Y27989D01*
X105356Y27929D01*
X105364Y27896D01*
X105377Y27765D01*
X105385Y26818D01*
X105389Y26763D01*
X105351Y26717D01*
X105267Y26708D01*
X104726Y26717D01*
X104705Y26730D01*
X104688Y26772D01*
X104697Y26907D01*
X104688Y27482D01*
X104667Y27503D01*
X104608Y27511D01*
X103860Y27507D01*
X103817Y27515D01*
X103771Y27520D01*
X103733Y27498D01*
X103742Y27465D01*
X103763Y27444D01*
X103779Y27435D01*
X103809Y27414D01*
X103817Y27397D01*
X103834Y27380D01*
X103843Y27363D01*
X103856Y27351D01*
X103868Y27346D01*
X103877Y27329D01*
X103885Y27304D01*
X103894Y26670D01*
X103932Y26632D01*
X103948Y26624D01*
X103961Y26611D01*
X103970Y26594D01*
X104004Y26535D01*
X104016Y26522D01*
X104033Y26514D01*
X104054Y26484D01*
X104092Y26438D01*
X104130Y26400D01*
X104139Y26383D01*
X104156Y26366D01*
X104164Y26349D01*
X104181Y26332D01*
X104189Y26315D01*
X104215Y26290D01*
X104223Y26273D01*
X104291Y26206D01*
X104299Y26189D01*
X104316Y26172D01*
X104320Y26159D01*
X104337Y26151D01*
X104375Y26112D01*
X104409Y26053D01*
X104451Y26011D01*
X104460Y25994D01*
X104485Y25969D01*
X104494Y25952D01*
X104519Y25927D01*
X104527Y25910D01*
X104561Y25851D01*
X104620Y25791D01*
X104629Y25774D01*
X104675Y25728D01*
X104688Y25724D01*
X104697Y25707D01*
X104730Y25648D01*
X104789Y25589D01*
X104798Y25572D01*
X104832Y25538D01*
X104840Y25521D01*
X104857Y25504D01*
X104866Y25487D01*
X104882Y25470D01*
X104891Y25453D01*
X104933Y25411D01*
X104967Y25352D01*
X104980Y25339D01*
X104997Y25331D01*
X105018Y25310D01*
X105026Y25293D01*
X105064Y25246D01*
X105111Y25200D01*
X105144Y25141D01*
X105246Y25039D01*
X105254Y25022D01*
X105288Y24963D01*
X105356Y24896D01*
X105381Y24811D01*
X105385Y24756D01*
X105381Y23560D01*
X105389Y23535D01*
X105381Y23510D01*
X105373Y23459D01*
X105364Y23434D01*
X105356Y23332D01*
X105313Y23273D01*
X105288Y23248D01*
X105267Y23193D01*
X105246Y23163D01*
X105161Y23112D01*
X105157Y23100D01*
X105140Y23091D01*
X105123Y23074D01*
X105081Y23057D01*
X105026Y23036D01*
X104980Y23015D01*
X104899Y23019D01*
X104857Y23011D01*
X103678Y23007D01*
X103619Y23032D01*
X103585Y23041D01*
X103526Y23049D01*
X103450Y23057D01*
X103412Y23096D01*
X103403Y23112D01*
X103391Y23125D01*
X103374Y23133D01*
X103327Y23172D01*
X103315Y23184D01*
X103311Y23189D01*
X103260Y23239D01*
X103251Y23256D01*
X103234Y23298D01*
X103222Y23345D01*
X103184Y23408D01*
X103175Y23822D01*
X103171Y24545D01*
X103180Y24596D01*
X103192Y24608D01*
X103196Y24621D01*
X103247Y24638D01*
X103272Y24629D01*
X103856Y24621D01*
X103877Y24600D01*
X103885Y24541D01*
X103894Y23831D01*
X103915Y23810D01*
X103974Y23801D01*
X104109Y23810D01*
X104587Y23805D01*
X104637Y23814D01*
X104667Y23835D01*
X104680Y23848D01*
X104697Y23915D01*
X104688Y24608D01*
X104646Y24667D01*
X104629Y24684D01*
X104620Y24701D01*
X104561Y24760D01*
X104519Y24836D01*
X104489Y24858D01*
X104460Y24887D01*
X104451Y24904D01*
X104430Y24934D01*
X104413Y24942D01*
X104392Y24963D01*
X104350Y25039D01*
X104240Y25149D01*
X104232Y25166D01*
X104215Y25183D01*
X104206Y25200D01*
X104156Y25251D01*
X104147Y25267D01*
X104105Y25327D01*
X104054Y25377D01*
X104046Y25394D01*
X103978Y25462D01*
X103936Y25538D01*
X103902Y25572D01*
X103894Y25589D01*
X103877Y25605D01*
X103868Y25622D01*
X103826Y25665D01*
X103792Y25724D01*
X103771Y25745D01*
X103754Y25753D01*
X103742Y25766D01*
X103733Y25783D01*
X103716Y25800D01*
X103708Y25817D01*
X103687Y25838D01*
X103670Y25846D01*
X103632Y25910D01*
X103623Y25927D01*
X103606Y25943D01*
X103598Y25960D01*
X103560Y25998D01*
X103543Y26007D01*
X103522Y26028D01*
X103513Y26045D01*
X103496Y26062D01*
X103463Y26121D01*
X103420Y26163D01*
X103412Y26180D01*
X103374Y26227D01*
X103336Y26265D01*
X103327Y26282D01*
X103311Y26298D01*
X103302Y26315D01*
X103268Y26349D01*
X103260Y26366D01*
X103243Y26383D01*
X103234Y26400D01*
X103192Y26442D01*
X103175Y26484D01*
X103171Y26548D01*
X103180Y27832D01*
X103196Y27900D01*
X103230Y27993D01*
X103251Y28048D01*
X103260Y28065D01*
X103298Y28111D01*
X103319Y28132D01*
X103327Y28149D01*
X103340Y28162D01*
X103357Y28170D01*
X103416Y28213D01*
X103433Y28229D01*
X103450Y28238D01*
X103475Y28246D01*
X103509Y28255D01*
X103556Y28268D01*
X103627Y28297D01*
X103779Y28306D01*
X103805Y28314D01*
X103889Y28306D01*
D02*
G37*
G36*
X109137Y26058D02*
X109159Y26037D01*
X109167Y26003D01*
X109163Y25889D01*
X109167Y25436D01*
Y25428D01*
X109159Y25293D01*
X109146Y25272D01*
X109087Y25255D01*
X108090Y25263D01*
X108060Y25284D01*
X108052Y25318D01*
X108043Y25360D01*
X108052Y25386D01*
X108047Y25441D01*
X108052Y25648D01*
X108043Y25673D01*
X108047Y25939D01*
X108043Y26020D01*
X108064Y26049D01*
X108098Y26058D01*
X108157Y26066D01*
X109137Y26058D01*
D02*
G37*
G36*
X113481Y28314D02*
X113528Y28301D01*
X113570Y28284D01*
X113604Y28276D01*
X113646Y28268D01*
X113680Y28259D01*
X113748Y28217D01*
X113769Y28196D01*
X113786Y28187D01*
X113836Y28153D01*
X113853Y28145D01*
X113895Y28060D01*
X113917Y28031D01*
X113934Y28014D01*
X113950Y27972D01*
X113963Y27841D01*
X113971Y27790D01*
X113976Y27760D01*
X113967Y27735D01*
X113971Y26522D01*
X113963Y26480D01*
X113946Y26438D01*
X113904Y26387D01*
X113857Y26315D01*
X113798Y26256D01*
X113790Y26239D01*
X113773Y26222D01*
X113769Y26210D01*
X113752Y26201D01*
X113731Y26180D01*
X113714Y26138D01*
X113688Y26096D01*
X113553Y25960D01*
X113519Y25901D01*
X113486Y25868D01*
X113477Y25851D01*
X113431Y25804D01*
X113414Y25796D01*
X113401Y25783D01*
X113359Y25707D01*
X113317Y25665D01*
X113283Y25605D01*
X113253Y25576D01*
X113241Y25572D01*
X113232Y25555D01*
X113177Y25475D01*
X113148Y25445D01*
X113139Y25428D01*
X113118Y25407D01*
X113101Y25398D01*
X113072Y25369D01*
X113038Y25310D01*
X113004Y25276D01*
X112995Y25259D01*
X112962Y25200D01*
X112949Y25187D01*
X112932Y25179D01*
X112886Y25132D01*
X112877Y25115D01*
X112864Y25103D01*
X112847Y25094D01*
X112826Y25073D01*
X112818Y25056D01*
X112776Y24997D01*
X112759Y24980D01*
X112750Y24963D01*
X112733Y24946D01*
X112729Y24934D01*
X112712Y24925D01*
X112687Y24900D01*
X112674Y24896D01*
X112632Y24820D01*
X112590Y24777D01*
X112556Y24718D01*
X112488Y24651D01*
X112476Y24596D01*
X112467Y24520D01*
X112476Y23877D01*
X112488Y23848D01*
X112510Y23826D01*
X112543Y23818D01*
X113938Y23810D01*
X113959Y23788D01*
X113967Y23755D01*
X113976Y23704D01*
X113967Y23679D01*
X113971Y23133D01*
X113959Y23062D01*
X113929Y23024D01*
X113895Y23015D01*
X113735Y23024D01*
X112311Y23019D01*
X112235Y23028D01*
X112163Y23049D01*
X112129Y23057D01*
X112036Y23066D01*
X112015Y23087D01*
X112007Y23104D01*
X111977Y23133D01*
X111918Y23167D01*
X111880Y23205D01*
X111871Y23222D01*
X111846Y23265D01*
X111787Y23391D01*
X111778Y23425D01*
X111770Y23535D01*
X111778Y24887D01*
X111817Y24925D01*
X111833Y24934D01*
X111855Y24955D01*
X111863Y24972D01*
X111888Y24997D01*
X111897Y25014D01*
X111914Y25031D01*
X111952Y25094D01*
X111969Y25103D01*
X112007Y25141D01*
X112015Y25158D01*
X112036Y25179D01*
X112053Y25187D01*
X112083Y25217D01*
X112091Y25251D01*
X112133Y25310D01*
X112167Y25343D01*
X112176Y25360D01*
X112205Y25398D01*
X112222Y25407D01*
X112269Y25453D01*
X112277Y25470D01*
X112311Y25504D01*
X112319Y25521D01*
X112362Y25580D01*
X112412Y25631D01*
X112446Y25690D01*
X112480Y25724D01*
X112514Y25783D01*
X112552Y25821D01*
X112569Y25829D01*
X112581Y25842D01*
X112590Y25859D01*
X112628Y25905D01*
X112641Y25918D01*
X112674Y25977D01*
X112687Y25990D01*
X112704Y25998D01*
X112725Y26020D01*
X112733Y26037D01*
X112788Y26117D01*
X112810Y26138D01*
X112843Y26197D01*
X112856Y26210D01*
X112873Y26218D01*
X112911Y26256D01*
X112919Y26273D01*
X112970Y26324D01*
X112978Y26341D01*
X113017Y26387D01*
X113038Y26408D01*
X113046Y26425D01*
X113063Y26442D01*
X113072Y26459D01*
X113084Y26472D01*
X113101Y26480D01*
X113139Y26518D01*
X113173Y26577D01*
X113207Y26611D01*
X113215Y26628D01*
X113249Y26687D01*
X113266Y26704D01*
X113274Y26721D01*
X113291Y26738D01*
X113295Y26801D01*
X113291Y27422D01*
X113300Y27448D01*
X113291Y27490D01*
X113270Y27511D01*
X113211Y27520D01*
X112471Y27515D01*
X112395Y27524D01*
X112374Y27528D01*
X112349Y27520D01*
X112311Y27498D01*
X112319Y27465D01*
X112340Y27444D01*
X112374Y27435D01*
X112421Y27397D01*
X112429Y27380D01*
X112471Y27321D01*
X112463Y26738D01*
X112417Y26717D01*
X112357Y26708D01*
X111800Y26717D01*
X111770Y26746D01*
Y27600D01*
Y27608D01*
X111778Y27854D01*
X111787Y27879D01*
X111795Y27913D01*
X111804Y27972D01*
X111821Y27989D01*
X111846Y28048D01*
X111871Y28090D01*
X111931Y28149D01*
X111939Y28166D01*
X111969Y28187D01*
X112015Y28225D01*
X112045Y28255D01*
X112138Y28280D01*
X112209Y28293D01*
X112252Y28310D01*
X112285Y28318D01*
X113456Y28322D01*
X113481Y28314D01*
D02*
G37*
G36*
X106082Y22149D02*
X106108Y22132D01*
X106116Y22098D01*
X106082Y22039D01*
X106070Y22026D01*
X106011Y22018D01*
X105985Y22026D01*
X105901Y22018D01*
X105888Y22005D01*
Y21997D01*
X105880Y21971D01*
X105901Y21950D01*
X105935Y21942D01*
X105994Y21934D01*
X106032Y21904D01*
X106023Y21870D01*
X106011Y21857D01*
X105968Y21840D01*
X105905Y21828D01*
X105888Y21811D01*
X105896Y21777D01*
X105909Y21765D01*
X106087Y21756D01*
X106125Y21735D01*
X106133Y21701D01*
X106095Y21655D01*
X106027Y21638D01*
X105888Y21642D01*
X105808Y21638D01*
X105761Y21676D01*
X105753Y21735D01*
X105761Y22107D01*
X105782Y22145D01*
X105825Y22162D01*
X105960Y22153D01*
X105985Y22162D01*
X106082Y22149D01*
D02*
G37*
G36*
X103315Y22153D02*
X103353Y22124D01*
X103344Y22064D01*
X103323Y22035D01*
X103281Y22018D01*
X103196Y22026D01*
X103146Y22018D01*
X103124Y21997D01*
X103133Y21955D01*
X103180Y21942D01*
X103239Y21934D01*
X103255Y21917D01*
X103268Y21912D01*
X103277Y21887D01*
X103255Y21857D01*
X103196Y21840D01*
X103163Y21832D01*
X103124Y21811D01*
X103133Y21777D01*
X103171Y21765D01*
X103323Y21756D01*
X103365Y21731D01*
X103370Y21693D01*
X103349Y21663D01*
X103306Y21646D01*
X103272Y21638D01*
X103133Y21642D01*
X103044Y21638D01*
X103027Y21655D01*
X103015Y21659D01*
X102998Y21718D01*
X103006Y22115D01*
X103036Y22153D01*
X103095Y22162D01*
X103180Y22153D01*
X103196D01*
X103222Y22162D01*
X103315Y22153D01*
D02*
G37*
G36*
X112624Y22149D02*
X112641Y22132D01*
X112632Y22107D01*
Y22098D01*
X112607Y22073D01*
X112598Y22056D01*
X112560Y22009D01*
X112543Y22001D01*
X112514Y21980D01*
X112505Y21946D01*
X112564Y21862D01*
X112573Y21828D01*
X112632Y21743D01*
X112649Y21701D01*
X112641Y21642D01*
X112628Y21629D01*
X112602Y21621D01*
X112526Y21663D01*
X112514Y21676D01*
X112505Y21693D01*
X112455Y21786D01*
X112442Y21798D01*
X112391Y21824D01*
X112370Y21802D01*
X112362Y21667D01*
X112324Y21629D01*
X112273Y21638D01*
X112260Y21650D01*
X112252Y21684D01*
X112243Y21794D01*
X112252Y21853D01*
X112248Y22077D01*
X112256Y22119D01*
X112277Y22149D01*
X112340Y22153D01*
X112362Y22132D01*
X112370Y22048D01*
X112408Y22043D01*
X112467Y22086D01*
X112484Y22094D01*
X112535Y22145D01*
X112569Y22153D01*
X112590Y22157D01*
X112624Y22149D01*
D02*
G37*
G36*
X109197Y22153D02*
X109209Y22140D01*
X109201Y22107D01*
X109163Y22060D01*
X109150Y22048D01*
X109142Y22031D01*
X109121Y22009D01*
X109108Y22005D01*
X109099Y21988D01*
X109083Y21971D01*
X109074Y21921D01*
X109150Y21811D01*
X109159Y21794D01*
X109218Y21667D01*
X109209Y21642D01*
X109197Y21629D01*
X109129Y21638D01*
X109112Y21655D01*
X109095Y21663D01*
X109049Y21735D01*
X109007Y21794D01*
X108998Y21811D01*
X108977Y21832D01*
X108943Y21824D01*
X108930Y21786D01*
X108935Y21697D01*
X108926Y21663D01*
X108905Y21633D01*
X108859Y21629D01*
X108837Y21642D01*
X108821Y21684D01*
X108812Y21769D01*
X108821Y21904D01*
X108816Y22060D01*
X108825Y22111D01*
X108859Y22153D01*
X108876D01*
X108909Y22145D01*
X108930Y22124D01*
X108939Y22048D01*
X108952Y22035D01*
X108973Y22031D01*
X108998Y22048D01*
X109007Y22064D01*
X109053Y22111D01*
X109070Y22119D01*
X109087Y22136D01*
X109146Y22162D01*
X109197Y22153D01*
D02*
G37*
G36*
X111022D02*
X111098Y22111D01*
X111111Y22098D01*
X111119Y22064D01*
X111111Y22022D01*
X111073Y22009D01*
X111014Y22018D01*
X110954Y22060D01*
X110921Y22052D01*
X110908Y22039D01*
X110900Y22005D01*
Y21997D01*
X110921Y21959D01*
X110954Y21950D01*
X111009Y21929D01*
X111022Y21917D01*
X111081Y21883D01*
X111094Y21870D01*
X111111Y21811D01*
X111119Y21752D01*
X111102Y21710D01*
X111081Y21688D01*
X110988Y21638D01*
X110946Y21621D01*
X110883Y21633D01*
X110828Y21655D01*
X110781Y21667D01*
X110739Y21684D01*
X110722Y21701D01*
X110714Y21760D01*
X110739Y21802D01*
X110760Y21807D01*
X110819Y21773D01*
X110862Y21756D01*
X110895Y21748D01*
X110938Y21756D01*
X110967Y21786D01*
X110959Y21811D01*
X110938Y21832D01*
X110878Y21849D01*
X110845Y21857D01*
X110802Y21883D01*
X110790Y21895D01*
X110747Y21988D01*
X110756Y22039D01*
X110815Y22115D01*
X110828Y22128D01*
X110845Y22136D01*
X110887Y22153D01*
X110921Y22162D01*
X111022Y22153D01*
D02*
G37*
G36*
X104811D02*
X104819Y22145D01*
X104827D01*
X104903Y22086D01*
X104916Y22056D01*
X104887Y22018D01*
X104853Y22009D01*
X104785Y22018D01*
X104743Y22035D01*
X104692Y22026D01*
X104646Y21988D01*
X104629Y21971D01*
X104612Y21912D01*
X104620Y21819D01*
X104637Y21802D01*
X104646Y21786D01*
X104692Y21765D01*
X104751Y21773D01*
X104789Y21802D01*
X104764Y21845D01*
X104747Y21887D01*
X104768Y21917D01*
X104827Y21925D01*
X104903Y21917D01*
X104920Y21900D01*
X104933Y21895D01*
X104941Y21862D01*
X104933Y21735D01*
X104903Y21697D01*
X104887Y21688D01*
X104836Y21655D01*
X104781Y21642D01*
X104743Y21638D01*
X104718Y21646D01*
X104650Y21655D01*
X104608Y21671D01*
X104591Y21680D01*
X104553Y21710D01*
X104544Y21726D01*
X104519Y21752D01*
X104510Y21769D01*
X104477Y21802D01*
X104468Y21862D01*
X104477Y21938D01*
X104544Y22064D01*
X104582Y22103D01*
X104599Y22111D01*
X104658Y22153D01*
X104718Y22162D01*
X104811Y22153D01*
D02*
G37*
G36*
X103830D02*
X103936Y22098D01*
X103944Y22081D01*
X103953Y22056D01*
X103944Y22031D01*
X103923Y22009D01*
X103868Y22005D01*
X103834Y22014D01*
X103801Y22031D01*
X103796Y22035D01*
X103771Y22043D01*
X103758Y22031D01*
X103767Y21980D01*
X103788Y21950D01*
X103805Y21942D01*
X103932Y21874D01*
X103953Y21853D01*
X103970Y21811D01*
X103961Y21735D01*
X103898Y21671D01*
X103881Y21663D01*
X103856Y21638D01*
X103796Y21621D01*
X103763Y21629D01*
X103708Y21650D01*
X103674Y21659D01*
X103632Y21667D01*
X103589Y21684D01*
X103572Y21726D01*
X103581Y21777D01*
X103594Y21790D01*
X103653Y21781D01*
X103746Y21739D01*
X103788Y21756D01*
X103809Y21777D01*
X103801Y21819D01*
X103779Y21840D01*
X103712Y21857D01*
X103653Y21891D01*
X103636Y21917D01*
X103619Y21925D01*
X103598Y21946D01*
X103581Y21988D01*
X103594Y22035D01*
X103627Y22086D01*
X103644Y22094D01*
X103661Y22111D01*
X103678Y22119D01*
X103737Y22153D01*
X103771Y22162D01*
X103830Y22153D01*
D02*
G37*
G36*
X108267Y22145D02*
X108280Y22132D01*
X108271Y22073D01*
X108254Y22056D01*
X108246Y22039D01*
X108233Y22026D01*
X108229Y22022D01*
X108187Y21929D01*
X108178Y21912D01*
X108161Y21895D01*
X108153Y21879D01*
X108136Y21862D01*
X108128Y21828D01*
X108119Y21659D01*
X108090Y21629D01*
X108039Y21638D01*
X108018Y21659D01*
X108001Y21726D01*
X108009Y21752D01*
X108001Y21828D01*
X107967Y21887D01*
X107916Y21980D01*
X107887Y22001D01*
X107866Y22048D01*
X107857Y22081D01*
X107870Y22128D01*
X107895Y22153D01*
X107937Y22145D01*
X107975Y22107D01*
X107984Y22090D01*
X108026Y22031D01*
X108035Y22014D01*
X108073Y22001D01*
X108111Y22022D01*
X108119Y22039D01*
X108174Y22119D01*
X108208Y22153D01*
X108267Y22145D01*
D02*
G37*
G36*
X110515D02*
X110536Y22098D01*
X110528Y21819D01*
X110464Y21697D01*
X110447Y21688D01*
X110338Y21638D01*
X110278Y21646D01*
X110236Y21663D01*
X110181Y21684D01*
X110152Y21705D01*
X110131Y21760D01*
X110118Y21824D01*
X110101Y21891D01*
X110097Y21946D01*
X110105Y21971D01*
X110114Y22124D01*
X110143Y22153D01*
X110202Y22145D01*
X110223Y22124D01*
X110232Y21988D01*
X110223Y21904D01*
X110232Y21879D01*
X110240Y21811D01*
X110261Y21781D01*
X110304Y21765D01*
X110346Y21773D01*
X110376Y21794D01*
X110392Y21853D01*
X110401Y22115D01*
X110405Y22119D01*
X110409Y22124D01*
X110418Y22140D01*
X110456Y22153D01*
X110515Y22145D01*
D02*
G37*
G36*
X112019Y22136D02*
X112049Y22107D01*
X112066Y22039D01*
Y21904D01*
Y21895D01*
X112057Y21684D01*
X112019Y21638D01*
X111960Y21646D01*
X111948Y21659D01*
X111931Y21701D01*
X111939Y22124D01*
X111960Y22145D01*
X112019Y22136D01*
D02*
G37*
G36*
X111428D02*
X111440Y22098D01*
X111445Y22052D01*
X111440Y21988D01*
X111466Y21946D01*
X111478Y21934D01*
X111580Y21942D01*
X111609Y21963D01*
X111618Y21997D01*
X111626Y22107D01*
X111647Y22136D01*
X111690Y22153D01*
X111732Y22145D01*
X111745Y22132D01*
X111753Y22098D01*
Y22031D01*
Y22022D01*
X111745Y21693D01*
X111707Y21646D01*
X111673Y21638D01*
X111639Y21646D01*
X111626Y21659D01*
X111618Y21693D01*
X111609Y21794D01*
X111588Y21815D01*
X111529Y21832D01*
X111478Y21824D01*
X111457Y21811D01*
X111449Y21777D01*
X111436Y21671D01*
X111424Y21642D01*
X111411Y21629D01*
X111377Y21621D01*
X111335Y21646D01*
X111322Y21659D01*
X111305Y21718D01*
X111314Y22124D01*
X111343Y22153D01*
X111386Y22162D01*
X111428Y22136D01*
D02*
G37*
G36*
X104270Y22145D02*
X104291Y22098D01*
Y21845D01*
Y21836D01*
X104282Y21693D01*
X104244Y21646D01*
X104210Y21638D01*
X104177Y21646D01*
X104156Y21667D01*
X104147Y21701D01*
X104143Y21781D01*
X104151Y22103D01*
X104177Y22145D01*
X104210Y22153D01*
X104270Y22145D01*
D02*
G37*
G36*
X105271Y22124D02*
X105280Y22107D01*
X105322Y22039D01*
X105339Y21997D01*
X105347Y21963D01*
X105373Y21921D01*
X105411Y21917D01*
X105423Y21929D01*
X105440Y21988D01*
Y22005D01*
Y22014D01*
X105449Y22140D01*
X105487Y22153D01*
X105529Y22145D01*
X105550Y22124D01*
X105559Y22064D01*
X105550Y21676D01*
X105533Y21659D01*
X105525Y21642D01*
X105512Y21629D01*
X105453Y21638D01*
X105432Y21659D01*
X105389Y21735D01*
X105356Y21811D01*
X105347Y21828D01*
X105326Y21849D01*
X105284Y21840D01*
X105263Y21819D01*
X105254Y21693D01*
X105216Y21646D01*
X105191Y21638D01*
X105149Y21646D01*
X105136Y21659D01*
X105128Y21718D01*
X105136Y22098D01*
X105166Y22145D01*
X105225Y22162D01*
X105271Y22124D01*
D02*
G37*
G36*
X109712Y22145D02*
X109733Y22124D01*
X109742Y22090D01*
X109784Y22014D01*
X109818Y21938D01*
X109835Y21895D01*
X109843Y21862D01*
X109885Y21769D01*
X109894Y21735D01*
X109885Y21642D01*
X109873Y21629D01*
X109835Y21625D01*
X109805Y21638D01*
X109788Y21655D01*
X109771Y21663D01*
X109746Y21688D01*
X109661Y21714D01*
X109611Y21705D01*
X109594Y21688D01*
X109518Y21646D01*
X109501Y21629D01*
X109467Y21621D01*
X109442Y21629D01*
X109429Y21642D01*
X109438Y21726D01*
X109442Y21731D01*
X109488Y21836D01*
X109501Y21900D01*
X109535Y21950D01*
X109547Y21963D01*
X109564Y22005D01*
X109573Y22039D01*
X109598Y22107D01*
X109619Y22136D01*
X109636Y22145D01*
X109661Y22153D01*
X109712Y22145D01*
D02*
G37*
G36*
X107473Y22153D02*
X107498Y22145D01*
X107545Y22132D01*
X107574Y22119D01*
X107621Y22081D01*
X107629Y22064D01*
X107637Y22039D01*
X107646Y22005D01*
X107637Y21980D01*
X107629Y21895D01*
X107637Y21862D01*
X107680Y21819D01*
X107684Y21781D01*
X107667Y21739D01*
X107654Y21726D01*
X107646Y21710D01*
X107616Y21680D01*
X107574Y21663D01*
X107540Y21655D01*
X107536Y21650D01*
X107490Y21638D01*
X107422Y21621D01*
X107329Y21629D01*
X107291Y21659D01*
X107274Y21726D01*
X107282Y22098D01*
X107304Y22136D01*
X107320Y22145D01*
X107346Y22153D01*
X107380Y22162D01*
X107473Y22153D01*
D02*
G37*
G36*
X106450D02*
X106543Y22145D01*
X106585Y22128D01*
X106678Y22077D01*
X106725Y22031D01*
X106750Y21971D01*
X106758Y21938D01*
X106746Y21815D01*
X106737Y21781D01*
X106704Y21731D01*
X106670Y21697D01*
X106611Y21671D01*
X106556Y21650D01*
X106484Y21629D01*
X106382Y21621D01*
X106340Y21646D01*
X106319Y21693D01*
Y21701D01*
X106311Y21735D01*
X106319Y22098D01*
X106357Y22153D01*
X106416Y22162D01*
X106450Y22153D01*
D02*
G37*
G36*
X102503D02*
X102567Y22140D01*
X102601Y22132D01*
X102672Y22103D01*
X102749Y22060D01*
X102770Y22005D01*
X102795Y21912D01*
X102803Y21879D01*
X102795Y21811D01*
X102744Y21718D01*
X102715Y21688D01*
X102681Y21680D01*
X102639Y21663D01*
X102537Y21638D01*
X102487Y21629D01*
X102478D01*
X102453Y21621D01*
X102385Y21629D01*
X102364Y21667D01*
X102356Y21701D01*
X102364Y22124D01*
X102385Y22153D01*
X102444Y22162D01*
X102503Y22153D01*
D02*
G37*
G36*
X113422Y19956D02*
X113426Y19935D01*
X113405Y19914D01*
X113355Y19922D01*
X113350Y19926D01*
X113355Y19956D01*
X113388Y19964D01*
X113422Y19956D01*
D02*
G37*
G36*
X113270Y19888D02*
X113278D01*
X113291Y19867D01*
X113262Y19829D01*
X113228Y19821D01*
X113177Y19829D01*
X113173Y19842D01*
X113203Y19880D01*
X113262Y19897D01*
X113270Y19888D01*
D02*
G37*
G36*
X101671Y19774D02*
X101663Y19757D01*
X101658Y19753D01*
X101650D01*
X101620Y19766D01*
X101625Y19787D01*
X101646Y19791D01*
X101671Y19774D01*
D02*
G37*
G36*
X113173Y19825D02*
X113148Y19757D01*
X113135Y19745D01*
X113076Y19728D01*
X113042Y19719D01*
X113029Y19707D01*
X113021Y19690D01*
X113000Y19669D01*
X112941Y19652D01*
X112890Y19643D01*
X112869Y19631D01*
X112860Y19614D01*
X112831Y19576D01*
X112797Y19567D01*
X112742Y19546D01*
X112687Y19491D01*
X112632Y19470D01*
X112585Y19440D01*
X112459Y19373D01*
X112433Y19347D01*
X112324Y19288D01*
X112307Y19271D01*
X112290Y19263D01*
X112231Y19238D01*
X112171Y19204D01*
X112154Y19187D01*
X112138Y19178D01*
X112062Y19136D01*
X112019Y19111D01*
X111977Y19094D01*
X111884Y19043D01*
X111867Y19026D01*
X111850Y19018D01*
X111770Y18963D01*
X111749Y18942D01*
X111707Y18925D01*
X111690Y18916D01*
X111614Y18866D01*
X111580Y18857D01*
X111525Y18836D01*
X111495Y18815D01*
X111470Y18790D01*
X111453Y18781D01*
X111360Y18731D01*
X111326Y18697D01*
X111267Y18680D01*
X111208Y18646D01*
X111200Y18629D01*
X111183Y18621D01*
X111090Y18570D01*
X111064Y18545D01*
X111022Y18528D01*
X110954Y18502D01*
X110904Y18452D01*
X110849Y18430D01*
X110802Y18401D01*
X110769Y18367D01*
X110714Y18346D01*
X110676Y18316D01*
X110659Y18308D01*
X110600Y18283D01*
X110553Y18270D01*
X110523Y18249D01*
X110490Y18215D01*
X110473Y18206D01*
X110431Y18190D01*
X110388Y18164D01*
X110354Y18131D01*
X110245Y18071D01*
X110228Y18054D01*
X110185Y18037D01*
X110131Y18016D01*
X110084Y17970D01*
X110042Y17953D01*
X109983Y17919D01*
X109949Y17885D01*
X109843Y17847D01*
X109797Y17801D01*
X109754Y17784D01*
X109712Y17759D01*
X109661Y17725D01*
X109628Y17716D01*
X109573Y17695D01*
X109522Y17653D01*
X109509Y17640D01*
X109433Y17598D01*
X109399Y17564D01*
X109290Y17505D01*
X109273Y17488D01*
X109214Y17471D01*
X109159Y17450D01*
X109112Y17404D01*
X109053Y17378D01*
X109011Y17353D01*
X108977Y17319D01*
X108935Y17302D01*
X108888Y17290D01*
X108859Y17268D01*
X108825Y17235D01*
X108783Y17218D01*
X108740Y17192D01*
X108694Y17154D01*
X108647Y17142D01*
X108588Y17108D01*
X108563Y17083D01*
X108546Y17074D01*
X108453Y17023D01*
X108419Y16990D01*
X108364Y16969D01*
X108314Y16935D01*
X108301Y16922D01*
X108216Y16897D01*
X108174Y16871D01*
X108140Y16838D01*
X108081Y16812D01*
X108039Y16787D01*
X108005Y16753D01*
X107895Y16694D01*
X107878Y16677D01*
X107836Y16660D01*
X107781Y16639D01*
X107760Y16618D01*
X107743Y16609D01*
X107718Y16584D01*
X107676Y16567D01*
X107633Y16542D01*
X107608Y16516D01*
X107591Y16508D01*
X107549Y16491D01*
X107490Y16499D01*
X107405Y16559D01*
X107342Y16571D01*
X107312Y16592D01*
X107261Y16643D01*
X107206Y16656D01*
X107160Y16685D01*
X107135Y16711D01*
X107118Y16719D01*
X107025Y16770D01*
X107008Y16787D01*
X106902Y16825D01*
X106851Y16859D01*
X106839Y16871D01*
X106797Y16888D01*
X106742Y16909D01*
X106674Y16952D01*
X106628Y16973D01*
X106552Y17015D01*
X106526Y17040D01*
X106484Y17057D01*
X106425Y17091D01*
X106391Y17125D01*
X106349Y17142D01*
X106306Y17167D01*
X106256Y17201D01*
X106222Y17209D01*
X106167Y17230D01*
X106154Y17243D01*
X106137Y17252D01*
X106121Y17268D01*
X106078Y17285D01*
X105998Y17315D01*
X105977Y17336D01*
X105960Y17345D01*
X105943Y17361D01*
X105888Y17383D01*
X105859Y17395D01*
X105812Y17433D01*
X105698Y17497D01*
X105664Y17530D01*
X105559Y17569D01*
X105529Y17598D01*
X105470Y17623D01*
X105411Y17657D01*
X105360Y17691D01*
X105305Y17704D01*
X105237Y17746D01*
X105225Y17759D01*
X105166Y17784D01*
X105106Y17818D01*
X105081Y17843D01*
X105022Y17860D01*
X104967Y17881D01*
X104941Y17907D01*
X104933Y17923D01*
X104887Y17945D01*
X104819Y17970D01*
X104777Y18012D01*
X104667Y18071D01*
X104650Y18088D01*
X104591Y18105D01*
X104536Y18126D01*
X104506Y18156D01*
X104489Y18164D01*
X104413Y18198D01*
X104320Y18249D01*
X104210Y18308D01*
X104151Y18350D01*
X104096Y18371D01*
X104050Y18418D01*
X103991Y18443D01*
X103974Y18452D01*
X103915Y18494D01*
X103873Y18511D01*
X103826Y18523D01*
X103775Y18557D01*
X103763Y18570D01*
X103720Y18587D01*
X103687Y18595D01*
X103627Y18629D01*
X103568Y18671D01*
X103534Y18680D01*
X103475Y18714D01*
X103450Y18739D01*
X103433Y18747D01*
X103340Y18798D01*
X103315Y18823D01*
X103272Y18840D01*
X103180Y18891D01*
X103053Y18959D01*
X102977Y18993D01*
X102934Y19009D01*
X102875Y19052D01*
X102833Y19069D01*
X102778Y19090D01*
X102740Y19128D01*
X102723Y19136D01*
X102698Y19145D01*
X102630Y19162D01*
X102609Y19174D01*
X102601Y19191D01*
X102563Y19229D01*
X102529Y19238D01*
X102474Y19259D01*
X102440Y19293D01*
X102436Y19305D01*
X102393Y19322D01*
X102339Y19343D01*
X102292Y19390D01*
X102258Y19398D01*
X102208Y19407D01*
X102161Y19445D01*
X102132Y19474D01*
X102077Y19487D01*
X102009Y19512D01*
X101971Y19550D01*
X101912Y19567D01*
X101857Y19597D01*
X101848Y19614D01*
X101827Y19643D01*
X101760Y19660D01*
X101743Y19669D01*
X101722Y19690D01*
X101730Y19715D01*
X101768Y19728D01*
X101794Y19719D01*
X101823Y19707D01*
X101831Y19690D01*
X101853Y19660D01*
X101912Y19652D01*
X101946Y19643D01*
X101988Y19618D01*
X102000Y19605D01*
X102005Y19592D01*
X102022Y19584D01*
X102064Y19567D01*
X102123Y19559D01*
X102153Y19538D01*
X102161Y19521D01*
X102174Y19508D01*
X102241Y19491D01*
X102288Y19478D01*
X102343Y19423D01*
X102377Y19415D01*
X102427Y19407D01*
X102503Y19356D01*
X102537Y19347D01*
X102592Y19326D01*
X102622Y19305D01*
X102639Y19288D01*
X102681Y19271D01*
X102774Y19238D01*
X102858Y19187D01*
X102901Y19170D01*
X103027Y19111D01*
X103391Y18933D01*
X103425Y18925D01*
X103480Y18904D01*
X103526Y18857D01*
X103585Y18840D01*
X103636Y18832D01*
X103682Y18794D01*
X103737Y18764D01*
X103771Y18756D01*
X103813Y18739D01*
X103860Y18701D01*
X103906Y18680D01*
X103982Y18663D01*
X104042Y18621D01*
X104118Y18587D01*
X104151Y18578D01*
X104236Y18519D01*
X104270Y18511D01*
X104337Y18485D01*
X104371Y18452D01*
X104413Y18435D01*
X104447Y18426D01*
X104523Y18384D01*
X104540Y18367D01*
X104582Y18350D01*
X104629Y18338D01*
X104675Y18308D01*
X104692Y18291D01*
X104735Y18274D01*
X104815Y18245D01*
X104866Y18211D01*
X104950Y18177D01*
X105034Y18126D01*
X105106Y18105D01*
X105161Y18084D01*
X105182Y18063D01*
X105199Y18054D01*
X105216Y18037D01*
X105275Y18021D01*
X105330Y18000D01*
X105385Y17970D01*
X105732Y17801D01*
X105799Y17784D01*
X105842Y17759D01*
X105875Y17725D01*
X105935Y17708D01*
X105990Y17695D01*
X106019Y17674D01*
X106036Y17657D01*
X106053Y17649D01*
X106112Y17623D01*
X106146Y17615D01*
X106205Y17573D01*
X106281Y17539D01*
X106332Y17530D01*
X106416Y17471D01*
X106522Y17433D01*
X106543Y17412D01*
X106560Y17404D01*
X106577Y17387D01*
X106623Y17374D01*
X106657Y17366D01*
X106704Y17336D01*
X106720Y17319D01*
X106780Y17294D01*
X106826Y17281D01*
X106877Y17247D01*
X106889Y17235D01*
X106932Y17218D01*
X106966Y17209D01*
X107025Y17176D01*
X107042Y17159D01*
X107101Y17133D01*
X107168Y17108D01*
X107219Y17074D01*
X107299Y17044D01*
X107367Y17002D01*
X107413Y16981D01*
X107468Y16960D01*
X107549Y16956D01*
X107591Y16973D01*
X107667Y17015D01*
X107684Y17032D01*
X107743Y17049D01*
X107798Y17070D01*
X107836Y17108D01*
X107853Y17116D01*
X107912Y17142D01*
X107929D01*
X107988Y17176D01*
X108013Y17201D01*
X108056Y17218D01*
X108111Y17230D01*
X108161Y17264D01*
X108191Y17294D01*
X108250Y17311D01*
X108305Y17332D01*
X108326Y17353D01*
X108343Y17361D01*
X108419Y17395D01*
X108453Y17404D01*
X108470Y17421D01*
X108487Y17429D01*
X108504Y17446D01*
X108521Y17454D01*
X108563Y17471D01*
X108609Y17484D01*
X108639Y17505D01*
X108690Y17539D01*
X108795Y17577D01*
X108825Y17606D01*
X108884Y17632D01*
X108930Y17645D01*
X108981Y17678D01*
X108994Y17691D01*
X109053Y17716D01*
X109112Y17750D01*
X109129Y17767D01*
X109171Y17784D01*
X109205Y17792D01*
X109281Y17835D01*
X109298Y17852D01*
X109404Y17890D01*
X109450Y17936D01*
X109552Y17962D01*
X109602Y18012D01*
X109645Y18029D01*
X109691Y18042D01*
X109742Y18084D01*
X109763Y18105D01*
X109822Y18114D01*
X109864Y18131D01*
X109906Y18173D01*
X109966Y18198D01*
X109983Y18206D01*
X110029Y18245D01*
X110084Y18266D01*
X110131Y18278D01*
X110177Y18308D01*
X110211Y18342D01*
X110278Y18359D01*
X110321Y18376D01*
X110354Y18409D01*
X110371Y18418D01*
X110414Y18435D01*
X110460Y18447D01*
X110507Y18477D01*
X110532Y18502D01*
X110574Y18519D01*
X110608Y18528D01*
X110684Y18570D01*
X110701Y18587D01*
X110743Y18604D01*
X110790Y18616D01*
X110836Y18646D01*
X110887Y18680D01*
X110942Y18692D01*
X110971Y18705D01*
X111018Y18743D01*
X111064Y18764D01*
X111098Y18773D01*
X111140Y18790D01*
X111157Y18807D01*
X111174Y18815D01*
X111191Y18832D01*
X111297Y18870D01*
X111352Y18908D01*
X111411Y18933D01*
X111453Y18959D01*
X111504Y18993D01*
X111550Y19005D01*
X111597Y19035D01*
X111622Y19060D01*
X111639Y19069D01*
X111664Y19077D01*
X111719Y19090D01*
X111766Y19119D01*
X111791Y19145D01*
X111833Y19162D01*
X111867Y19170D01*
X111909Y19187D01*
X111956Y19225D01*
X111969Y19238D01*
X112015Y19250D01*
X112083Y19293D01*
X112095Y19305D01*
X112112Y19314D01*
X112154Y19331D01*
X112188Y19339D01*
X112248Y19373D01*
X112273Y19398D01*
X112383Y19457D01*
X112459Y19491D01*
X112535Y19533D01*
X112560Y19559D01*
X112619Y19576D01*
X112674Y19597D01*
X112704Y19618D01*
X112712Y19635D01*
X112729Y19643D01*
X112771Y19660D01*
X112831Y19669D01*
X112860Y19690D01*
X112869Y19707D01*
X112890Y19728D01*
X112949Y19745D01*
X113004Y19757D01*
X113038Y19791D01*
X113042Y19804D01*
X113084Y19821D01*
X113118Y19829D01*
X113173Y19825D01*
D02*
G37*
%LPC*%
G36*
X106602Y32041D02*
X106475Y32032D01*
X106450Y32024D01*
X106382Y32016D01*
X106340Y31999D01*
X106306Y31990D01*
X106251Y31969D01*
X106205Y31923D01*
X106146Y31897D01*
X106108Y31876D01*
X106099Y31859D01*
X106065Y31800D01*
X106015Y31749D01*
X105939Y31589D01*
X105926Y31517D01*
X105909Y31449D01*
X105905Y31394D01*
X105913Y31369D01*
X105926Y31238D01*
X105935Y31196D01*
X105951Y31154D01*
X105964Y31141D01*
X106040Y30997D01*
X106057Y30980D01*
X106065Y30964D01*
X106087Y30942D01*
X106163Y30900D01*
X106184Y30871D01*
X106205Y30849D01*
X106247Y30832D01*
X106290Y30807D01*
X106340Y30773D01*
X106399Y30765D01*
X106492Y30756D01*
X106535Y30740D01*
X106602Y30748D01*
X106628Y30756D01*
X106661Y30765D01*
X106788Y30773D01*
X106847Y30816D01*
X106923Y30849D01*
X106966Y30875D01*
X106995Y30921D01*
X107054Y30980D01*
X107088Y31040D01*
X107130Y31082D01*
X107147Y31141D01*
X107164Y31209D01*
X107181Y31259D01*
X107185Y31264D01*
X107202Y31306D01*
X107211Y31340D01*
X107215Y31437D01*
X107206Y31462D01*
X107194Y31509D01*
X107173Y31563D01*
X107156Y31623D01*
X107126Y31703D01*
X107063Y31792D01*
X107054Y31809D01*
X107012Y31868D01*
X106999Y31880D01*
X106944Y31901D01*
X106915Y31923D01*
X106902Y31935D01*
X106894Y31952D01*
X106873Y31973D01*
X106813Y31990D01*
X106780Y31999D01*
X106691Y32011D01*
X106649Y32028D01*
X106602Y32041D01*
D02*
G37*
G36*
X108994Y32616D02*
X108909Y32607D01*
X108850Y32573D01*
X108795Y32552D01*
X108745Y32510D01*
X108736Y32493D01*
X108706Y32472D01*
X108685Y32451D01*
X108668Y32392D01*
X108656Y32345D01*
X108626Y32273D01*
X108635Y32155D01*
X108668Y32079D01*
X108711Y32003D01*
X108723Y31990D01*
X108783Y31956D01*
X108791D01*
X108816Y31931D01*
X108833Y31923D01*
X108909Y31889D01*
X108968Y31880D01*
X109061Y31889D01*
X109087Y31897D01*
X109159Y31910D01*
X109205Y31940D01*
X109311Y32045D01*
X109328Y32087D01*
X109353Y32180D01*
X109362Y32206D01*
X109353Y32231D01*
X109345Y32265D01*
X109336Y32392D01*
X109302Y32451D01*
X109260Y32493D01*
X109252Y32510D01*
X109214Y32548D01*
X109167Y32561D01*
X109053Y32607D01*
X108994Y32616D01*
D02*
G37*
G36*
X107084Y27520D02*
X106568D01*
X106196Y27511D01*
X106184Y27498D01*
X106192Y27448D01*
X106239Y27427D01*
X106298Y27393D01*
X106319Y27372D01*
X106336Y27270D01*
X106327Y27245D01*
X106336Y26087D01*
X106357Y26066D01*
X106416Y26058D01*
X106501Y26066D01*
X107097Y26062D01*
X107126Y26074D01*
X107147Y26096D01*
X107139Y27490D01*
X107118Y27511D01*
X107084Y27520D01*
D02*
G37*
G36*
X109704Y21925D02*
X109666Y21921D01*
X109661Y21917D01*
X109645Y21908D01*
X109632Y21870D01*
X109640Y21845D01*
X109670Y21832D01*
X109708Y21862D01*
X109716Y21904D01*
X109704Y21925D01*
D02*
G37*
G36*
X107430Y22026D02*
X107418Y22014D01*
Y21997D01*
Y21988D01*
X107426Y21963D01*
X107464Y21950D01*
X107485Y21963D01*
X107477Y21997D01*
X107456Y22018D01*
X107430Y22026D01*
D02*
G37*
G36*
X107473Y21849D02*
X107447Y21840D01*
X107409Y21819D01*
X107401Y21786D01*
X107422Y21739D01*
X107456Y21731D01*
X107490Y21739D01*
X107506Y21748D01*
X107511Y21752D01*
X107545Y21786D01*
X107536Y21828D01*
X107473Y21849D01*
D02*
G37*
G36*
X106526Y22018D02*
X106467Y22009D01*
X106454Y21997D01*
X106437Y21955D01*
X106446Y21786D01*
X106458Y21773D01*
X106492Y21765D01*
X106560Y21773D01*
X106606Y21811D01*
X106623Y21853D01*
Y21862D01*
X106615Y21946D01*
X106577Y21993D01*
X106560Y22009D01*
X106526Y22018D01*
D02*
G37*
G36*
X102554D02*
X102503Y22009D01*
X102491Y21997D01*
X102474Y21955D01*
X102482Y21786D01*
X102495Y21773D01*
X102512Y21765D01*
X102520D01*
X102613Y21773D01*
X102651Y21802D01*
X102668Y21845D01*
X102660Y21955D01*
X102613Y22001D01*
X102554Y22018D01*
D02*
G37*
%LPD*%
D17*
X108758Y71039D02*
D03*
Y85039D02*
D03*
D18*
Y63559D02*
D03*
X116242Y67299D02*
D03*
Y81299D02*
D03*
X108758Y77559D02*
D03*
D24*
X24764Y9409D02*
D03*
Y34606D02*
D03*
Y31457D02*
D03*
Y12559D02*
D03*
Y65394D02*
D03*
Y90591D02*
D03*
Y87441D02*
D03*
Y68543D02*
D03*
D25*
Y15118D02*
D03*
Y17087D02*
D03*
Y19055D02*
D03*
Y21024D02*
D03*
Y22992D02*
D03*
Y24961D02*
D03*
Y26929D02*
D03*
Y28898D02*
D03*
Y71102D02*
D03*
Y73071D02*
D03*
Y75039D02*
D03*
Y77008D02*
D03*
Y78976D02*
D03*
Y80945D02*
D03*
Y82913D02*
D03*
Y84882D02*
D03*
D30*
X78541Y80937D02*
D03*
Y78969D02*
D03*
Y77000D02*
D03*
Y75032D02*
D03*
Y73063D02*
D03*
X63459D02*
D03*
Y75032D02*
D03*
Y77000D02*
D03*
Y78969D02*
D03*
Y80937D02*
D03*
D31*
X74937Y69459D02*
D03*
X72969D02*
D03*
X71000D02*
D03*
X69032D02*
D03*
X67063D02*
D03*
Y84541D02*
D03*
X69032D02*
D03*
X71000D02*
D03*
X72969D02*
D03*
D32*
X74937D02*
D03*
D33*
X124350Y83858D02*
D03*
X155650D02*
D03*
X124350Y66142D02*
D03*
X155650D02*
D03*
X124350Y33858D02*
D03*
X155650D02*
D03*
X124350Y16142D02*
D03*
X155650D02*
D03*
D37*
X191898Y51800D02*
D03*
X195299D02*
D03*
X72348Y51100D02*
D03*
X68946D02*
D03*
X198701Y51800D02*
D03*
X195299D02*
D03*
X201799Y14500D02*
D03*
X205201D02*
D03*
X52201Y75000D02*
D03*
X48799D02*
D03*
X52201Y80000D02*
D03*
X48799D02*
D03*
X90338Y61625D02*
D03*
X86936D02*
D03*
X90319Y65674D02*
D03*
X86917D02*
D03*
X90372Y57174D02*
D03*
X86970D02*
D03*
X88799Y84500D02*
D03*
X92201D02*
D03*
X195402Y84000D02*
D03*
X192000D02*
D03*
X195402Y79000D02*
D03*
X192000D02*
D03*
X72348Y51100D02*
D03*
X75750D02*
D03*
X212299Y14500D02*
D03*
X215701D02*
D03*
X198701Y44800D02*
D03*
X195299D02*
D03*
X195301Y44796D02*
D03*
X191899D02*
D03*
D38*
X246691Y85974D02*
D03*
X250077D02*
D03*
X254607Y86000D02*
D03*
X257993D02*
D03*
X75709Y61484D02*
D03*
X72323D02*
D03*
X43688Y63053D02*
D03*
X40302D02*
D03*
X52193Y69500D02*
D03*
X48807D02*
D03*
Y85500D02*
D03*
X52193D02*
D03*
X88773Y79396D02*
D03*
X92159D02*
D03*
X262830Y86082D02*
D03*
X266215D02*
D03*
X41807Y37000D02*
D03*
X45193D02*
D03*
X72307Y56500D02*
D03*
X75693D02*
D03*
X265193Y15000D02*
D03*
X261807D02*
D03*
D39*
X32450Y81020D02*
D03*
Y83579D02*
D03*
X32217Y74966D02*
D03*
Y72407D02*
D03*
X32003Y22944D02*
D03*
Y25503D02*
D03*
X32000Y16441D02*
D03*
Y19000D02*
D03*
D40*
X64962Y57796D02*
D03*
Y61182D02*
D03*
X165107Y23866D02*
D03*
Y20480D02*
D03*
X165000Y68693D02*
D03*
Y65307D02*
D03*
X53500Y20307D02*
D03*
Y23693D02*
D03*
X58500Y20307D02*
D03*
Y23693D02*
D03*
Y37693D02*
D03*
Y34307D02*
D03*
D41*
X101000Y67000D02*
D03*
Y63598D02*
D03*
X59500Y57799D02*
D03*
Y61201D02*
D03*
X177100Y20299D02*
D03*
Y23701D02*
D03*
X165053Y32631D02*
D03*
Y29230D02*
D03*
X179000Y78299D02*
D03*
Y81701D02*
D03*
X38554Y82818D02*
D03*
Y86220D02*
D03*
X38460Y74713D02*
D03*
Y71311D02*
D03*
X101500Y85000D02*
D03*
Y81598D02*
D03*
X40000Y13000D02*
D03*
Y16402D02*
D03*
Y28402D02*
D03*
Y25000D02*
D03*
D42*
X171800Y19960D02*
D03*
Y23700D02*
D03*
X173000Y81870D02*
D03*
Y78130D02*
D03*
D43*
X267063Y77559D02*
D03*
X211945D02*
D03*
X267063Y22441D02*
D03*
X211945D02*
D03*
D44*
X262929Y77559D02*
D03*
X259583D02*
D03*
X256236D02*
D03*
X252890D02*
D03*
X249543D02*
D03*
X246197D02*
D03*
X242850D02*
D03*
X239504D02*
D03*
X236157D02*
D03*
X232811D02*
D03*
X229465D02*
D03*
X226118D02*
D03*
X222772D02*
D03*
X219425D02*
D03*
X216079D02*
D03*
Y22441D02*
D03*
X219425D02*
D03*
X222772D02*
D03*
X226118D02*
D03*
X229465D02*
D03*
X232811D02*
D03*
X236157D02*
D03*
X239504D02*
D03*
X242850D02*
D03*
X246197D02*
D03*
X249543D02*
D03*
X252890D02*
D03*
X256236D02*
D03*
X259583D02*
D03*
X262929D02*
D03*
D45*
X211945Y73425D02*
D03*
Y70079D02*
D03*
Y66732D02*
D03*
Y63386D02*
D03*
Y60039D02*
D03*
Y56693D02*
D03*
Y53347D02*
D03*
Y50000D02*
D03*
Y46654D02*
D03*
Y43307D02*
D03*
Y39961D02*
D03*
Y36614D02*
D03*
Y33268D02*
D03*
Y29921D02*
D03*
Y26575D02*
D03*
X267063D02*
D03*
Y29921D02*
D03*
Y33268D02*
D03*
Y36614D02*
D03*
Y39961D02*
D03*
Y43307D02*
D03*
Y46654D02*
D03*
Y50000D02*
D03*
Y53347D02*
D03*
Y56693D02*
D03*
Y60039D02*
D03*
Y63386D02*
D03*
Y66732D02*
D03*
Y70079D02*
D03*
Y73425D02*
D03*
D46*
X239504Y50000D02*
D03*
X246000D02*
D03*
Y43504D02*
D03*
X239504D02*
D03*
X233008D02*
D03*
Y50000D02*
D03*
Y56496D02*
D03*
X239504D02*
D03*
D47*
X71000Y77000D02*
D03*
D48*
X65697Y38055D02*
D03*
Y29000D02*
D03*
Y19945D02*
D03*
D49*
X90303Y29000D02*
D03*
D50*
X31220Y63000D02*
D03*
X33779D02*
D03*
X32721Y37000D02*
D03*
X35280D02*
D03*
D51*
X6752Y39016D02*
D03*
Y5000D02*
D03*
Y95000D02*
D03*
Y60984D02*
D03*
D52*
X22500Y39016D02*
D03*
Y5000D02*
D03*
Y95000D02*
D03*
Y60984D02*
D03*
D53*
X35000Y95000D02*
D03*
X45000D02*
D03*
X55000D02*
D03*
X65000D02*
D03*
X75000D02*
D03*
X85000D02*
D03*
X95000D02*
D03*
X105000D02*
D03*
X115000D02*
D03*
X125000D02*
D03*
X135000D02*
D03*
X145000D02*
D03*
X155000D02*
D03*
X165000D02*
D03*
X175000D02*
D03*
X185000D02*
D03*
X195000D02*
D03*
X205000D02*
D03*
X215000D02*
D03*
X225000D02*
D03*
X235000D02*
D03*
X245000D02*
D03*
X255000D02*
D03*
X35000Y5000D02*
D03*
X45000D02*
D03*
X55000D02*
D03*
X65000D02*
D03*
X75000D02*
D03*
X85000D02*
D03*
X95000D02*
D03*
X105000D02*
D03*
X115000D02*
D03*
X125000D02*
D03*
X135000D02*
D03*
X145000D02*
D03*
X155000D02*
D03*
X165000D02*
D03*
X175000D02*
D03*
X185000D02*
D03*
X195000D02*
D03*
X205000D02*
D03*
X215000D02*
D03*
X225000D02*
D03*
X235000D02*
D03*
X245000D02*
D03*
X255000D02*
D03*
D54*
X265000Y95000D02*
D03*
Y5000D02*
D03*
D55*
X37500Y45000D02*
D03*
Y50000D02*
D03*
X142500D02*
D03*
D56*
X37500Y55000D02*
D03*
D57*
X137500Y50000D02*
D03*
M02*
