G04*
G04 #@! TF.GenerationSoftware,Altium Limited,Altium Designer,25.2.1 (25)*
G04*
G04 Layer_Physical_Order=4*
G04 Layer_Color=16711680*
%FSLAX25Y25*%
%MOIN*%
G70*
G04*
G04 #@! TF.SameCoordinates,CFDFC737-2A4F-4172-B32B-428E1D980CDD*
G04*
G04*
G04 #@! TF.FilePolarity,Positive*
G04*
G01*
G75*
%ADD11C,0.00600*%
G04:AMPARAMS|DCode=51|XSize=39.37mil|YSize=86.61mil|CornerRadius=19.68mil|HoleSize=0mil|Usage=FLASHONLY|Rotation=270.000|XOffset=0mil|YOffset=0mil|HoleType=Round|Shape=RoundedRectangle|*
%AMROUNDEDRECTD51*
21,1,0.03937,0.04724,0,0,270.0*
21,1,0.00000,0.08661,0,0,270.0*
1,1,0.03937,-0.02362,0.00000*
1,1,0.03937,-0.02362,0.00000*
1,1,0.03937,0.02362,0.00000*
1,1,0.03937,0.02362,0.00000*
%
%ADD51ROUNDEDRECTD51*%
G04:AMPARAMS|DCode=52|XSize=39.37mil|YSize=70.87mil|CornerRadius=19.68mil|HoleSize=0mil|Usage=FLASHONLY|Rotation=270.000|XOffset=0mil|YOffset=0mil|HoleType=Round|Shape=RoundedRectangle|*
%AMROUNDEDRECTD52*
21,1,0.03937,0.03150,0,0,270.0*
21,1,0.00000,0.07087,0,0,270.0*
1,1,0.03937,-0.01575,0.00000*
1,1,0.03937,-0.01575,0.00000*
1,1,0.03937,0.01575,0.00000*
1,1,0.03937,0.01575,0.00000*
%
%ADD52ROUNDEDRECTD52*%
%ADD62C,0.00623*%
%ADD64C,0.00603*%
%ADD66C,0.06400*%
%ADD67R,0.06400X0.06400*%
%ADD68C,0.04000*%
%ADD69R,0.04000X0.04000*%
%ADD70R,0.04000X0.04000*%
%ADD71C,0.02400*%
%ADD72C,0.04000*%
D11*
X206698Y54692D02*
X227219Y34813D01*
X227641Y34644D02*
X256133Y35022D01*
X256347D02*
X256512Y34890D01*
X256133Y35022D02*
X256347D01*
X227219Y34813D02*
X227394Y34644D01*
X256512Y34890D02*
X258580Y33236D01*
X227394Y34644D02*
X227641D01*
X159679Y54692D02*
X206698D01*
X259389Y18522D02*
Y18784D01*
X258606Y33215D02*
X258795Y33026D01*
X258580Y33236D02*
X258606Y33215D01*
X258795Y33026D02*
X259389Y18784D01*
X245866Y5000D02*
X259389Y18522D01*
X245000Y5000D02*
X245866D01*
X137863D02*
X147512Y14509D01*
X135000Y5000D02*
X137863D01*
X147512Y14509D02*
X169395D01*
X176809Y15829D02*
X177049D01*
X189901Y15829D01*
X170852Y10169D02*
X176809Y15829D01*
X159263Y10169D02*
X170852D01*
X169028Y5926D02*
X177342Y13829D01*
X177582D01*
X165926Y5926D02*
X169028D01*
X177582Y13829D02*
X198228Y13829D01*
X152169Y12169D02*
X169890D01*
X176430Y18100D01*
X176661D01*
X196843Y18100D01*
X169395Y14509D02*
X175285Y20400D01*
X168035Y16236D02*
X174200Y22400D01*
X145004Y16236D02*
X168035D01*
X142643Y13875D02*
X145004Y16236D01*
X75647Y88030D02*
X86947D01*
X75563Y87946D02*
X75647Y88030D01*
X91597Y12400D02*
X97400D01*
X85305Y6271D02*
X91597Y12400D01*
X97400D02*
X107800Y22800D01*
X194885Y22400D02*
X199730Y27245D01*
X212989Y26087D02*
X216109Y29207D01*
X209474Y26087D02*
X212989D01*
X199730Y27245D02*
X208316D01*
X209474Y26087D01*
X203017Y25245D02*
X205202D01*
X205222Y25225D01*
X207507D02*
X208646Y24087D01*
X214229D01*
X216046Y25904D01*
X205222Y25225D02*
X207507D01*
X218774Y26768D02*
X219121D01*
X219400Y26490D02*
Y27016D01*
X216046Y25904D02*
X217910D01*
X219400Y27016D02*
X219421Y27036D01*
X219121Y26768D02*
X219400Y26490D01*
X217910Y25904D02*
X218774Y26768D01*
X175285Y20400D02*
X196314D01*
X202997Y25225D02*
X203017Y25245D01*
X196314Y20400D02*
X201140Y25225D01*
X202997D01*
X174200Y22400D02*
X194885D01*
X191839Y24817D02*
X196675Y29653D01*
X198653D01*
X198921Y29921D01*
X215058Y22087D02*
X216875Y23904D01*
X222192D02*
X222777Y24490D01*
X216875Y23904D02*
X222192D01*
X222777Y24490D02*
Y29319D01*
X48078Y6033D02*
X53841Y11796D01*
X59346D01*
X45000Y5000D02*
X46033Y6033D01*
X48078D01*
X64750Y17200D02*
X89000D01*
X59346Y11796D02*
X64750Y17200D01*
X185000Y6000D02*
X188811Y9811D01*
X185000Y5000D02*
Y6000D01*
X188811Y9811D02*
X200282D01*
X203158Y9814D02*
X210233D01*
X195963Y5963D02*
X199307D01*
X195000Y5000D02*
X195963Y5963D01*
X199307D02*
X203158Y9814D01*
X175000Y5000D02*
X181829Y11829D01*
X199471D01*
X175000Y5000D02*
X175000D01*
X198228Y13829D02*
X198714Y13900D01*
X199006Y14193D01*
X200627Y15814D01*
X196843Y18100D02*
X198556Y19814D01*
X165000Y5000D02*
X165926Y5926D01*
X155000Y5905D02*
X159263Y10169D01*
X155000Y5000D02*
Y5905D01*
X145000Y5000D02*
X152169Y12169D01*
X138412Y9710D02*
X142643Y13875D01*
X130095Y9710D02*
X138412D01*
X125000Y5000D02*
X125315D01*
X130095Y9710D01*
X137157Y16400D02*
X148724Y27967D01*
X116400Y16400D02*
X137157D01*
X148724Y27967D02*
X187737D01*
X105000Y5000D02*
X116400Y16400D01*
X138400Y13266D02*
X149951Y24817D01*
X191839D01*
X115000Y5000D02*
X123266Y13266D01*
X138400D01*
X187745Y27959D02*
X191419D01*
X193534Y30074D01*
X187737Y27967D02*
X187745Y27959D01*
X109875Y19875D02*
X136375D01*
X146467Y29967D02*
X176700D01*
X136375Y19875D02*
X146467Y29967D01*
X134000Y22800D02*
X143167Y31967D01*
X107800Y22800D02*
X134000D01*
X143167Y31967D02*
X175872D01*
X141367Y33967D02*
X175000D01*
X132400Y25000D02*
X141367Y33967D01*
X102200Y25000D02*
X132400D01*
X92400Y15200D02*
X102200Y25000D01*
X89000Y17200D02*
X100000Y28200D01*
X131640D02*
X139406Y35967D01*
X100000Y28200D02*
X131640D01*
X175000Y33967D02*
X177553Y36520D01*
X139406Y35967D02*
X174172D01*
X177456Y39251D01*
X95000Y5000D02*
X109875Y19875D01*
X68027Y15200D02*
X92400D01*
X85013Y5979D02*
X85305Y6271D01*
X85000Y5000D02*
X85013Y5979D01*
X58737Y5910D02*
X68027Y15200D01*
X166325Y57513D02*
X170585D01*
X160482Y63356D02*
X166325Y57513D01*
X173746Y60717D02*
X175552Y58911D01*
X165949Y60717D02*
X173746D01*
X175552Y58911D02*
X175759D01*
X171572Y67819D02*
X175347Y64044D01*
X177860Y65411D02*
X182697D01*
X183529Y64579D01*
X183907D01*
X172456Y70815D02*
X177860Y65411D01*
X161595Y67819D02*
X171572D01*
X153375Y48388D02*
X159679Y54692D01*
X159569Y69845D02*
X161595Y67819D01*
X164220Y70815D02*
X172456D01*
X161234Y65432D02*
X165949Y60717D01*
X155770Y69845D02*
X159569D01*
X195410Y67411D02*
X196089Y66732D01*
X187782Y67400D02*
X190018D01*
X196089Y66732D02*
X196468D01*
X190018Y67400D02*
X190030Y67411D01*
X195410D01*
X187770D02*
X187782Y67400D01*
X178689Y67411D02*
X187770D01*
X173284Y72816D02*
X178689Y67411D01*
X115009Y80849D02*
X127034Y68824D01*
X143735D01*
X146332Y74804D02*
X155704Y65432D01*
X161234D01*
X152114Y65951D02*
X154709Y63356D01*
X160482D01*
X114467Y78563D02*
X127078Y65951D01*
X152114D01*
X113701Y76500D02*
X127121Y63080D01*
X150024D01*
X242994Y72506D02*
Y79800D01*
X232494Y90300D02*
X242994Y79800D01*
X219700Y90300D02*
X232494D01*
X177553Y36520D02*
X187055D01*
X177456Y39251D02*
X189320D01*
X193534Y30074D02*
Y30385D01*
X190658Y31383D02*
X197857Y38581D01*
X178116Y31383D02*
X190658D01*
X197857Y38581D02*
X200158D01*
X188619Y33383D02*
X193909Y38673D01*
X177288Y33383D02*
X188619D01*
X200158Y38581D02*
X200368Y38792D01*
X175872Y31967D02*
X177288Y33383D01*
X100081Y71832D02*
X106281Y77921D01*
X106860Y78500D01*
X109286D01*
X85905Y71832D02*
X100081D01*
X109286Y78500D02*
X114467Y78563D01*
X133214Y81923D02*
X138333Y76804D01*
X132936Y82201D02*
X133214Y81923D01*
X124626Y84060D02*
X125688Y82998D01*
X128702Y82358D02*
X132936Y82201D01*
X125688Y82998D02*
X126328Y82358D01*
X128702D01*
X125455Y86060D02*
X126864Y84651D01*
X127157Y84358D02*
X128739D01*
X126864Y84651D02*
X127157Y84358D01*
X128739D02*
X134102Y84159D01*
X139458Y78804D01*
X126283Y88060D02*
X127692Y86651D01*
X127985Y86358D01*
X135006Y86127D02*
X135284Y85849D01*
X128776Y86358D02*
X135006Y86127D01*
X135284Y85849D02*
X139357Y81775D01*
X127985Y86358D02*
X128776D01*
X135865Y88096D02*
X140186Y83776D01*
X128536Y88636D02*
X128814Y88358D01*
X127112Y90060D02*
X128536Y88636D01*
X128814Y88358D02*
X135865Y88096D01*
X119940Y90060D02*
X127112D01*
X125000Y95000D02*
X129355Y90645D01*
X137358Y89814D02*
X140872Y86300D01*
X129632Y90367D02*
X137080Y90091D01*
X137358Y89814D01*
X129355Y90645D02*
X129632Y90367D01*
X115837Y82849D02*
X122609Y76078D01*
X136084D02*
X137358Y74804D01*
X122609Y76078D02*
X136084D01*
X115811Y82849D02*
X115837D01*
X107830Y83101D02*
X115559D01*
X115811Y82849D01*
X107253Y80849D02*
X115009D01*
X105053Y83050D02*
X107253Y80849D01*
X91772Y69341D02*
X100399D01*
X107689Y76500D02*
X113701D01*
X100399Y69341D02*
X107689Y76500D01*
X91505Y69073D02*
X91772Y69341D01*
X80060Y65987D02*
X85905Y71832D01*
X117455Y84060D02*
X124626D01*
X138748Y76804D02*
X150087D01*
X138333Y76804D02*
X138748Y76804D01*
X61050Y61800D02*
X75861D01*
X80047Y65987D02*
X80060D01*
X75861Y61800D02*
X80047Y65987D01*
X58500Y64350D02*
X61050Y61800D01*
X58500Y64350D02*
Y64360D01*
X58488Y64372D02*
X58500Y64360D01*
Y73649D02*
Y85799D01*
X58500Y86127D01*
X58488Y64372D02*
Y73637D01*
X58693Y86390D02*
X65000Y95000D01*
X58488Y73637D02*
X58500Y73649D01*
X58500Y86127D02*
X58693Y86390D01*
X86947Y88030D02*
X88877Y86100D01*
X89058D01*
X96342Y85903D02*
X98386Y83859D01*
X89256Y85903D02*
X96342D01*
X89058Y86100D02*
X89256Y85903D01*
X98386Y83859D02*
X104243D01*
X79719Y90281D02*
X87706D01*
X90084Y87902D01*
X75000Y95000D02*
X79719Y90281D01*
X90084Y87902D02*
X98050D01*
X86047Y95000D02*
X91144Y89903D01*
X85000Y95000D02*
X86047D01*
X91144Y89903D02*
X98879D01*
X104243Y83859D02*
X105037Y83065D01*
X164073Y76710D02*
X165968Y74815D01*
X158076Y79306D02*
X160672Y76710D01*
X164073D01*
X165968Y74815D02*
X169872D01*
X158076Y79306D02*
Y80567D01*
X154673Y76598D02*
Y81142D01*
Y76598D02*
X157426Y73844D01*
X154039Y81775D02*
X154673Y81142D01*
X157426Y73844D02*
X164110D01*
X152673Y75769D02*
X156598Y71845D01*
X152087Y78804D02*
X152673Y78218D01*
X139458Y78804D02*
X152087D01*
X156598Y71845D02*
X163191D01*
X152673Y75769D02*
Y78218D01*
X140186Y83776D02*
X154868D01*
X173535Y75565D02*
X179000Y70100D01*
X154868Y83776D02*
X158076Y80567D01*
X115000Y95000D02*
X119647Y90353D01*
X119940Y90060D01*
X105000Y95000D02*
X110899Y89101D01*
X139357Y81775D02*
X154039D01*
X164110Y73844D02*
X165139Y72816D01*
X173284D01*
X118071Y89101D02*
X119112Y88060D01*
X166807Y76815D02*
X169044D01*
X164482Y82300D02*
X165068Y81714D01*
X158318Y83153D02*
X159172Y82300D01*
X164482D01*
X165068Y78554D02*
X166807Y76815D01*
X165068Y78554D02*
Y81714D01*
X150673Y74941D02*
Y76218D01*
Y74941D02*
X155770Y69845D01*
X150087Y76804D02*
X150673Y76218D01*
X137358Y74804D02*
X146332D01*
X169044Y76815D02*
X169793Y77565D01*
X177753D01*
X178339Y76979D01*
Y73992D02*
Y76979D01*
X119112Y88060D02*
X126283D01*
X158318Y83153D02*
X158318D01*
X155464Y86007D02*
X158318Y83153D01*
X159486Y84814D02*
X159529D01*
X160043Y84300D02*
X174386D01*
X156000Y88300D02*
X159486Y84814D01*
X174386Y84300D02*
X176507Y82179D01*
X159529Y84814D02*
X160043Y84300D01*
X163191Y71845D02*
X164220Y70815D01*
X105037Y83065D02*
X105053Y83050D01*
X116527Y84987D02*
X117455Y84060D01*
X116400Y85101D02*
X116527Y84987D01*
X118283Y86060D02*
X125455D01*
X117242Y87101D02*
X118283Y86060D01*
X116828Y87101D02*
X117242Y87101D01*
X110071Y87101D02*
X116828D01*
X117657Y89101D02*
X118071Y89101D01*
X110899Y89101D02*
X117657D01*
X108658Y85101D02*
X116400D01*
X169872Y74815D02*
X170622Y75565D01*
X173535D01*
X98050Y87902D02*
X100093Y85859D01*
X105072D01*
X107830Y83101D01*
X98879Y89903D02*
X100922Y87859D01*
X105900D01*
X108658Y85101D01*
X101750Y89859D02*
X107313D01*
X110071Y87101D01*
X98128Y93481D02*
X101750Y89859D01*
X96461Y95000D02*
X97980Y93481D01*
X95000Y95000D02*
X96461D01*
X97980Y93481D02*
X98128D01*
X179000Y70100D02*
X188900D01*
X193134Y72867D02*
X193677D01*
X178339Y73992D02*
X180128Y72202D01*
X184818D01*
X186702Y74086D01*
X191914D01*
X193299Y72867D02*
X193677D01*
X191914Y74086D02*
X193134Y72867D01*
X140872Y86300D02*
X155172D01*
X155464Y86007D01*
X205242Y72800D02*
X205343Y72699D01*
X203300Y74382D02*
X204882Y72800D01*
X205343Y72699D02*
X216217D01*
X203300Y74382D02*
Y76901D01*
X204882Y72800D02*
X205242D01*
X200714Y75586D02*
X201300Y75000D01*
X193243Y75586D02*
X200714D01*
X201300Y73553D02*
Y75000D01*
Y73553D02*
X207549Y67304D01*
X191779Y77050D02*
X193243Y75586D01*
X202615Y77586D02*
X203300Y76901D01*
X194072Y77586D02*
X202615D01*
X185061Y77050D02*
X191779D01*
X182546Y79565D02*
X185061Y77050D01*
X167975Y79565D02*
X182546D01*
X192534Y79123D02*
X194072Y77586D01*
X183679Y82179D02*
X186735Y79123D01*
X192534D01*
X193178Y81307D02*
X194900Y79586D01*
X187379Y81307D02*
X193178D01*
X184386Y84300D02*
X187379Y81307D01*
X194900Y79586D02*
X203444D01*
X194450Y83307D02*
X196172Y81586D01*
X188207Y83307D02*
X194450D01*
X196172Y81586D02*
X204272D01*
X194643Y85943D02*
X197000Y83586D01*
X188400Y85943D02*
X194643D01*
X197000Y83586D02*
X205100D01*
X195643Y87943D02*
X198000Y85586D01*
X189229Y87943D02*
X195643D01*
X198000Y85586D02*
X205929D01*
X196872Y90300D02*
X199586Y87586D01*
X189700Y90300D02*
X196872D01*
X199586Y87586D02*
X206757D01*
X243407Y67304D02*
X246204Y70101D01*
X207549Y67304D02*
X243407D01*
X167926Y79515D02*
X167975Y79565D01*
X249500Y72500D02*
Y80500D01*
X235000Y95000D02*
X249500Y80500D01*
X225000Y95000D02*
X225659Y94341D01*
X176507Y82179D02*
X183679D01*
X141700Y88300D02*
X156000D01*
X135000Y95000D02*
X141700Y88300D01*
X55000Y5000D02*
X55910Y5910D01*
X58737D01*
X176700Y29967D02*
X178116Y31383D01*
X208360Y22087D02*
X215058D01*
X206086Y19814D02*
X208360Y22087D01*
X198556Y19814D02*
X206086D01*
X218830Y76300D02*
X219416Y75714D01*
Y70256D02*
Y75714D01*
X212843Y76300D02*
X218830D01*
X210843Y78300D02*
X212843Y76300D01*
X189901Y15829D02*
X197400D01*
X199385Y17814D01*
X206915D01*
X209188Y20087D01*
X215886D01*
X217703Y21904D01*
X225286D01*
X226112Y22729D01*
Y27059D01*
X200627Y15814D02*
X207743D01*
X210017Y18087D01*
X216715D01*
X218531Y19904D01*
X226115D01*
X227986Y21776D01*
X228748D01*
X229334Y22361D01*
Y29565D01*
X199471Y11829D02*
X201456Y13814D01*
X208572D01*
X210845Y16087D01*
X217543D01*
X219360Y17904D01*
X226943D01*
X228815Y19776D01*
X232159D01*
X232745Y20361D01*
Y27237D01*
X227772Y15904D02*
X229643Y17776D01*
X235656D02*
X236242Y18361D01*
Y29732D01*
X229643Y17776D02*
X235656D01*
X200282Y9811D02*
X202284Y11814D01*
X209400D01*
X211673Y14087D01*
X218372D01*
X220188Y15904D01*
X227772D01*
X210233Y9814D02*
X212507Y12087D01*
X219200D01*
X221017Y13904D01*
X228600D01*
X230472Y15776D01*
X238190D01*
X239561Y17146D01*
Y27165D01*
X220329Y10087D02*
X222145Y11904D01*
X229488D01*
X208947Y5700D02*
X213335Y10087D01*
X220329D01*
X229488Y11904D02*
X231360Y13776D01*
X205699Y5700D02*
X208947D01*
X205000Y5000D02*
X205699Y5700D01*
X231360Y13776D02*
X239019D01*
X240643Y15400D01*
X242323D01*
X242909Y15986D01*
Y29705D01*
X218858Y5789D02*
X222974Y9904D01*
X230317D01*
X215000Y5000D02*
X215789Y5789D01*
X218858D01*
X230317Y9904D02*
X232188Y11776D01*
X239847D01*
X241472Y13400D01*
X245646D01*
X246232Y13986D01*
Y27171D01*
X228944Y5703D02*
X233017Y9776D01*
X240676D02*
X242300Y11400D01*
X233017Y9776D02*
X240676D01*
X225000Y5000D02*
X225703Y5703D01*
X228944D01*
X242300Y11400D02*
X248963D01*
X249549Y11986D01*
Y29677D01*
X213672Y78300D02*
X222200D01*
X222786Y72857D02*
Y77714D01*
X222200Y78300D02*
X222786Y77714D01*
X211672Y80300D02*
X213672Y78300D01*
X204272Y81586D02*
X205558Y80300D01*
X211672D01*
X203444Y79586D02*
X204730Y78300D01*
X210843D01*
X145000Y95000D02*
X149700Y90300D01*
X156872D01*
X160872Y86300D01*
X175215D01*
X177215Y84300D01*
X184386D01*
X225000Y80300D02*
X226171Y79129D01*
Y70351D02*
Y79129D01*
X155000Y95000D02*
X161700Y88300D01*
X176043D01*
X178043Y86300D01*
X185215D01*
X188207Y83307D01*
X165000Y95000D02*
X169700Y90300D01*
X176872D01*
X178872Y88300D01*
X186043D01*
X188400Y85943D01*
X205100Y83586D02*
X206386Y82300D01*
X212500D01*
X214500Y80300D01*
X225000D01*
X175000Y95000D02*
X179700Y90300D01*
X186872D01*
X189229Y87943D01*
X205929Y85586D02*
X207215Y84300D01*
X213343D01*
X215343Y82300D01*
X226886D01*
X229500Y79686D01*
Y72500D02*
Y79686D01*
X185000Y95000D02*
X189700Y90300D01*
X206757Y87586D02*
X208043Y86300D01*
X214172D01*
X216172Y84300D01*
X227715D01*
X232813Y79202D01*
Y70165D02*
Y79202D01*
X195000Y95000D02*
X200414Y89586D01*
X207586D01*
X208872Y88300D01*
X215000D01*
X217000Y86300D01*
X228543D01*
X236259Y78584D01*
Y72480D02*
Y78584D01*
X205000Y95000D02*
X209700Y90300D01*
X216200D01*
X218200Y88300D01*
X229372D01*
X239504Y78168D01*
Y70004D02*
Y78168D01*
X215000Y95000D02*
X219700Y90300D01*
D51*
X6752Y39016D02*
D03*
Y5000D02*
D03*
Y95000D02*
D03*
Y60984D02*
D03*
D52*
X22500Y39016D02*
D03*
Y5000D02*
D03*
Y95000D02*
D03*
Y60984D02*
D03*
D62*
X32248Y82769D02*
X32613Y83134D01*
X32248Y79944D02*
X33069Y79123D01*
X32613Y83134D02*
X36258D01*
X32248Y79944D02*
Y82769D01*
X33642Y79123D02*
X33958Y78807D01*
X33069Y79123D02*
X33642D01*
X36848Y84557D02*
X43265Y78139D01*
X29989Y84192D02*
X30354Y84557D01*
X36258Y83134D02*
X42676Y76716D01*
X29989Y78685D02*
Y84192D01*
X30354Y84557D02*
X36848D01*
X30851Y77431D02*
Y77823D01*
X29989Y78685D02*
X30851Y77823D01*
X44245Y78139D02*
X45406Y79300D01*
X42676Y76716D02*
X44147D01*
X44963Y75900D02*
X45400D01*
X44147Y76716D02*
X44963Y75900D01*
X43265Y78139D02*
X44245D01*
X45406Y79300D02*
X45600D01*
D64*
X198316Y41572D02*
X201147Y44403D01*
X129019Y41572D02*
X198316D01*
X201147Y44403D02*
Y44882D01*
X201147Y50459D02*
Y51319D01*
X178778Y43008D02*
X193695D01*
X201147Y50459D01*
Y51319D02*
X201490Y51663D01*
X61459Y21368D02*
X90703Y50612D01*
X62040Y19965D02*
X91284Y49209D01*
X126990D02*
X131813Y44386D01*
X91284Y49209D02*
X126990D01*
X90703Y50612D02*
X127571D01*
X132394Y45789D01*
X44565Y22415D02*
X45612Y21368D01*
X44698Y19356D02*
X45306Y19965D01*
X44565Y22415D02*
Y22556D01*
X44211Y19356D02*
X44698D01*
X45612Y21368D02*
X61459D01*
X45306Y19965D02*
X62040D01*
X44211Y22556D02*
X44565D01*
X75436Y29415D02*
X93264Y47243D01*
X76839Y28834D02*
X93845Y45840D01*
X76839Y27470D02*
Y28834D01*
X77733Y26218D02*
Y26576D01*
X76839Y27470D02*
X77733Y26576D01*
X75436Y27481D02*
Y29415D01*
X74533Y26229D02*
Y26578D01*
X75436Y27481D01*
X93264Y47243D02*
X125332D01*
X93845Y45840D02*
X124751D01*
X129019Y41572D01*
X131231Y42983D02*
X178753D01*
X178778Y43008D01*
X125332Y47243D02*
X129567Y43008D01*
X131207D02*
X131231Y42983D01*
X129567Y43008D02*
X131207D01*
X178172Y44386D02*
X181948Y48163D01*
X131813Y44386D02*
X178172D01*
X177590Y45789D02*
X181367Y49566D01*
X132394Y45789D02*
X177590D01*
X181948Y48163D02*
X186335D01*
X181367Y49566D02*
X186748D01*
X187682Y50500D02*
X188000D01*
X186748Y49566D02*
X187682Y50500D01*
X186335Y48163D02*
X188035Y46463D01*
D66*
X35000Y95000D02*
D03*
X45000D02*
D03*
X55000D02*
D03*
X65000D02*
D03*
X75000D02*
D03*
X85000D02*
D03*
X95000D02*
D03*
X105000D02*
D03*
X115000D02*
D03*
X125000D02*
D03*
X135000D02*
D03*
X145000D02*
D03*
X155000D02*
D03*
X165000D02*
D03*
X175000D02*
D03*
X185000D02*
D03*
X195000D02*
D03*
X205000D02*
D03*
X215000D02*
D03*
X225000D02*
D03*
X235000D02*
D03*
X245000D02*
D03*
X255000D02*
D03*
X35000Y5000D02*
D03*
X45000D02*
D03*
X55000D02*
D03*
X65000D02*
D03*
X75000D02*
D03*
X85000D02*
D03*
X95000D02*
D03*
X105000D02*
D03*
X115000D02*
D03*
X125000D02*
D03*
X135000D02*
D03*
X145000D02*
D03*
X155000D02*
D03*
X165000D02*
D03*
X175000D02*
D03*
X185000D02*
D03*
X195000D02*
D03*
X205000D02*
D03*
X215000D02*
D03*
X225000D02*
D03*
X235000D02*
D03*
X245000D02*
D03*
X255000D02*
D03*
D67*
X265000Y95000D02*
D03*
Y5000D02*
D03*
D68*
X37500Y45000D02*
D03*
Y50000D02*
D03*
X142500D02*
D03*
D69*
X37500Y55000D02*
D03*
D70*
X137500Y50000D02*
D03*
D71*
X62277Y69259D02*
D03*
X73815Y65095D02*
D03*
X75563Y87946D02*
D03*
X94538Y59800D02*
D03*
X262529Y53330D02*
D03*
X262469Y56658D02*
D03*
X262544Y59986D02*
D03*
X262529Y63450D02*
D03*
X262439Y66687D02*
D03*
X262529Y73298D02*
D03*
X262363Y70136D02*
D03*
X259577Y72997D02*
D03*
X216109Y29207D02*
D03*
X198921Y29921D02*
D03*
X155700Y39100D02*
D03*
X170585Y57513D02*
D03*
X175759Y58911D02*
D03*
X175347Y64044D02*
D03*
X180848Y62651D02*
D03*
X183907Y64579D02*
D03*
X196468Y66732D02*
D03*
X143735Y68824D02*
D03*
X150026Y63077D02*
D03*
X95335Y82644D02*
D03*
X239414Y61015D02*
D03*
X255462Y89268D02*
D03*
X247133Y89109D02*
D03*
X251343Y89578D02*
D03*
X80596Y60533D02*
D03*
X80430Y57448D02*
D03*
X187055Y36520D02*
D03*
X189320Y39251D02*
D03*
X193534Y30385D02*
D03*
X193909Y38673D02*
D03*
X153375Y48388D02*
D03*
X262937Y39918D02*
D03*
X263100Y36700D02*
D03*
X263084Y29834D02*
D03*
X263181Y26649D02*
D03*
X262519Y49895D02*
D03*
X262590Y46677D02*
D03*
X262818Y43279D02*
D03*
X263093Y33327D02*
D03*
X126200Y79600D02*
D03*
X95126Y76745D02*
D03*
X91505Y69073D02*
D03*
X44211Y22556D02*
D03*
Y19356D02*
D03*
X74533Y26229D02*
D03*
X77733Y26218D02*
D03*
X47937Y60651D02*
D03*
X42544Y73434D02*
D03*
X44815Y71269D02*
D03*
X60897Y50024D02*
D03*
X80304Y50251D02*
D03*
X65002Y55305D02*
D03*
X34163Y78782D02*
D03*
X34763Y86937D02*
D03*
X42800Y81900D02*
D03*
X30462Y91321D02*
D03*
X28947Y36692D02*
D03*
X36000Y17200D02*
D03*
X123238Y40255D02*
D03*
X94981Y56027D02*
D03*
X30954Y58413D02*
D03*
X27910Y62916D02*
D03*
X35507Y74456D02*
D03*
X30851Y77431D02*
D03*
X45400Y75900D02*
D03*
X45600Y79300D02*
D03*
X201147Y44882D02*
D03*
X201490Y51663D02*
D03*
X184800Y51900D02*
D03*
X184700Y45800D02*
D03*
X188035Y46463D02*
D03*
X188000Y50500D02*
D03*
X35397Y25223D02*
D03*
X204900Y45000D02*
D03*
Y51700D02*
D03*
X79300Y23400D02*
D03*
X72900D02*
D03*
X49500Y35000D02*
D03*
X44796Y14437D02*
D03*
X44589Y26822D02*
D03*
X30500Y42000D02*
D03*
X28960Y9808D02*
D03*
X51183Y29439D02*
D03*
X54382Y29276D02*
D03*
X49565Y16359D02*
D03*
X53673Y16344D02*
D03*
X58643Y16426D02*
D03*
X58734Y28979D02*
D03*
X228580Y50086D02*
D03*
X228798Y56541D02*
D03*
X239340Y39631D02*
D03*
X228677Y43777D02*
D03*
X250516Y49795D02*
D03*
X250492Y55789D02*
D03*
X246154Y39677D02*
D03*
X236245Y46755D02*
D03*
X242770Y46709D02*
D03*
X242752Y53176D02*
D03*
X236306Y53208D02*
D03*
X101584Y38398D02*
D03*
X106682Y38462D02*
D03*
X111907Y38525D02*
D03*
X117428Y38652D02*
D03*
X96147Y38440D02*
D03*
X101584Y43475D02*
D03*
X106555Y43411D02*
D03*
X111864Y43538D02*
D03*
X117449D02*
D03*
X96168Y43390D02*
D03*
X95909Y33543D02*
D03*
X117500Y33500D02*
D03*
X112000D02*
D03*
X107000D02*
D03*
X101500D02*
D03*
X256294Y27570D02*
D03*
X161800Y19300D02*
D03*
X161700Y79500D02*
D03*
X252950Y72675D02*
D03*
X69304Y74962D02*
D03*
X73004D02*
D03*
X73104Y78962D02*
D03*
X69104D02*
D03*
X70018Y87977D02*
D03*
X45961Y85758D02*
D03*
X85300Y84500D02*
D03*
X169000Y64100D02*
D03*
X188900Y70100D02*
D03*
X193677Y72867D02*
D03*
X167926Y79515D02*
D03*
X200368Y38792D02*
D03*
X168414Y21441D02*
D03*
X204135Y22545D02*
D03*
X226112Y27059D02*
D03*
X219421Y27036D02*
D03*
X222777Y29319D02*
D03*
X229334Y29565D02*
D03*
X246232Y27171D02*
D03*
X232745Y27237D02*
D03*
X181038Y75216D02*
D03*
X267063Y18563D02*
D03*
X260500Y82575D02*
D03*
X206000Y75500D02*
D03*
X222762Y72834D02*
D03*
X226174Y70348D02*
D03*
X236259Y72480D02*
D03*
X246204Y70101D02*
D03*
X252894Y27463D02*
D03*
X239561Y27165D02*
D03*
X216217Y72699D02*
D03*
X249549Y29677D02*
D03*
X242909Y29705D02*
D03*
X236241Y29733D02*
D03*
X219420Y70252D02*
D03*
X229500Y72500D02*
D03*
X232813Y70165D02*
D03*
X239504Y70004D02*
D03*
X243000Y72500D02*
D03*
X249500D02*
D03*
D72*
X76808Y69308D02*
X81004Y73504D01*
X85007Y77507D01*
Y84500D01*
X62325Y69308D02*
X76808D01*
X43543Y63057D02*
X49693Y69207D01*
X37500Y50000D02*
X43543D01*
X60873D01*
X43543D02*
Y63057D01*
X49693Y69207D02*
Y82946D01*
X55000Y88253D01*
Y95000D01*
M02*
