G04*
G04 #@! TF.GenerationSoftware,Altium Limited,Altium Designer,25.2.1 (25)*
G04*
G04 Layer_Physical_Order=2*
G04 Layer_Color=36540*
%FSLAX25Y25*%
%MOIN*%
G70*
G04*
G04 #@! TF.SameCoordinates,CFDFC737-2A4F-4172-B32B-428E1D980CDD*
G04*
G04*
G04 #@! TF.FilePolarity,Positive*
G04*
G01*
G75*
G04:AMPARAMS|DCode=51|XSize=39.37mil|YSize=86.61mil|CornerRadius=19.68mil|HoleSize=0mil|Usage=FLASHONLY|Rotation=270.000|XOffset=0mil|YOffset=0mil|HoleType=Round|Shape=RoundedRectangle|*
%AMROUNDEDRECTD51*
21,1,0.03937,0.04724,0,0,270.0*
21,1,0.00000,0.08661,0,0,270.0*
1,1,0.03937,-0.02362,0.00000*
1,1,0.03937,-0.02362,0.00000*
1,1,0.03937,0.02362,0.00000*
1,1,0.03937,0.02362,0.00000*
%
%ADD51ROUNDEDRECTD51*%
G04:AMPARAMS|DCode=52|XSize=39.37mil|YSize=70.87mil|CornerRadius=19.68mil|HoleSize=0mil|Usage=FLASHONLY|Rotation=270.000|XOffset=0mil|YOffset=0mil|HoleType=Round|Shape=RoundedRectangle|*
%AMROUNDEDRECTD52*
21,1,0.03937,0.03150,0,0,270.0*
21,1,0.00000,0.07087,0,0,270.0*
1,1,0.03937,-0.01575,0.00000*
1,1,0.03937,-0.01575,0.00000*
1,1,0.03937,0.01575,0.00000*
1,1,0.03937,0.01575,0.00000*
%
%ADD52ROUNDEDRECTD52*%
%ADD59C,0.02000*%
%ADD61C,0.01500*%
%ADD66C,0.06400*%
%ADD67R,0.06400X0.06400*%
%ADD68C,0.04000*%
%ADD69R,0.04000X0.04000*%
%ADD70R,0.04000X0.04000*%
%ADD71C,0.02400*%
%ADD72C,0.04000*%
%ADD73C,0.06000*%
G36*
X269000Y98367D02*
Y92332D01*
X268500Y91820D01*
X261820D01*
Y98000D01*
X267849D01*
X268446Y98597D01*
X269000Y98367D01*
D02*
G37*
G36*
X91536Y97400D02*
X91086Y96621D01*
X90800Y95553D01*
Y94447D01*
X90879Y94150D01*
X90330Y93998D01*
X90266Y93965D01*
X90196Y93950D01*
X90090Y93876D01*
X89975Y93818D01*
X89928Y93764D01*
X89869Y93723D01*
X89800Y93615D01*
X89716Y93517D01*
X89693Y93449D01*
X89654Y93388D01*
X89631Y93261D01*
X89591Y93139D01*
X89597Y93067D01*
X89584Y92997D01*
X89781Y82263D01*
X89812Y82119D01*
X89829Y81972D01*
X89834Y81963D01*
X84708Y76837D01*
X84228Y76211D01*
X83925Y75481D01*
X83822Y74698D01*
Y58048D01*
X78165Y52391D01*
X77684Y51764D01*
X77382Y51034D01*
X77279Y50251D01*
X77382Y49468D01*
X77684Y48738D01*
X78165Y48111D01*
X78791Y47631D01*
X79521Y47328D01*
X80304Y47225D01*
X81088Y47328D01*
X81817Y47631D01*
X82444Y48111D01*
X88988Y54655D01*
X88988Y54655D01*
X89468Y55282D01*
X89771Y56011D01*
X89874Y56795D01*
X89874Y56795D01*
Y66809D01*
X90474Y67119D01*
X91067Y66873D01*
X91942D01*
X92751Y67208D01*
X93370Y67827D01*
X93704Y68636D01*
Y69511D01*
X93370Y70320D01*
X92751Y70938D01*
X91942Y71273D01*
X91067D01*
X90474Y71028D01*
X89874Y71338D01*
Y73444D01*
X94059Y77629D01*
X94206Y77646D01*
X94244Y77666D01*
X94286Y77675D01*
X94891Y77926D01*
X95361D01*
X95794Y77746D01*
X96127Y77414D01*
X96306Y76980D01*
Y76308D01*
X96326Y76209D01*
Y76109D01*
X96364Y76016D01*
X96384Y75917D01*
X96440Y75834D01*
X96478Y75741D01*
X96716Y75385D01*
X96787Y75314D01*
X96843Y75230D01*
X96926Y75174D01*
X96998Y75103D01*
X97090Y75065D01*
X97174Y75009D01*
X97272Y74990D01*
X97365Y74951D01*
X97465D01*
X97564Y74932D01*
X105725D01*
X113143Y67514D01*
X113473Y67293D01*
X113864Y67216D01*
X129439D01*
X139480Y57174D01*
Y53000D01*
X134500D01*
Y50388D01*
X134445Y49971D01*
Y46416D01*
X118712Y30683D01*
X92049D01*
X87662Y35070D01*
X86826Y35711D01*
X85853Y36114D01*
X84809Y36251D01*
X84809Y36251D01*
X70910D01*
X70910Y36251D01*
X69866Y36114D01*
X68893Y35711D01*
X68057Y35070D01*
X62275Y29288D01*
X61634Y28452D01*
X61231Y27479D01*
X61094Y26435D01*
X61231Y25390D01*
X61634Y24418D01*
X62102Y23807D01*
Y23520D01*
X61677Y23097D01*
X47927Y23128D01*
X47927Y23128D01*
X47926Y23128D01*
X47735Y23090D01*
X47537Y23051D01*
X47536Y23051D01*
X47536Y23051D01*
X47372Y22942D01*
X47205Y22831D01*
X47205Y22831D01*
X47205Y22830D01*
X46811Y22438D01*
X46674Y22448D01*
X46211Y22636D01*
Y22954D01*
X45907Y23689D01*
X45344Y24252D01*
X44609Y24556D01*
X43813D01*
X43078Y24252D01*
X42516Y23689D01*
X42211Y22954D01*
Y22158D01*
X42516Y21423D01*
X42983Y20956D01*
X42516Y20489D01*
X42211Y19754D01*
Y18958D01*
X42516Y18223D01*
X43078Y17661D01*
X43813Y17356D01*
X44609D01*
X45344Y17661D01*
X45880Y18197D01*
X46016Y18188D01*
X46480Y18040D01*
Y14200D01*
X46558Y13810D01*
X46779Y13479D01*
X47110Y13258D01*
X47500Y13180D01*
X69484D01*
X69875Y13258D01*
X70205Y13479D01*
X70426Y13810D01*
X70504Y14200D01*
X70504Y22059D01*
X70466Y22252D01*
X70427Y22447D01*
X70427Y22448D01*
X70426Y22450D01*
X70317Y22613D01*
X70207Y22779D01*
X70206Y22779D01*
X70205Y22780D01*
X70042Y22889D01*
X69877Y23000D01*
X69876Y23001D01*
X69875Y23001D01*
X69682Y23040D01*
X69487Y23079D01*
X68154Y23082D01*
Y23755D01*
X72283Y27884D01*
X72474Y27846D01*
X72568Y27720D01*
X72761Y27177D01*
X72533Y26627D01*
Y25831D01*
X72838Y25096D01*
X73400Y24533D01*
X74135Y24229D01*
X74931D01*
X75666Y24533D01*
X76128Y24995D01*
X76600Y24523D01*
X77335Y24218D01*
X78131D01*
X78866Y24523D01*
X79429Y25085D01*
X79733Y25820D01*
Y26616D01*
X79429Y27351D01*
X79198Y27582D01*
X79446Y28182D01*
X83138D01*
X87524Y23796D01*
X87524Y23796D01*
X88360Y23155D01*
X89333Y22751D01*
X90377Y22614D01*
X90377Y22614D01*
X120383D01*
X120383Y22614D01*
X121427Y22751D01*
X122400Y23155D01*
X123236Y23796D01*
X140324Y40884D01*
X140965Y41719D01*
X141368Y42692D01*
X141506Y43736D01*
X141368Y44781D01*
X140965Y45754D01*
X140522Y46332D01*
X140622Y46932D01*
X145426D01*
X145816Y47009D01*
X146147Y47230D01*
X146368Y47561D01*
X146446Y47951D01*
Y61632D01*
X146446Y61632D01*
X146446Y61633D01*
X146406Y61831D01*
X146368Y62022D01*
X146368Y62023D01*
X146368Y62023D01*
X146257Y62189D01*
X146147Y62353D01*
X146147Y62353D01*
X146147Y62353D01*
X140359Y68135D01*
X140314Y70552D01*
X140734Y70980D01*
X141932D01*
X142180Y70380D01*
X141870Y70070D01*
X141535Y69262D01*
Y68386D01*
X141870Y67578D01*
X142489Y66959D01*
X143298Y66624D01*
X144173D01*
X144981Y66959D01*
X145600Y67578D01*
X145935Y68386D01*
Y69262D01*
X145600Y70070D01*
X145290Y70380D01*
X145538Y70980D01*
X186234Y70980D01*
X186468Y70758D01*
X186699Y70409D01*
X186700Y70402D01*
Y69662D01*
X187035Y68854D01*
X187654Y68235D01*
X188462Y67900D01*
X189338D01*
X190146Y68235D01*
X190765Y68854D01*
X191100Y69662D01*
Y70538D01*
X190765Y71346D01*
X190146Y71965D01*
X189338Y72300D01*
X189290D01*
X189049Y72900D01*
X195665Y79232D01*
X252080Y79232D01*
Y74875D01*
X252113Y74709D01*
X251704Y74540D01*
X251138Y73973D01*
X250746Y74365D01*
X249938Y74700D01*
X249062D01*
X248254Y74365D01*
X247635Y73746D01*
X247300Y72938D01*
Y72677D01*
X246700Y72277D01*
X246641Y72301D01*
X245766D01*
X245699Y72273D01*
X245200Y72606D01*
Y72938D01*
X244865Y73746D01*
X244246Y74365D01*
X243438Y74700D01*
X242562D01*
X241754Y74365D01*
X241135Y73746D01*
X240800Y72938D01*
Y72498D01*
X240200Y72097D01*
X239942Y72204D01*
X239066D01*
X239059Y72201D01*
X238459Y72602D01*
Y72917D01*
X238124Y73726D01*
X237505Y74345D01*
X236697Y74680D01*
X235821D01*
X235013Y74345D01*
X234394Y73726D01*
X234059Y72917D01*
Y72680D01*
X233459Y72279D01*
X233251Y72365D01*
X232376D01*
X232199Y72292D01*
X231700Y72626D01*
Y72938D01*
X231365Y73746D01*
X230746Y74365D01*
X229938Y74700D01*
X229062D01*
X228254Y74365D01*
X227635Y73746D01*
X227300Y72938D01*
Y72803D01*
X226801Y72470D01*
X226611Y72548D01*
X225736D01*
X225562Y72476D01*
X224962Y72877D01*
Y73272D01*
X224627Y74080D01*
X224008Y74699D01*
X223200Y75034D01*
X222324D01*
X221516Y74699D01*
X220897Y74080D01*
X220562Y73272D01*
Y72809D01*
X219962Y72408D01*
X219858Y72452D01*
X218983D01*
X218417Y72867D01*
Y73137D01*
X218082Y73945D01*
X217463Y74564D01*
X216655Y74899D01*
X215780D01*
X214971Y74564D01*
X214352Y73945D01*
X214017Y73137D01*
Y72261D01*
X214352Y71453D01*
X214971Y70834D01*
X215780Y70499D01*
X216655D01*
X217220Y70084D01*
Y69814D01*
X217555Y69005D01*
X218174Y68387D01*
X218983Y68052D01*
X219858D01*
X220667Y68387D01*
X221285Y69005D01*
X221620Y69814D01*
Y70276D01*
X222220Y70677D01*
X222324Y70634D01*
X223200D01*
X223374Y70706D01*
X223974Y70305D01*
Y69910D01*
X224309Y69102D01*
X224928Y68483D01*
X225736Y68148D01*
X226611D01*
X227420Y68483D01*
X228039Y69102D01*
X228374Y69910D01*
Y70045D01*
X228873Y70379D01*
X229062Y70300D01*
X229938D01*
X230114Y70373D01*
X230613Y70040D01*
Y69728D01*
X230948Y68919D01*
X231567Y68300D01*
X232376Y67966D01*
X233251D01*
X234059Y68300D01*
X234678Y68919D01*
X235013Y69728D01*
Y69965D01*
X235613Y70366D01*
X235821Y70280D01*
X236697D01*
X236704Y70283D01*
X237304Y69882D01*
Y69566D01*
X237639Y68758D01*
X238258Y68139D01*
X239066Y67804D01*
X239942D01*
X240750Y68139D01*
X241369Y68758D01*
X241704Y69566D01*
Y70006D01*
X242304Y70407D01*
X242562Y70300D01*
X243438D01*
X243505Y70328D01*
X244004Y69994D01*
Y69663D01*
X244339Y68855D01*
X244957Y68236D01*
X245766Y67901D01*
X246641D01*
X247450Y68236D01*
X248069Y68855D01*
X248404Y69663D01*
Y69923D01*
X249004Y70324D01*
X249062Y70300D01*
X249938D01*
X250746Y70635D01*
X251312Y71201D01*
X251704Y70810D01*
X252113Y70640D01*
X252080Y70475D01*
Y30883D01*
X251480Y30763D01*
X251414Y30923D01*
X250795Y31542D01*
X249987Y31877D01*
X249112D01*
X248303Y31542D01*
X247684Y30923D01*
X247349Y30115D01*
Y29739D01*
X246749Y29338D01*
X246670Y29371D01*
X245795D01*
X245709Y29336D01*
X245109Y29737D01*
Y30143D01*
X244774Y30951D01*
X244155Y31570D01*
X243347Y31905D01*
X242471D01*
X241663Y31570D01*
X241044Y30951D01*
X240709Y30143D01*
Y29721D01*
X240109Y29320D01*
X239999Y29365D01*
X239124D01*
X239041Y29331D01*
X238441Y29732D01*
Y30171D01*
X238106Y30979D01*
X237487Y31598D01*
X236678Y31933D01*
X235803D01*
X234995Y31598D01*
X234376Y30979D01*
X234041Y30171D01*
Y29731D01*
X233441Y29330D01*
X233182Y29437D01*
X232307D01*
X232134Y29366D01*
X231534Y29766D01*
Y30003D01*
X231199Y30811D01*
X230580Y31430D01*
X229772Y31765D01*
X228896D01*
X228088Y31430D01*
X227469Y30811D01*
X227134Y30003D01*
Y29666D01*
X226549Y29259D01*
X225674D01*
X225476Y29177D01*
X224977Y29510D01*
Y29757D01*
X224642Y30565D01*
X224024Y31184D01*
X223215Y31519D01*
X222340D01*
X221531Y31184D01*
X220912Y30565D01*
X220577Y29757D01*
Y29478D01*
X220078Y29145D01*
X219858Y29236D01*
X218983D01*
X218808Y29164D01*
X218309Y29497D01*
Y29645D01*
X217974Y30453D01*
X217355Y31072D01*
X216546Y31407D01*
X215671D01*
X214862Y31072D01*
X214244Y30453D01*
X213909Y29645D01*
Y28769D01*
X214244Y27961D01*
X214862Y27342D01*
X215671Y27007D01*
X216546D01*
X216722Y27080D01*
X217221Y26746D01*
Y26599D01*
X217556Y25790D01*
X218174Y25171D01*
X218983Y24836D01*
X219858D01*
X220667Y25171D01*
X221286Y25790D01*
X221621Y26599D01*
Y26877D01*
X222119Y27210D01*
X222340Y27119D01*
X223215D01*
X223413Y27201D01*
X223912Y26867D01*
Y26621D01*
X224247Y25812D01*
X224866Y25194D01*
X225674Y24859D01*
X226549D01*
X227358Y25194D01*
X227977Y25812D01*
X228312Y26621D01*
Y26958D01*
X228896Y27365D01*
X229772D01*
X229945Y27437D01*
X230545Y27036D01*
Y26800D01*
X230880Y25991D01*
X231499Y25372D01*
X232307Y25037D01*
X233182D01*
X233991Y25372D01*
X234610Y25991D01*
X234945Y26800D01*
Y27239D01*
X235545Y27640D01*
X235803Y27533D01*
X236678D01*
X236761Y27568D01*
X237361Y27167D01*
Y26728D01*
X237696Y25919D01*
X238315Y25300D01*
X239124Y24965D01*
X239999D01*
X240807Y25300D01*
X241426Y25919D01*
X241761Y26728D01*
Y27150D01*
X242361Y27551D01*
X242471Y27505D01*
X243347D01*
X243432Y27540D01*
X244032Y27140D01*
Y26734D01*
X244367Y25925D01*
X244986Y25306D01*
X245795Y24971D01*
X246670D01*
X247478Y25306D01*
X248097Y25925D01*
X248432Y26734D01*
Y27109D01*
X249032Y27510D01*
X249112Y27477D01*
X249987D01*
X250795Y27812D01*
X251414Y28431D01*
X251648Y28995D01*
X252303Y29056D01*
X252379Y28942D01*
X252710Y28721D01*
X253100Y28644D01*
X253129D01*
X253562Y28464D01*
X253820Y28207D01*
X254151Y27986D01*
X254541Y27908D01*
X254931Y27986D01*
X255262Y28207D01*
X255626Y28570D01*
X256059Y28750D01*
X256529D01*
X256963Y28570D01*
X257295Y28238D01*
X257455Y27852D01*
Y27288D01*
X257295Y26901D01*
X256963Y26569D01*
X256529Y26389D01*
X256059D01*
X255626Y26569D01*
X255368Y26826D01*
X255037Y27047D01*
X254647Y27125D01*
X254257Y27047D01*
X253926Y26826D01*
X253562Y26463D01*
X253129Y26283D01*
X253100D01*
X252710Y26205D01*
X252379Y25984D01*
X252158Y25653D01*
X252080Y25263D01*
Y19822D01*
X248278Y16020D01*
X235663D01*
X235580Y16003D01*
X235495Y16006D01*
X235386Y15965D01*
X235272Y15942D01*
X235202Y15895D01*
X235123Y15865D01*
X230761Y13144D01*
X230664Y13053D01*
X230557Y12977D01*
X230521Y12918D01*
X230470Y12871D01*
X230416Y12751D01*
X230346Y12639D01*
X230335Y12571D01*
X230307Y12509D01*
X230303Y12377D01*
X230281Y12246D01*
X230409Y8184D01*
X230452Y7998D01*
X230492Y7811D01*
X230497Y7804D01*
X230499Y7796D01*
X230610Y7641D01*
X230718Y7484D01*
X230725Y7479D01*
X230730Y7473D01*
X230892Y7372D01*
X231052Y7268D01*
X231206Y6828D01*
X231086Y6621D01*
X230800Y5553D01*
Y4447D01*
X231086Y3379D01*
X231639Y2421D01*
X232260Y1800D01*
X232033Y1200D01*
X227967D01*
X227740Y1800D01*
X228361Y2421D01*
X228914Y3379D01*
X229200Y4447D01*
Y5553D01*
X228914Y6621D01*
X228361Y7579D01*
X227579Y8361D01*
X226621Y8914D01*
X225553Y9200D01*
X224447D01*
X223379Y8914D01*
X222421Y8361D01*
X221639Y7579D01*
X221086Y6621D01*
X220800Y5553D01*
Y4447D01*
X221086Y3379D01*
X221639Y2421D01*
X222260Y1800D01*
X222033Y1200D01*
X217967D01*
X217740Y1800D01*
X218361Y2421D01*
X218914Y3379D01*
X219200Y4447D01*
Y5553D01*
X218914Y6621D01*
X218361Y7579D01*
X217579Y8361D01*
X216621Y8914D01*
X215553Y9200D01*
X214447D01*
X213379Y8914D01*
X212421Y8361D01*
X211639Y7579D01*
X211086Y6621D01*
X210800Y5553D01*
Y4447D01*
X211086Y3379D01*
X211639Y2421D01*
X212260Y1800D01*
X212033Y1200D01*
X207967D01*
X207740Y1800D01*
X208361Y2421D01*
X208914Y3379D01*
X209200Y4447D01*
Y5553D01*
X208914Y6621D01*
X208361Y7579D01*
X207579Y8361D01*
X206621Y8914D01*
X205553Y9200D01*
X204447D01*
X203379Y8914D01*
X202421Y8361D01*
X201639Y7579D01*
X201086Y6621D01*
X200800Y5553D01*
Y4447D01*
X201086Y3379D01*
X201639Y2421D01*
X202260Y1800D01*
X202033Y1200D01*
X197967D01*
X197740Y1800D01*
X198361Y2421D01*
X198914Y3379D01*
X199200Y4447D01*
Y5553D01*
X198914Y6621D01*
X198361Y7579D01*
X197579Y8361D01*
X196621Y8914D01*
X195553Y9200D01*
X194447D01*
X193379Y8914D01*
X192421Y8361D01*
X191639Y7579D01*
X191086Y6621D01*
X190800Y5553D01*
Y4447D01*
X191086Y3379D01*
X191639Y2421D01*
X192260Y1800D01*
X192033Y1200D01*
X187967D01*
X187740Y1800D01*
X188361Y2421D01*
X188914Y3379D01*
X189200Y4447D01*
Y5553D01*
X188914Y6621D01*
X188361Y7579D01*
X187579Y8361D01*
X186621Y8914D01*
X185553Y9200D01*
X184447D01*
X183379Y8914D01*
X182421Y8361D01*
X181639Y7579D01*
X181086Y6621D01*
X180800Y5553D01*
Y4447D01*
X181086Y3379D01*
X181639Y2421D01*
X182260Y1800D01*
X182033Y1200D01*
X177967D01*
X177740Y1800D01*
X178361Y2421D01*
X178914Y3379D01*
X179200Y4447D01*
Y5553D01*
X178914Y6621D01*
X178361Y7579D01*
X177579Y8361D01*
X176621Y8914D01*
X175553Y9200D01*
X174447D01*
X173379Y8914D01*
X172421Y8361D01*
X171639Y7579D01*
X171086Y6621D01*
X170800Y5553D01*
Y4447D01*
X171086Y3379D01*
X171639Y2421D01*
X172260Y1800D01*
X172033Y1200D01*
X167967D01*
X167740Y1800D01*
X168361Y2421D01*
X168914Y3379D01*
X169200Y4447D01*
Y5553D01*
X168914Y6621D01*
X168361Y7579D01*
X167579Y8361D01*
X166621Y8914D01*
X165553Y9200D01*
X164447D01*
X163379Y8914D01*
X162421Y8361D01*
X161639Y7579D01*
X161086Y6621D01*
X160800Y5553D01*
Y4447D01*
X161086Y3379D01*
X161639Y2421D01*
X162260Y1800D01*
X162033Y1200D01*
X157967D01*
X157740Y1800D01*
X158361Y2421D01*
X158914Y3379D01*
X159200Y4447D01*
Y5553D01*
X158914Y6621D01*
X158361Y7579D01*
X157579Y8361D01*
X156621Y8914D01*
X155553Y9200D01*
X154447D01*
X153379Y8914D01*
X152421Y8361D01*
X151639Y7579D01*
X151086Y6621D01*
X150800Y5553D01*
Y4447D01*
X151086Y3379D01*
X151639Y2421D01*
X152260Y1800D01*
X152033Y1200D01*
X147967D01*
X147740Y1800D01*
X148361Y2421D01*
X148914Y3379D01*
X149200Y4447D01*
Y5553D01*
X148914Y6621D01*
X148361Y7579D01*
X147579Y8361D01*
X146621Y8914D01*
X145553Y9200D01*
X144447D01*
X143379Y8914D01*
X142421Y8361D01*
X141639Y7579D01*
X141086Y6621D01*
X140800Y5553D01*
Y4447D01*
X141086Y3379D01*
X141639Y2421D01*
X142260Y1800D01*
X142033Y1200D01*
X137967D01*
X137740Y1800D01*
X138361Y2421D01*
X138914Y3379D01*
X139200Y4447D01*
Y5553D01*
X138914Y6621D01*
X138361Y7579D01*
X137579Y8361D01*
X136621Y8914D01*
X135553Y9200D01*
X134447D01*
X133379Y8914D01*
X132421Y8361D01*
X131639Y7579D01*
X131086Y6621D01*
X130800Y5553D01*
Y4447D01*
X131086Y3379D01*
X131639Y2421D01*
X132260Y1800D01*
X132033Y1200D01*
X127967D01*
X127740Y1800D01*
X128361Y2421D01*
X128914Y3379D01*
X129200Y4447D01*
Y5553D01*
X128914Y6621D01*
X128361Y7579D01*
X127579Y8361D01*
X126621Y8914D01*
X125553Y9200D01*
X124447D01*
X123379Y8914D01*
X122421Y8361D01*
X121639Y7579D01*
X121086Y6621D01*
X120800Y5553D01*
Y4447D01*
X121086Y3379D01*
X121639Y2421D01*
X122260Y1800D01*
X122033Y1200D01*
X117967D01*
X117740Y1800D01*
X118361Y2421D01*
X118914Y3379D01*
X119200Y4447D01*
Y5553D01*
X118914Y6621D01*
X118361Y7579D01*
X117579Y8361D01*
X116621Y8914D01*
X115553Y9200D01*
X114447D01*
X113379Y8914D01*
X112421Y8361D01*
X111639Y7579D01*
X111086Y6621D01*
X110800Y5553D01*
Y4447D01*
X111086Y3379D01*
X111639Y2421D01*
X112260Y1800D01*
X112033Y1200D01*
X107967D01*
X107740Y1800D01*
X108361Y2421D01*
X108914Y3379D01*
X109200Y4447D01*
Y5553D01*
X108914Y6621D01*
X108361Y7579D01*
X107579Y8361D01*
X106621Y8914D01*
X105553Y9200D01*
X104447D01*
X103379Y8914D01*
X102421Y8361D01*
X101639Y7579D01*
X101086Y6621D01*
X100800Y5553D01*
Y4447D01*
X101086Y3379D01*
X101639Y2421D01*
X102260Y1800D01*
X102033Y1200D01*
X97967D01*
X97740Y1800D01*
X98361Y2421D01*
X98914Y3379D01*
X99200Y4447D01*
Y5553D01*
X98914Y6621D01*
X98361Y7579D01*
X97579Y8361D01*
X96621Y8914D01*
X95553Y9200D01*
X94447D01*
X93379Y8914D01*
X92421Y8361D01*
X91639Y7579D01*
X91086Y6621D01*
X90800Y5553D01*
Y4447D01*
X91086Y3379D01*
X91639Y2421D01*
X92260Y1800D01*
X92033Y1200D01*
X87967D01*
X87740Y1800D01*
X88361Y2421D01*
X88914Y3379D01*
X89200Y4447D01*
Y5553D01*
X88914Y6621D01*
X88361Y7579D01*
X87579Y8361D01*
X86621Y8914D01*
X85553Y9200D01*
X84447D01*
X83379Y8914D01*
X82421Y8361D01*
X81639Y7579D01*
X81086Y6621D01*
X80800Y5553D01*
Y4447D01*
X81086Y3379D01*
X81639Y2421D01*
X82260Y1800D01*
X82033Y1200D01*
X77618D01*
X77457Y1796D01*
X77457Y1800D01*
X78201Y2544D01*
X78727Y3456D01*
X79000Y4473D01*
Y5527D01*
X78727Y6544D01*
X78201Y7456D01*
X77456Y8201D01*
X76544Y8727D01*
X75527Y9000D01*
X74473D01*
X73456Y8727D01*
X72544Y8201D01*
X71799Y7456D01*
X71273Y6544D01*
X71000Y5527D01*
Y4473D01*
X71273Y3456D01*
X71799Y2544D01*
X72543Y1800D01*
X72543Y1796D01*
X72382Y1200D01*
X67618D01*
X67457Y1796D01*
X67457Y1800D01*
X68201Y2544D01*
X68727Y3456D01*
X69000Y4473D01*
Y5527D01*
X68727Y6544D01*
X68201Y7456D01*
X67456Y8201D01*
X66544Y8727D01*
X65527Y9000D01*
X64473D01*
X63456Y8727D01*
X62544Y8201D01*
X61799Y7456D01*
X61273Y6544D01*
X61000Y5527D01*
Y4473D01*
X61273Y3456D01*
X61799Y2544D01*
X62543Y1800D01*
X62543Y1796D01*
X62382Y1200D01*
X57967D01*
X57740Y1800D01*
X58361Y2421D01*
X58914Y3379D01*
X59200Y4447D01*
Y5553D01*
X58914Y6621D01*
X58361Y7579D01*
X57579Y8361D01*
X56621Y8914D01*
X55553Y9200D01*
X54447D01*
X53379Y8914D01*
X52421Y8361D01*
X51639Y7579D01*
X51086Y6621D01*
X50800Y5553D01*
Y4447D01*
X51086Y3379D01*
X51639Y2421D01*
X52260Y1800D01*
X52033Y1200D01*
X47967D01*
X47740Y1800D01*
X48361Y2421D01*
X48914Y3379D01*
X49200Y4447D01*
Y5553D01*
X48914Y6621D01*
X48361Y7579D01*
X47579Y8361D01*
X46621Y8914D01*
X45553Y9200D01*
X44447D01*
X43379Y8914D01*
X42421Y8361D01*
X41639Y7579D01*
X41086Y6621D01*
X40800Y5553D01*
Y4447D01*
X41086Y3379D01*
X41639Y2421D01*
X42260Y1800D01*
X42033Y1200D01*
X2000D01*
Y98000D01*
X31277D01*
X31536Y97400D01*
X31086Y96621D01*
X30800Y95553D01*
Y94447D01*
X31086Y93379D01*
X31639Y92421D01*
X32421Y91639D01*
X33379Y91086D01*
X34447Y90800D01*
X35553D01*
X36621Y91086D01*
X37579Y91639D01*
X38361Y92421D01*
X38914Y93379D01*
X39200Y94447D01*
Y95553D01*
X38914Y96621D01*
X38464Y97400D01*
X38723Y98000D01*
X51277D01*
X51536Y97400D01*
X51086Y96621D01*
X50800Y95553D01*
Y94447D01*
X51086Y93379D01*
X51639Y92421D01*
X52421Y91639D01*
X53379Y91086D01*
X54447Y90800D01*
X55553D01*
X56621Y91086D01*
X57579Y91639D01*
X58361Y92421D01*
X58914Y93379D01*
X59200Y94447D01*
Y95553D01*
X58914Y96621D01*
X58464Y97400D01*
X58723Y98000D01*
X61277D01*
X61536Y97400D01*
X61086Y96621D01*
X60800Y95553D01*
Y94447D01*
X61086Y93379D01*
X61639Y92421D01*
X62421Y91639D01*
X63379Y91086D01*
X64447Y90800D01*
X65553D01*
X66621Y91086D01*
X67579Y91639D01*
X68361Y92421D01*
X68914Y93379D01*
X69200Y94447D01*
Y95553D01*
X68914Y96621D01*
X68464Y97400D01*
X68723Y98000D01*
X71277D01*
X71536Y97400D01*
X71086Y96621D01*
X70800Y95553D01*
Y94447D01*
X71086Y93379D01*
X71639Y92421D01*
X72421Y91639D01*
X73379Y91086D01*
X74447Y90800D01*
X75553D01*
X76621Y91086D01*
X77579Y91639D01*
X78361Y92421D01*
X78914Y93379D01*
X79200Y94447D01*
Y95553D01*
X78914Y96621D01*
X78464Y97400D01*
X78723Y98000D01*
X81277D01*
X81536Y97400D01*
X81086Y96621D01*
X80800Y95553D01*
Y94447D01*
X81086Y93379D01*
X81639Y92421D01*
X82421Y91639D01*
X83379Y91086D01*
X84447Y90800D01*
X85553D01*
X86621Y91086D01*
X87579Y91639D01*
X88361Y92421D01*
X88914Y93379D01*
X89200Y94447D01*
Y95553D01*
X88914Y96621D01*
X88464Y97400D01*
X88723Y98000D01*
X91277D01*
X91536Y97400D01*
D02*
G37*
G36*
X260800Y90800D02*
X268500D01*
Y20999D01*
X267900Y20598D01*
X267501Y20763D01*
X266625D01*
X265817Y20428D01*
X265198Y19809D01*
X264863Y19001D01*
Y18125D01*
X265198Y17317D01*
X265817Y16698D01*
X266625Y16363D01*
X267501D01*
X267900Y16528D01*
X268500Y16127D01*
Y1900D01*
Y1200D01*
X266297D01*
X257967D01*
X257740Y1800D01*
X258361Y2421D01*
X258914Y3379D01*
X259200Y4447D01*
Y5553D01*
X258914Y6621D01*
X258361Y7579D01*
X257579Y8361D01*
X256621Y8914D01*
X255553Y9200D01*
X254447D01*
X253379Y8914D01*
X252421Y8361D01*
X251639Y7579D01*
X251086Y6621D01*
X250800Y5553D01*
Y4447D01*
X251086Y3379D01*
X251639Y2421D01*
X252260Y1800D01*
X252033Y1200D01*
X247967D01*
X247740Y1800D01*
X248361Y2421D01*
X248914Y3379D01*
X249200Y4447D01*
Y5553D01*
X248914Y6621D01*
X248361Y7579D01*
X247579Y8361D01*
X246621Y8914D01*
X245553Y9200D01*
X244447D01*
X243379Y8914D01*
X242421Y8361D01*
X241639Y7579D01*
X241086Y6621D01*
X240800Y5553D01*
Y4447D01*
X241086Y3379D01*
X241639Y2421D01*
X242260Y1800D01*
X242033Y1200D01*
X237967Y1200D01*
X237740Y1800D01*
X238361Y2421D01*
X238914Y3379D01*
X239200Y4447D01*
Y5553D01*
X238914Y6621D01*
X238361Y7579D01*
X237579Y8361D01*
X236621Y8914D01*
X235553Y9200D01*
X234447D01*
X233379Y8914D01*
X232421Y8361D01*
X232036Y7975D01*
X231428Y8216D01*
X231300Y12279D01*
X235663Y15000D01*
X248700D01*
X253100Y19400D01*
Y25263D01*
X253331D01*
X254140Y25598D01*
X254647Y26105D01*
X255048Y25705D01*
X255857Y25370D01*
X256732D01*
X257540Y25705D01*
X258159Y26323D01*
X258494Y27132D01*
Y28007D01*
X258159Y28816D01*
X257540Y29435D01*
X256732Y29770D01*
X255857D01*
X255048Y29435D01*
X254541Y28928D01*
X254140Y29328D01*
X253331Y29663D01*
X253100D01*
Y70475D01*
X253388D01*
X254196Y70810D01*
X254815Y71428D01*
X255150Y72237D01*
Y73112D01*
X254815Y73921D01*
X254196Y74540D01*
X253388Y74875D01*
X253100D01*
Y80251D01*
X195255Y80251D01*
X186634Y72000D01*
X139267Y72000D01*
X139348Y67705D01*
X145426Y61632D01*
Y47951D01*
X140500D01*
Y57596D01*
X129861Y68235D01*
X113864D01*
X106148Y75951D01*
X97564D01*
X97326Y76308D01*
Y77183D01*
X96991Y77991D01*
X96372Y78610D01*
X95564Y78945D01*
X94688D01*
X93896Y78617D01*
X90800Y82282D01*
X90603Y93015D01*
X91200Y93181D01*
X91639Y92421D01*
X92421Y91639D01*
X93379Y91086D01*
X94447Y90800D01*
X95553D01*
X96621Y91086D01*
X97579Y91639D01*
X98361Y92421D01*
X98914Y93379D01*
X99200Y94447D01*
Y95553D01*
X98914Y96621D01*
X98361Y97579D01*
X97888Y98051D01*
X98137Y98651D01*
X101863D01*
X102111Y98051D01*
X101639Y97579D01*
X101086Y96621D01*
X100800Y95553D01*
Y94447D01*
X101086Y93379D01*
X101639Y92421D01*
X102421Y91639D01*
X103379Y91086D01*
X104447Y90800D01*
X105553D01*
X106621Y91086D01*
X107579Y91639D01*
X108361Y92421D01*
X108914Y93379D01*
X109200Y94447D01*
Y95553D01*
X108914Y96621D01*
X108361Y97579D01*
X107889Y98051D01*
X108137Y98651D01*
X111863D01*
X112111Y98051D01*
X111639Y97579D01*
X111086Y96621D01*
X110800Y95553D01*
Y94447D01*
X111086Y93379D01*
X111639Y92421D01*
X112421Y91639D01*
X113379Y91086D01*
X114447Y90800D01*
X115553D01*
X116621Y91086D01*
X117579Y91639D01*
X118361Y92421D01*
X118914Y93379D01*
X119200Y94447D01*
Y95553D01*
X118914Y96621D01*
X118361Y97579D01*
X117889Y98051D01*
X118137Y98651D01*
X121863D01*
X122111Y98051D01*
X121639Y97579D01*
X121086Y96621D01*
X120800Y95553D01*
Y94447D01*
X121086Y93379D01*
X121639Y92421D01*
X122421Y91639D01*
X123379Y91086D01*
X124447Y90800D01*
X125553D01*
X126621Y91086D01*
X127579Y91639D01*
X128361Y92421D01*
X128914Y93379D01*
X129200Y94447D01*
Y95553D01*
X128914Y96621D01*
X128361Y97579D01*
X127889Y98051D01*
X128137Y98651D01*
X131863D01*
X132111Y98051D01*
X131639Y97579D01*
X131086Y96621D01*
X130800Y95553D01*
Y94447D01*
X131086Y93379D01*
X131639Y92421D01*
X132421Y91639D01*
X133379Y91086D01*
X134447Y90800D01*
X135553D01*
X136621Y91086D01*
X137579Y91639D01*
X138361Y92421D01*
X138914Y93379D01*
X139200Y94447D01*
Y95553D01*
X138914Y96621D01*
X138361Y97579D01*
X137889Y98051D01*
X138137Y98651D01*
X141863D01*
X142111Y98051D01*
X141639Y97579D01*
X141086Y96621D01*
X140800Y95553D01*
Y94447D01*
X141086Y93379D01*
X141639Y92421D01*
X142421Y91639D01*
X143379Y91086D01*
X144447Y90800D01*
X145553D01*
X146621Y91086D01*
X147579Y91639D01*
X148361Y92421D01*
X148914Y93379D01*
X149200Y94447D01*
Y95553D01*
X148914Y96621D01*
X148361Y97579D01*
X147889Y98051D01*
X148137Y98651D01*
X151863D01*
X152111Y98051D01*
X151639Y97579D01*
X151086Y96621D01*
X150800Y95553D01*
Y94447D01*
X151086Y93379D01*
X151639Y92421D01*
X152421Y91639D01*
X153379Y91086D01*
X154447Y90800D01*
X155553D01*
X156621Y91086D01*
X157579Y91639D01*
X158361Y92421D01*
X158914Y93379D01*
X159200Y94447D01*
Y95553D01*
X158914Y96621D01*
X158361Y97579D01*
X157889Y98051D01*
X158137Y98651D01*
X161863D01*
X162111Y98051D01*
X161639Y97579D01*
X161086Y96621D01*
X160800Y95553D01*
Y94447D01*
X161086Y93379D01*
X161639Y92421D01*
X162421Y91639D01*
X163379Y91086D01*
X164447Y90800D01*
X165553D01*
X166621Y91086D01*
X167579Y91639D01*
X168361Y92421D01*
X168914Y93379D01*
X169200Y94447D01*
Y95553D01*
X168914Y96621D01*
X168361Y97579D01*
X167889Y98051D01*
X168137Y98651D01*
X171863D01*
X172111Y98051D01*
X171639Y97579D01*
X171086Y96621D01*
X170800Y95553D01*
Y94447D01*
X171086Y93379D01*
X171639Y92421D01*
X172421Y91639D01*
X173379Y91086D01*
X174447Y90800D01*
X175553D01*
X176621Y91086D01*
X177579Y91639D01*
X178361Y92421D01*
X178914Y93379D01*
X179200Y94447D01*
Y95553D01*
X178914Y96621D01*
X178361Y97579D01*
X177889Y98051D01*
X178137Y98651D01*
X181863D01*
X182111Y98051D01*
X181639Y97579D01*
X181086Y96621D01*
X180800Y95553D01*
Y94447D01*
X181086Y93379D01*
X181639Y92421D01*
X182421Y91639D01*
X183379Y91086D01*
X184447Y90800D01*
X185553D01*
X186621Y91086D01*
X187579Y91639D01*
X188361Y92421D01*
X188914Y93379D01*
X189200Y94447D01*
Y95553D01*
X188914Y96621D01*
X188361Y97579D01*
X187889Y98051D01*
X188137Y98651D01*
X191863D01*
X192111Y98051D01*
X191639Y97579D01*
X191086Y96621D01*
X190800Y95553D01*
Y94447D01*
X191086Y93379D01*
X191639Y92421D01*
X192421Y91639D01*
X193379Y91086D01*
X194447Y90800D01*
X195553D01*
X196621Y91086D01*
X197579Y91639D01*
X198361Y92421D01*
X198914Y93379D01*
X199200Y94447D01*
Y95553D01*
X198914Y96621D01*
X198361Y97579D01*
X197889Y98051D01*
X198137Y98651D01*
X201863D01*
X202111Y98051D01*
X201639Y97579D01*
X201086Y96621D01*
X200800Y95553D01*
Y94447D01*
X201086Y93379D01*
X201639Y92421D01*
X202421Y91639D01*
X203379Y91086D01*
X204447Y90800D01*
X205553D01*
X206621Y91086D01*
X207579Y91639D01*
X208361Y92421D01*
X208914Y93379D01*
X209200Y94447D01*
Y95553D01*
X208914Y96621D01*
X208361Y97579D01*
X207889Y98051D01*
X208137Y98651D01*
X211863D01*
X212111Y98051D01*
X211639Y97579D01*
X211086Y96621D01*
X210800Y95553D01*
Y94447D01*
X211086Y93379D01*
X211639Y92421D01*
X212421Y91639D01*
X213379Y91086D01*
X214447Y90800D01*
X215553D01*
X216621Y91086D01*
X217579Y91639D01*
X218361Y92421D01*
X218914Y93379D01*
X219200Y94447D01*
Y95553D01*
X218914Y96621D01*
X218361Y97579D01*
X217888Y98051D01*
X218137Y98651D01*
X221863D01*
X222112Y98051D01*
X221639Y97579D01*
X221086Y96621D01*
X220800Y95553D01*
Y94447D01*
X221086Y93379D01*
X221639Y92421D01*
X222421Y91639D01*
X223379Y91086D01*
X224447Y90800D01*
X225553D01*
X226621Y91086D01*
X227579Y91639D01*
X228361Y92421D01*
X228914Y93379D01*
X229200Y94447D01*
Y95553D01*
X228914Y96621D01*
X228361Y97579D01*
X227888Y98051D01*
X228137Y98651D01*
X231863D01*
X232112Y98051D01*
X231639Y97579D01*
X231086Y96621D01*
X230800Y95553D01*
Y94447D01*
X231086Y93379D01*
X231639Y92421D01*
X232421Y91639D01*
X233379Y91086D01*
X234447Y90800D01*
X235553D01*
X236621Y91086D01*
X237579Y91639D01*
X238361Y92421D01*
X238914Y93379D01*
X239200Y94447D01*
Y95553D01*
X238914Y96621D01*
X238361Y97579D01*
X237889Y98051D01*
X238137Y98651D01*
X241863D01*
X242111Y98051D01*
X241639Y97579D01*
X241086Y96621D01*
X240800Y95553D01*
Y94447D01*
X241086Y93379D01*
X241639Y92421D01*
X242421Y91639D01*
X243379Y91086D01*
X244447Y90800D01*
X244865D01*
X244996Y90656D01*
X245204Y90200D01*
X244933Y89546D01*
Y88671D01*
X245268Y87862D01*
X245887Y87243D01*
X246696Y86909D01*
X247571D01*
X248380Y87243D01*
X248998Y87862D01*
X249333Y88671D01*
Y89546D01*
X248998Y90355D01*
X248380Y90974D01*
X247915Y91166D01*
X247898Y91190D01*
X247802Y91862D01*
X248361Y92421D01*
X248914Y93379D01*
X249200Y94447D01*
Y95553D01*
X248914Y96621D01*
X248361Y97579D01*
X247888Y98051D01*
X248137Y98651D01*
X260800D01*
Y90800D01*
D02*
G37*
G36*
X69484Y22059D02*
X69484Y14200D01*
X47500D01*
Y21685D01*
X47925Y22108D01*
X69484Y22059D01*
D02*
G37*
G36*
X256228Y7964D02*
X256953Y7545D01*
X257545Y6953D01*
X257964Y6228D01*
X258180Y5419D01*
Y4581D01*
X257964Y3772D01*
X257545Y3047D01*
X257019Y2521D01*
X256917Y2368D01*
X256810Y2219D01*
X256806Y2203D01*
X256798Y2190D01*
X256762Y2010D01*
X256721Y1831D01*
X256723Y1815D01*
X256720Y1800D01*
X256464Y1361D01*
X256282Y1200D01*
X253718D01*
X253536Y1361D01*
X253280Y1800D01*
X253277Y1815D01*
X253279Y1831D01*
X253238Y2010D01*
X253202Y2190D01*
X253193Y2203D01*
X253190Y2219D01*
X253083Y2368D01*
X252981Y2521D01*
X252455Y3047D01*
X252036Y3772D01*
X251820Y4581D01*
Y5419D01*
X252036Y6228D01*
X252455Y6953D01*
X253047Y7545D01*
X253772Y7964D01*
X254581Y8180D01*
X255419D01*
X256228Y7964D01*
D02*
G37*
%LPC*%
G36*
X76000Y90146D02*
X75125D01*
X74316Y89811D01*
X73698Y89192D01*
X73363Y88384D01*
Y87508D01*
X73698Y86700D01*
X74316Y86081D01*
X75125Y85746D01*
X76000D01*
X76809Y86081D01*
X77428Y86700D01*
X77763Y87508D01*
Y88384D01*
X77428Y89192D01*
X76809Y89811D01*
X76000Y90146D01*
D02*
G37*
G36*
X85738Y86700D02*
X84862D01*
X84054Y86365D01*
X83435Y85746D01*
X83100Y84938D01*
Y84062D01*
X83435Y83254D01*
X84054Y82635D01*
X84862Y82300D01*
X85738D01*
X86546Y82635D01*
X87165Y83254D01*
X87500Y84062D01*
Y84938D01*
X87165Y85746D01*
X86546Y86365D01*
X85738Y86700D01*
D02*
G37*
G36*
X34560Y80783D02*
X33765D01*
X33030Y80478D01*
X32467Y79915D01*
X32330Y79583D01*
X32041Y79203D01*
X31605Y79283D01*
X31249Y79431D01*
X30453D01*
X29718Y79127D01*
X29155Y78564D01*
X28851Y77829D01*
Y77033D01*
X29155Y76298D01*
X29718Y75736D01*
X30453Y75431D01*
X31249D01*
X31984Y75736D01*
X32546Y76298D01*
X32684Y76630D01*
X32972Y77011D01*
X33408Y76930D01*
X33765Y76783D01*
X34560D01*
X35296Y77087D01*
X35858Y77650D01*
X36163Y78385D01*
Y79180D01*
X35858Y79915D01*
X35296Y80478D01*
X34560Y80783D01*
D02*
G37*
G36*
X45998Y81300D02*
X45202D01*
X44467Y80996D01*
X43905Y80433D01*
X43600Y79698D01*
Y78902D01*
X43905Y78167D01*
X44302Y77770D01*
X44267Y77596D01*
X43705Y77033D01*
X43400Y76298D01*
Y75502D01*
X43705Y74767D01*
X44267Y74204D01*
X45002Y73900D01*
X45798D01*
X46533Y74204D01*
X47096Y74767D01*
X47400Y75502D01*
Y76298D01*
X47096Y77033D01*
X46698Y77430D01*
X46733Y77605D01*
X47295Y78167D01*
X47600Y78902D01*
Y79698D01*
X47295Y80433D01*
X46733Y80996D01*
X45998Y81300D01*
D02*
G37*
G36*
X194115Y75067D02*
X193240D01*
X192431Y74732D01*
X191812Y74113D01*
X191477Y73304D01*
Y72429D01*
X191812Y71620D01*
X192431Y71002D01*
X193240Y70667D01*
X194115D01*
X194924Y71002D01*
X195543Y71620D01*
X195877Y72429D01*
Y73304D01*
X195543Y74113D01*
X194924Y74732D01*
X194115Y75067D01*
D02*
G37*
G36*
X62715Y71459D02*
X61839D01*
X61031Y71124D01*
X60412Y70505D01*
X60077Y69697D01*
Y68822D01*
X60412Y68013D01*
X61031Y67394D01*
X61839Y67059D01*
X62715D01*
X63523Y67394D01*
X64142Y68013D01*
X64477Y68822D01*
Y69697D01*
X64142Y70505D01*
X63523Y71124D01*
X62715Y71459D01*
D02*
G37*
G36*
X196905Y68932D02*
X196030D01*
X195221Y68597D01*
X194603Y67979D01*
X194268Y67170D01*
Y66295D01*
X194603Y65486D01*
X195221Y64867D01*
X196030Y64532D01*
X196905D01*
X197714Y64867D01*
X198333Y65486D01*
X198668Y66295D01*
Y67170D01*
X198333Y67979D01*
X197714Y68597D01*
X196905Y68932D01*
D02*
G37*
G36*
X184345Y66779D02*
X183470D01*
X182661Y66444D01*
X182042Y65825D01*
X181707Y65017D01*
Y64142D01*
X182042Y63333D01*
X182661Y62714D01*
X183470Y62379D01*
X184345D01*
X185154Y62714D01*
X185773Y63333D01*
X186107Y64142D01*
Y65017D01*
X185773Y65825D01*
X185154Y66444D01*
X184345Y66779D01*
D02*
G37*
G36*
X175785Y66244D02*
X174909D01*
X174101Y65909D01*
X173482Y65290D01*
X173147Y64481D01*
Y63606D01*
X173482Y62797D01*
X174101Y62179D01*
X174909Y61844D01*
X175785D01*
X176593Y62179D01*
X177212Y62797D01*
X177547Y63606D01*
Y64481D01*
X177212Y65290D01*
X176593Y65909D01*
X175785Y66244D01*
D02*
G37*
G36*
X150464Y65277D02*
X149589D01*
X148780Y64942D01*
X148161Y64323D01*
X147826Y63515D01*
Y62640D01*
X148161Y61831D01*
X148780Y61212D01*
X149589Y60877D01*
X150464D01*
X151273Y61212D01*
X151892Y61831D01*
X152226Y62640D01*
Y63515D01*
X151892Y64323D01*
X151273Y64942D01*
X150464Y65277D01*
D02*
G37*
G36*
X176196Y61111D02*
X175321D01*
X174512Y60776D01*
X173893Y60157D01*
X173559Y59349D01*
Y58474D01*
X173893Y57665D01*
X174512Y57046D01*
X175321Y56711D01*
X176196D01*
X177005Y57046D01*
X177624Y57665D01*
X177959Y58474D01*
Y59349D01*
X177624Y60157D01*
X177005Y60776D01*
X176196Y61111D01*
D02*
G37*
G36*
X171023Y59713D02*
X170148D01*
X169339Y59378D01*
X168720Y58759D01*
X168385Y57951D01*
Y57075D01*
X168720Y56267D01*
X169339Y55648D01*
X170148Y55313D01*
X171023D01*
X171832Y55648D01*
X172450Y56267D01*
X172785Y57075D01*
Y57951D01*
X172450Y58759D01*
X171832Y59378D01*
X171023Y59713D01*
D02*
G37*
G36*
X40500Y58000D02*
X34500D01*
Y52000D01*
X34500D01*
X34844Y51400D01*
X34704Y51158D01*
X34500Y50395D01*
Y49605D01*
X34704Y48842D01*
X35099Y48158D01*
X35349Y47908D01*
X35597Y47500D01*
X35349Y47092D01*
X35099Y46842D01*
X34704Y46158D01*
X34500Y45395D01*
Y44605D01*
X34704Y43842D01*
X35099Y43158D01*
X35658Y42599D01*
X36342Y42204D01*
X37105Y42000D01*
X37895D01*
X38658Y42204D01*
X39342Y42599D01*
X39901Y43158D01*
X40296Y43842D01*
X40500Y44605D01*
Y45395D01*
X40296Y46158D01*
X39901Y46842D01*
X39651Y47092D01*
X39403Y47500D01*
X39651Y47908D01*
X39901Y48158D01*
X40296Y48842D01*
X40500Y49605D01*
Y50395D01*
X40296Y51158D01*
X40156Y51400D01*
X40500Y52000D01*
X40500D01*
Y58000D01*
D02*
G37*
G36*
X201888Y53663D02*
X201093D01*
X200358Y53359D01*
X199795Y52796D01*
X199490Y52061D01*
Y51265D01*
X199795Y50530D01*
X200358Y49968D01*
X201093Y49663D01*
X201888D01*
X202623Y49968D01*
X203186Y50530D01*
X203490Y51265D01*
Y52061D01*
X203186Y52796D01*
X202623Y53359D01*
X201888Y53663D01*
D02*
G37*
G36*
X61335Y52224D02*
X60459D01*
X59651Y51889D01*
X59032Y51270D01*
X58697Y50462D01*
Y49586D01*
X59032Y48778D01*
X59651Y48159D01*
X60459Y47824D01*
X61335D01*
X62143Y48159D01*
X62762Y48778D01*
X63097Y49586D01*
Y50462D01*
X62762Y51270D01*
X62143Y51889D01*
X61335Y52224D01*
D02*
G37*
G36*
X153813Y50588D02*
X152937D01*
X152129Y50253D01*
X151510Y49634D01*
X151175Y48825D01*
Y47950D01*
X151510Y47142D01*
X152129Y46523D01*
X152937Y46188D01*
X153813D01*
X154621Y46523D01*
X155240Y47142D01*
X155575Y47950D01*
Y48825D01*
X155240Y49634D01*
X154621Y50253D01*
X153813Y50588D01*
D02*
G37*
G36*
X188398Y52500D02*
X187602D01*
X186867Y52196D01*
X186304Y51633D01*
X186000Y50898D01*
Y50102D01*
X186304Y49367D01*
X186867Y48805D01*
X186880Y48799D01*
X186902Y48159D01*
X186339Y47596D01*
X186035Y46861D01*
Y46066D01*
X186339Y45331D01*
X186902Y44768D01*
X187637Y44463D01*
X188433D01*
X189168Y44768D01*
X189730Y45331D01*
X190035Y46066D01*
Y46861D01*
X189730Y47596D01*
X189168Y48159D01*
X189155Y48164D01*
X189133Y48805D01*
X189696Y49367D01*
X190000Y50102D01*
Y50898D01*
X189696Y51633D01*
X189133Y52196D01*
X188398Y52500D01*
D02*
G37*
G36*
X201544Y46882D02*
X200749D01*
X200014Y46578D01*
X199451Y46015D01*
X199147Y45280D01*
Y44484D01*
X199451Y43749D01*
X200014Y43187D01*
X200749Y42882D01*
X201544D01*
X202280Y43187D01*
X202842Y43749D01*
X203147Y44484D01*
Y45280D01*
X202842Y46015D01*
X202280Y46578D01*
X201544Y46882D01*
D02*
G37*
G36*
X200806Y40992D02*
X199931D01*
X199122Y40657D01*
X198503Y40038D01*
X198168Y39229D01*
Y38354D01*
X198503Y37546D01*
X199122Y36927D01*
X199931Y36592D01*
X200806D01*
X201615Y36927D01*
X202234Y37546D01*
X202568Y38354D01*
Y39229D01*
X202234Y40038D01*
X201615Y40657D01*
X200806Y40992D01*
D02*
G37*
G36*
X189757Y41451D02*
X188882D01*
X188074Y41116D01*
X187455Y40498D01*
X187120Y39689D01*
Y38814D01*
X187057Y38720D01*
X186617D01*
X185809Y38385D01*
X185190Y37766D01*
X184855Y36957D01*
Y36082D01*
X185190Y35274D01*
X185809Y34655D01*
X186617Y34320D01*
X187493D01*
X188301Y34655D01*
X188920Y35274D01*
X189255Y36082D01*
Y36957D01*
X189318Y37051D01*
X189757D01*
X190566Y37386D01*
X191185Y38005D01*
X191819Y37969D01*
X192043Y37427D01*
X192662Y36808D01*
X193471Y36473D01*
X194346D01*
X195155Y36808D01*
X195774Y37427D01*
X196109Y38236D01*
Y39111D01*
X195774Y39919D01*
X195155Y40538D01*
X194346Y40873D01*
X193471D01*
X192662Y40538D01*
X192043Y39919D01*
X191409Y39956D01*
X191185Y40498D01*
X190566Y41116D01*
X189757Y41451D01*
D02*
G37*
G36*
X193971Y32585D02*
X193096D01*
X192288Y32250D01*
X191669Y31631D01*
X191334Y30823D01*
Y29947D01*
X191669Y29139D01*
X192288Y28520D01*
X193096Y28185D01*
X193971D01*
X194780Y28520D01*
X195399Y29139D01*
X195734Y29947D01*
Y30823D01*
X195399Y31631D01*
X194780Y32250D01*
X193971Y32585D01*
D02*
G37*
G36*
X199359Y32121D02*
X198484D01*
X197675Y31786D01*
X197056Y31168D01*
X196721Y30359D01*
Y29484D01*
X197056Y28675D01*
X197675Y28056D01*
X198484Y27721D01*
X199359D01*
X200167Y28056D01*
X200786Y28675D01*
X201121Y29484D01*
Y30359D01*
X200786Y31168D01*
X200167Y31786D01*
X199359Y32121D01*
D02*
G37*
G36*
X260938Y84775D02*
X260062D01*
X259254Y84440D01*
X258635Y83821D01*
X258300Y83012D01*
Y82137D01*
X258635Y81329D01*
X259254Y80710D01*
X260062Y80375D01*
X260938D01*
X261746Y80710D01*
X262365Y81329D01*
X262700Y82137D01*
Y83012D01*
X262365Y83821D01*
X261746Y84440D01*
X260938Y84775D01*
D02*
G37*
G36*
X126638Y81800D02*
X125762D01*
X124954Y81465D01*
X124335Y80846D01*
X124000Y80038D01*
Y79162D01*
X124335Y78354D01*
X124954Y77735D01*
X125762Y77400D01*
X126638D01*
X127446Y77735D01*
X128065Y78354D01*
X128400Y79162D01*
Y80038D01*
X128065Y80846D01*
X127446Y81465D01*
X126638Y81800D01*
D02*
G37*
G36*
X168363Y81716D02*
X167488D01*
X166679Y81381D01*
X166060Y80762D01*
X165726Y79953D01*
Y79078D01*
X166060Y78269D01*
X166679Y77650D01*
X167488Y77315D01*
X168363D01*
X169172Y77650D01*
X169791Y78269D01*
X170126Y79078D01*
Y79953D01*
X169791Y80762D01*
X169172Y81381D01*
X168363Y81716D01*
D02*
G37*
G36*
X162138Y81700D02*
X161262D01*
X160454Y81365D01*
X159835Y80746D01*
X159500Y79938D01*
Y79062D01*
X159835Y78254D01*
X160454Y77635D01*
X161262Y77300D01*
X162138D01*
X162946Y77635D01*
X163565Y78254D01*
X163900Y79062D01*
Y79938D01*
X163565Y80746D01*
X162946Y81365D01*
X162138Y81700D01*
D02*
G37*
G36*
X262966Y75498D02*
X262091D01*
X261283Y75163D01*
X260903Y74783D01*
X260823Y74862D01*
X260015Y75197D01*
X259140D01*
X258331Y74862D01*
X257712Y74243D01*
X257377Y73435D01*
Y72559D01*
X257712Y71751D01*
X258331Y71132D01*
X259140Y70797D01*
X259609D01*
X260064Y70613D01*
X260163Y70243D01*
Y69698D01*
X260498Y68890D01*
X261014Y68374D01*
X260574Y67934D01*
X260239Y67125D01*
Y66250D01*
X260574Y65441D01*
X260991Y65023D01*
X260664Y64696D01*
X260329Y63887D01*
Y63012D01*
X260664Y62204D01*
X261157Y61710D01*
X260679Y61232D01*
X260344Y60424D01*
Y59548D01*
X260679Y58740D01*
X261059Y58360D01*
X260604Y57904D01*
X260269Y57096D01*
Y56221D01*
X260604Y55412D01*
X261052Y54964D01*
X260664Y54576D01*
X260329Y53768D01*
Y52892D01*
X260664Y52084D01*
X261130Y51617D01*
X260653Y51141D01*
X260318Y50332D01*
Y49457D01*
X260653Y48648D01*
X261052Y48250D01*
X260725Y47923D01*
X260390Y47115D01*
Y46239D01*
X260725Y45431D01*
X261292Y44864D01*
X260952Y44525D01*
X260617Y43717D01*
Y42842D01*
X260952Y42033D01*
X261447Y41539D01*
X261072Y41164D01*
X260737Y40356D01*
Y39480D01*
X261072Y38672D01*
X261516Y38227D01*
X261235Y37946D01*
X260900Y37138D01*
Y36262D01*
X261235Y35454D01*
X261672Y35017D01*
X261228Y34573D01*
X260893Y33764D01*
Y32889D01*
X261228Y32080D01*
X261723Y31585D01*
X261219Y31080D01*
X260884Y30271D01*
Y29396D01*
X261219Y28587D01*
X261613Y28193D01*
X261315Y27895D01*
X260981Y27087D01*
Y26212D01*
X261315Y25403D01*
X261934Y24784D01*
X262743Y24449D01*
X263618D01*
X264427Y24784D01*
X265046Y25403D01*
X265381Y26212D01*
Y27087D01*
X265046Y27895D01*
X264651Y28290D01*
X264949Y28587D01*
X265284Y29396D01*
Y30271D01*
X264949Y31080D01*
X264453Y31576D01*
X264958Y32080D01*
X265293Y32889D01*
Y33764D01*
X264958Y34573D01*
X264521Y35010D01*
X264965Y35454D01*
X265300Y36262D01*
Y37138D01*
X264965Y37946D01*
X264521Y38390D01*
X264802Y38672D01*
X265137Y39480D01*
Y40356D01*
X264802Y41164D01*
X264308Y41658D01*
X264683Y42033D01*
X265018Y42842D01*
Y43717D01*
X264683Y44525D01*
X264116Y45092D01*
X264455Y45431D01*
X264790Y46239D01*
Y47115D01*
X264455Y47923D01*
X264057Y48322D01*
X264384Y48648D01*
X264719Y49457D01*
Y50332D01*
X264384Y51141D01*
X263917Y51607D01*
X264394Y52084D01*
X264729Y52892D01*
Y53768D01*
X264394Y54576D01*
X263946Y55024D01*
X264334Y55412D01*
X264669Y56221D01*
Y57096D01*
X264334Y57904D01*
X263953Y58284D01*
X264409Y58740D01*
X264744Y59548D01*
Y60424D01*
X264409Y61232D01*
X263916Y61725D01*
X264394Y62204D01*
X264729Y63012D01*
Y63887D01*
X264394Y64696D01*
X263976Y65114D01*
X264304Y65441D01*
X264639Y66250D01*
Y67125D01*
X264304Y67934D01*
X263788Y68449D01*
X264228Y68890D01*
X264563Y69698D01*
Y70574D01*
X264228Y71382D01*
X263976Y71634D01*
X264394Y72052D01*
X264729Y72861D01*
Y73736D01*
X264394Y74544D01*
X263775Y75163D01*
X262966Y75498D01*
D02*
G37*
%LPD*%
G36*
X263197Y74299D02*
X263530Y73967D01*
X263709Y73533D01*
Y73063D01*
X263530Y72630D01*
X263255Y72355D01*
X263034Y72024D01*
X262957Y71634D01*
X263034Y71244D01*
X263255Y70913D01*
X263364Y70805D01*
X263544Y70371D01*
Y69901D01*
X263364Y69467D01*
X263067Y69170D01*
X262846Y68840D01*
X262768Y68449D01*
X262846Y68059D01*
X263067Y67728D01*
X263439Y67356D01*
X263619Y66922D01*
Y66453D01*
X263439Y66019D01*
X263255Y65835D01*
X263034Y65504D01*
X262957Y65114D01*
X263034Y64723D01*
X263255Y64393D01*
X263530Y64118D01*
X263709Y63684D01*
Y63215D01*
X263530Y62781D01*
X263195Y62446D01*
X262974Y62116D01*
X262896Y61725D01*
X262974Y61335D01*
X263195Y61004D01*
X263545Y60655D01*
X263724Y60221D01*
Y59751D01*
X263545Y59317D01*
X263233Y59005D01*
X263012Y58675D01*
X262934Y58284D01*
X263012Y57894D01*
X263233Y57564D01*
X263469Y57327D01*
X263649Y56893D01*
Y56423D01*
X263469Y55989D01*
X263225Y55745D01*
X263004Y55414D01*
X262926Y55024D01*
X263004Y54634D01*
X263225Y54303D01*
X263530Y53999D01*
X263709Y53565D01*
Y53095D01*
X263530Y52661D01*
X263196Y52328D01*
X262975Y51997D01*
X262898Y51607D01*
X262975Y51217D01*
X263196Y50886D01*
X263519Y50563D01*
X263699Y50129D01*
Y49660D01*
X263519Y49226D01*
X263336Y49043D01*
X263115Y48712D01*
X263037Y48322D01*
X263115Y47932D01*
X263336Y47601D01*
X263591Y47346D01*
X263771Y46912D01*
Y46442D01*
X263591Y46008D01*
X263395Y45813D01*
X263174Y45482D01*
X263097Y45092D01*
X263174Y44701D01*
X263395Y44371D01*
X263818Y43948D01*
X263998Y43514D01*
Y43044D01*
X263818Y42610D01*
X263587Y42379D01*
X263366Y42048D01*
X263288Y41658D01*
X263366Y41268D01*
X263587Y40937D01*
X263938Y40587D01*
X264118Y40153D01*
Y39683D01*
X263938Y39249D01*
X263800Y39111D01*
X263579Y38781D01*
X263501Y38390D01*
X263579Y38000D01*
X263800Y37669D01*
X264101Y37369D01*
X264280Y36935D01*
Y36465D01*
X264101Y36031D01*
X263800Y35731D01*
X263579Y35400D01*
X263501Y35010D01*
X263579Y34620D01*
X263800Y34289D01*
X264093Y33995D01*
X264273Y33561D01*
Y33092D01*
X264093Y32658D01*
X263732Y32297D01*
X263511Y31966D01*
X263433Y31576D01*
X263511Y31185D01*
X263732Y30855D01*
X264085Y30502D01*
X264264Y30068D01*
Y29599D01*
X264085Y29165D01*
X263930Y29011D01*
X263709Y28680D01*
X263632Y28290D01*
X263709Y27900D01*
X263930Y27569D01*
X264181Y27318D01*
X264361Y26884D01*
Y26414D01*
X264181Y25980D01*
X263849Y25648D01*
X263415Y25469D01*
X262946D01*
X262512Y25648D01*
X262180Y25980D01*
X262000Y26414D01*
Y26884D01*
X262180Y27318D01*
X262334Y27472D01*
X262555Y27803D01*
X262633Y28193D01*
X262555Y28583D01*
X262334Y28914D01*
X262083Y29165D01*
X261903Y29599D01*
Y30068D01*
X262083Y30502D01*
X262444Y30864D01*
X262665Y31194D01*
X262743Y31585D01*
X262665Y31975D01*
X262444Y32306D01*
X262092Y32658D01*
X261912Y33092D01*
Y33561D01*
X262092Y33995D01*
X262393Y34296D01*
X262614Y34627D01*
X262691Y35017D01*
X262614Y35407D01*
X262393Y35738D01*
X262099Y36031D01*
X261920Y36465D01*
Y36935D01*
X262099Y37369D01*
X262237Y37506D01*
X262458Y37837D01*
X262536Y38227D01*
X262458Y38618D01*
X262237Y38948D01*
X261936Y39249D01*
X261757Y39683D01*
Y40153D01*
X261936Y40587D01*
X262168Y40818D01*
X262389Y41148D01*
X262466Y41539D01*
X262389Y41929D01*
X262168Y42260D01*
X261817Y42610D01*
X261637Y43044D01*
Y43514D01*
X261817Y43948D01*
X262012Y44143D01*
X262233Y44474D01*
X262311Y44864D01*
X262233Y45254D01*
X262012Y45585D01*
X261590Y46008D01*
X261410Y46442D01*
Y46912D01*
X261590Y47346D01*
X261773Y47529D01*
X261994Y47860D01*
X262072Y48250D01*
X261994Y48640D01*
X261773Y48971D01*
X261518Y49226D01*
X261338Y49660D01*
Y50129D01*
X261518Y50563D01*
X261851Y50897D01*
X262072Y51227D01*
X262150Y51617D01*
X262072Y52008D01*
X261851Y52338D01*
X261528Y52661D01*
X261349Y53095D01*
Y53565D01*
X261528Y53999D01*
X261772Y54243D01*
X261994Y54574D01*
X262071Y54964D01*
X261994Y55354D01*
X261772Y55685D01*
X261468Y55989D01*
X261288Y56423D01*
Y56893D01*
X261468Y57327D01*
X261780Y57639D01*
X262001Y57969D01*
X262079Y58360D01*
X262001Y58750D01*
X261780Y59081D01*
X261543Y59317D01*
X261364Y59751D01*
Y60221D01*
X261543Y60655D01*
X261878Y60989D01*
X262099Y61320D01*
X262176Y61710D01*
X262099Y62100D01*
X261878Y62431D01*
X261528Y62781D01*
X261349Y63215D01*
Y63684D01*
X261528Y64118D01*
X261712Y64302D01*
X261933Y64633D01*
X262011Y65023D01*
X261933Y65413D01*
X261712Y65744D01*
X261438Y66019D01*
X261258Y66453D01*
Y66922D01*
X261438Y67356D01*
X261735Y67653D01*
X261956Y67984D01*
X262033Y68374D01*
X261956Y68764D01*
X261735Y69095D01*
X261363Y69467D01*
X261183Y69901D01*
Y70243D01*
X261157Y70373D01*
X261148Y70506D01*
X261049Y70877D01*
X261017Y70942D01*
X261002Y71012D01*
X260930Y71118D01*
X260873Y71234D01*
X260819Y71281D01*
X260778Y71341D01*
X260671Y71412D01*
X260574Y71496D01*
X260506Y71520D01*
X260446Y71559D01*
X259990Y71743D01*
X259799Y71779D01*
X259609Y71817D01*
X259343D01*
X258909Y71996D01*
X258577Y72329D01*
X258402Y72749D01*
Y73246D01*
X258577Y73666D01*
X258909Y73998D01*
X259343Y74177D01*
X259812D01*
X260330Y73963D01*
X260512Y73841D01*
X260903Y73764D01*
X261293Y73841D01*
X261624Y74062D01*
X261860Y74299D01*
X262294Y74479D01*
X262764D01*
X263197Y74299D01*
D02*
G37*
D51*
X6752Y39016D02*
D03*
Y5000D02*
D03*
Y95000D02*
D03*
Y60984D02*
D03*
D52*
X22500Y39016D02*
D03*
Y5000D02*
D03*
Y95000D02*
D03*
Y60984D02*
D03*
D59*
X255503Y84267D02*
X256363Y83406D01*
Y48378D02*
Y83406D01*
Y48378D02*
X259494Y45248D01*
Y21606D02*
Y45248D01*
Y21606D02*
X265000Y16101D01*
Y5000D02*
Y16101D01*
D61*
X252901Y89406D02*
X253039Y89268D01*
X255462D01*
X251515Y89406D02*
X252901D01*
X251343Y89578D02*
X251515Y89406D01*
D66*
X35000Y95000D02*
D03*
X45000D02*
D03*
X55000D02*
D03*
X65000D02*
D03*
X75000D02*
D03*
X85000D02*
D03*
X95000D02*
D03*
X105000D02*
D03*
X115000D02*
D03*
X125000D02*
D03*
X135000D02*
D03*
X145000D02*
D03*
X155000D02*
D03*
X165000D02*
D03*
X175000D02*
D03*
X185000D02*
D03*
X195000D02*
D03*
X205000D02*
D03*
X215000D02*
D03*
X225000D02*
D03*
X235000D02*
D03*
X245000D02*
D03*
X255000D02*
D03*
X35000Y5000D02*
D03*
X45000D02*
D03*
X55000D02*
D03*
X65000D02*
D03*
X75000D02*
D03*
X85000D02*
D03*
X95000D02*
D03*
X105000D02*
D03*
X115000D02*
D03*
X125000D02*
D03*
X135000D02*
D03*
X145000D02*
D03*
X155000D02*
D03*
X165000D02*
D03*
X175000D02*
D03*
X185000D02*
D03*
X195000D02*
D03*
X205000D02*
D03*
X215000D02*
D03*
X225000D02*
D03*
X235000D02*
D03*
X245000D02*
D03*
X255000D02*
D03*
D67*
X265000Y95000D02*
D03*
Y5000D02*
D03*
D68*
X37500Y45000D02*
D03*
Y50000D02*
D03*
X142500D02*
D03*
D69*
X37500Y55000D02*
D03*
D70*
X137500Y50000D02*
D03*
D71*
X62277Y69259D02*
D03*
X73815Y65095D02*
D03*
X75563Y87946D02*
D03*
X94538Y59800D02*
D03*
X262529Y53330D02*
D03*
X262469Y56658D02*
D03*
X262544Y59986D02*
D03*
X262529Y63450D02*
D03*
X262439Y66687D02*
D03*
X262529Y73298D02*
D03*
X262363Y70136D02*
D03*
X259577Y72997D02*
D03*
X216109Y29207D02*
D03*
X198921Y29921D02*
D03*
X155700Y39100D02*
D03*
X170585Y57513D02*
D03*
X175759Y58911D02*
D03*
X175347Y64044D02*
D03*
X180848Y62651D02*
D03*
X183907Y64579D02*
D03*
X196468Y66732D02*
D03*
X143735Y68824D02*
D03*
X150026Y63077D02*
D03*
X95335Y82644D02*
D03*
X239414Y61015D02*
D03*
X255462Y89268D02*
D03*
X247133Y89109D02*
D03*
X251343Y89578D02*
D03*
X80596Y60533D02*
D03*
X80430Y57448D02*
D03*
X187055Y36520D02*
D03*
X189320Y39251D02*
D03*
X193534Y30385D02*
D03*
X193909Y38673D02*
D03*
X153375Y48388D02*
D03*
X262937Y39918D02*
D03*
X263100Y36700D02*
D03*
X263084Y29834D02*
D03*
X263181Y26649D02*
D03*
X262519Y49895D02*
D03*
X262590Y46677D02*
D03*
X262818Y43279D02*
D03*
X263093Y33327D02*
D03*
X126200Y79600D02*
D03*
X95126Y76745D02*
D03*
X91505Y69073D02*
D03*
X44211Y22556D02*
D03*
Y19356D02*
D03*
X74533Y26229D02*
D03*
X77733Y26218D02*
D03*
X47937Y60651D02*
D03*
X42544Y73434D02*
D03*
X44815Y71269D02*
D03*
X60897Y50024D02*
D03*
X80304Y50251D02*
D03*
X65002Y55305D02*
D03*
X34163Y78782D02*
D03*
X34763Y86937D02*
D03*
X42800Y81900D02*
D03*
X30462Y91321D02*
D03*
X28947Y36692D02*
D03*
X36000Y17200D02*
D03*
X123238Y40255D02*
D03*
X94981Y56027D02*
D03*
X30954Y58413D02*
D03*
X27910Y62916D02*
D03*
X35507Y74456D02*
D03*
X30851Y77431D02*
D03*
X45400Y75900D02*
D03*
X45600Y79300D02*
D03*
X201147Y44882D02*
D03*
X201490Y51663D02*
D03*
X184800Y51900D02*
D03*
X184700Y45800D02*
D03*
X188035Y46463D02*
D03*
X188000Y50500D02*
D03*
X35397Y25223D02*
D03*
X204900Y45000D02*
D03*
Y51700D02*
D03*
X79300Y23400D02*
D03*
X72900D02*
D03*
X49500Y35000D02*
D03*
X44796Y14437D02*
D03*
X44589Y26822D02*
D03*
X30500Y42000D02*
D03*
X28960Y9808D02*
D03*
X51183Y29439D02*
D03*
X54382Y29276D02*
D03*
X49565Y16359D02*
D03*
X53673Y16344D02*
D03*
X58643Y16426D02*
D03*
X58734Y28979D02*
D03*
X228580Y50086D02*
D03*
X228798Y56541D02*
D03*
X239340Y39631D02*
D03*
X228677Y43777D02*
D03*
X250516Y49795D02*
D03*
X250492Y55789D02*
D03*
X246154Y39677D02*
D03*
X236245Y46755D02*
D03*
X242770Y46709D02*
D03*
X242752Y53176D02*
D03*
X236306Y53208D02*
D03*
X101584Y38398D02*
D03*
X106682Y38462D02*
D03*
X111907Y38525D02*
D03*
X117428Y38652D02*
D03*
X96147Y38440D02*
D03*
X101584Y43475D02*
D03*
X106555Y43411D02*
D03*
X111864Y43538D02*
D03*
X117449D02*
D03*
X96168Y43390D02*
D03*
X95909Y33543D02*
D03*
X117500Y33500D02*
D03*
X112000D02*
D03*
X107000D02*
D03*
X101500D02*
D03*
X256294Y27570D02*
D03*
X161800Y19300D02*
D03*
X161700Y79500D02*
D03*
X252950Y72675D02*
D03*
X69304Y74962D02*
D03*
X73004D02*
D03*
X73104Y78962D02*
D03*
X69104D02*
D03*
X70018Y87977D02*
D03*
X45961Y85758D02*
D03*
X85300Y84500D02*
D03*
X169000Y64100D02*
D03*
X188900Y70100D02*
D03*
X193677Y72867D02*
D03*
X167926Y79515D02*
D03*
X200368Y38792D02*
D03*
X168414Y21441D02*
D03*
X204135Y22545D02*
D03*
X226112Y27059D02*
D03*
X219421Y27036D02*
D03*
X222777Y29319D02*
D03*
X229334Y29565D02*
D03*
X246232Y27171D02*
D03*
X232745Y27237D02*
D03*
X181038Y75216D02*
D03*
X267063Y18563D02*
D03*
X260500Y82575D02*
D03*
X206000Y75500D02*
D03*
X222762Y72834D02*
D03*
X226174Y70348D02*
D03*
X236259Y72480D02*
D03*
X246204Y70101D02*
D03*
X252894Y27463D02*
D03*
X239561Y27165D02*
D03*
X216217Y72699D02*
D03*
X249549Y29677D02*
D03*
X242909Y29705D02*
D03*
X236241Y29733D02*
D03*
X219420Y70252D02*
D03*
X229500Y72500D02*
D03*
X232813Y70165D02*
D03*
X239504Y70004D02*
D03*
X243000Y72500D02*
D03*
X249500D02*
D03*
D72*
X135965Y66704D02*
X142532Y60137D01*
Y50032D02*
Y60137D01*
X142500Y50000D02*
X142532Y50032D01*
X185762Y75216D02*
X193709Y83163D01*
X254399D01*
X135965Y75216D02*
X185762D01*
X254399Y83163D02*
X255543Y84307D01*
X255481Y84293D02*
Y89249D01*
X114161Y75216D02*
X135965D01*
Y66704D02*
Y75216D01*
X86848Y74698D02*
X94794Y82644D01*
X106733D01*
X86848Y56795D02*
Y74698D01*
X106733Y82644D02*
X114161Y75216D01*
X255462Y89268D02*
X255543Y89350D01*
Y91318D01*
X255459Y91402D02*
X255543Y91318D01*
X255459Y91402D02*
Y94541D01*
X255000Y95000D02*
X255459Y94541D01*
X80304Y50251D02*
X86848Y56795D01*
X137471Y43736D02*
Y49971D01*
X62164Y16426D02*
X65128Y19390D01*
Y26435D01*
X58643Y16426D02*
X62164D01*
X58560Y16344D02*
X58643Y16426D01*
X53673Y16344D02*
X58560D01*
X49580D02*
X53673D01*
X49565Y16359D02*
X49580Y16344D01*
D73*
X120383Y26649D02*
X137471Y43736D01*
X90377Y26649D02*
X120383D01*
X65128Y26435D02*
X70910Y32217D01*
X84809D01*
X90377Y26649D01*
M02*
