G04*
G04 #@! TF.GenerationSoftware,Altium Limited,Altium Designer,25.2.1 (25)*
G04*
G04 Layer_Physical_Order=1*
G04 Layer_Color=255*
%FSLAX25Y25*%
%MOIN*%
G70*
G04*
G04 #@! TF.SameCoordinates,CFDFC737-2A4F-4172-B32B-428E1D980CDD*
G04*
G04*
G04 #@! TF.FilePolarity,Positive*
G04*
G01*
G75*
%ADD11C,0.00600*%
%ADD16R,0.02126X0.02362*%
%ADD17R,0.05343X0.02253*%
G04:AMPARAMS|DCode=18|XSize=53.43mil|YSize=22.53mil|CornerRadius=11.26mil|HoleSize=0mil|Usage=FLASHONLY|Rotation=0.000|XOffset=0mil|YOffset=0mil|HoleType=Round|Shape=RoundedRectangle|*
%AMROUNDEDRECTD18*
21,1,0.05343,0.00000,0,0,0.0*
21,1,0.03091,0.02253,0,0,0.0*
1,1,0.02253,0.01545,0.00000*
1,1,0.02253,-0.01545,0.00000*
1,1,0.02253,-0.01545,0.00000*
1,1,0.02253,0.01545,0.00000*
%
%ADD18ROUNDEDRECTD18*%
G04:AMPARAMS|DCode=19|XSize=23.62mil|YSize=21.26mil|CornerRadius=5.63mil|HoleSize=0mil|Usage=FLASHONLY|Rotation=90.000|XOffset=0mil|YOffset=0mil|HoleType=Round|Shape=RoundedRectangle|*
%AMROUNDEDRECTD19*
21,1,0.02362,0.00999,0,0,90.0*
21,1,0.01235,0.02126,0,0,90.0*
1,1,0.01127,0.00500,0.00618*
1,1,0.01127,0.00500,-0.00618*
1,1,0.01127,-0.00500,-0.00618*
1,1,0.01127,-0.00500,0.00618*
%
%ADD19ROUNDEDRECTD19*%
%ADD20R,0.02362X0.01378*%
G04:AMPARAMS|DCode=21|XSize=23.62mil|YSize=21.26mil|CornerRadius=5.63mil|HoleSize=0mil|Usage=FLASHONLY|Rotation=180.000|XOffset=0mil|YOffset=0mil|HoleType=Round|Shape=RoundedRectangle|*
%AMROUNDEDRECTD21*
21,1,0.02362,0.00999,0,0,180.0*
21,1,0.01235,0.02126,0,0,180.0*
1,1,0.01127,-0.00618,0.00500*
1,1,0.01127,0.00618,0.00500*
1,1,0.01127,0.00618,-0.00500*
1,1,0.01127,-0.00618,-0.00500*
%
%ADD21ROUNDEDRECTD21*%
%ADD22R,0.02362X0.02126*%
%ADD23R,0.02756X0.02362*%
%ADD24R,0.04528X0.02362*%
%ADD25R,0.04528X0.01181*%
%ADD26R,0.03150X0.03150*%
%ADD27R,0.01575X0.03150*%
%ADD28R,0.03150X0.01575*%
%ADD29R,0.04724X0.04724*%
G04:AMPARAMS|DCode=30|XSize=9.55mil|YSize=33.06mil|CornerRadius=4.77mil|HoleSize=0mil|Usage=FLASHONLY|Rotation=270.000|XOffset=0mil|YOffset=0mil|HoleType=Round|Shape=RoundedRectangle|*
%AMROUNDEDRECTD30*
21,1,0.00955,0.02351,0,0,270.0*
21,1,0.00000,0.03306,0,0,270.0*
1,1,0.00955,-0.01176,0.00000*
1,1,0.00955,-0.01176,0.00000*
1,1,0.00955,0.01176,0.00000*
1,1,0.00955,0.01176,0.00000*
%
%ADD30ROUNDEDRECTD30*%
G04:AMPARAMS|DCode=31|XSize=33.06mil|YSize=9.55mil|CornerRadius=4.77mil|HoleSize=0mil|Usage=FLASHONLY|Rotation=270.000|XOffset=0mil|YOffset=0mil|HoleType=Round|Shape=RoundedRectangle|*
%AMROUNDEDRECTD31*
21,1,0.03306,0.00000,0,0,270.0*
21,1,0.02351,0.00955,0,0,270.0*
1,1,0.00955,0.00000,-0.01176*
1,1,0.00955,0.00000,0.01176*
1,1,0.00955,0.00000,0.01176*
1,1,0.00955,0.00000,-0.01176*
%
%ADD31ROUNDEDRECTD31*%
%ADD32R,0.00955X0.03306*%
%ADD33R,0.06102X0.05118*%
G04:AMPARAMS|DCode=34|XSize=35.43mil|YSize=68.9mil|CornerRadius=1.95mil|HoleSize=0mil|Usage=FLASHONLY|Rotation=90.000|XOffset=0mil|YOffset=0mil|HoleType=Round|Shape=RoundedRectangle|*
%AMROUNDEDRECTD34*
21,1,0.03543,0.06500,0,0,90.0*
21,1,0.03154,0.06890,0,0,90.0*
1,1,0.00390,0.03250,0.01577*
1,1,0.00390,0.03250,-0.01577*
1,1,0.00390,-0.03250,-0.01577*
1,1,0.00390,-0.03250,0.01577*
%
%ADD34ROUNDEDRECTD34*%
G04:AMPARAMS|DCode=35|XSize=125.98mil|YSize=68.9mil|CornerRadius=2.07mil|HoleSize=0mil|Usage=FLASHONLY|Rotation=90.000|XOffset=0mil|YOffset=0mil|HoleType=Round|Shape=RoundedRectangle|*
%AMROUNDEDRECTD35*
21,1,0.12598,0.06476,0,0,90.0*
21,1,0.12185,0.06890,0,0,90.0*
1,1,0.00413,0.03238,0.06093*
1,1,0.00413,0.03238,-0.06093*
1,1,0.00413,-0.03238,-0.06093*
1,1,0.00413,-0.03238,0.06093*
%
%ADD35ROUNDEDRECTD35*%
%ADD36R,0.01378X0.02362*%
%ADD47R,0.08071X0.08071*%
G04:AMPARAMS|DCode=51|XSize=39.37mil|YSize=86.61mil|CornerRadius=19.68mil|HoleSize=0mil|Usage=FLASHONLY|Rotation=270.000|XOffset=0mil|YOffset=0mil|HoleType=Round|Shape=RoundedRectangle|*
%AMROUNDEDRECTD51*
21,1,0.03937,0.04724,0,0,270.0*
21,1,0.00000,0.08661,0,0,270.0*
1,1,0.03937,-0.02362,0.00000*
1,1,0.03937,-0.02362,0.00000*
1,1,0.03937,0.02362,0.00000*
1,1,0.03937,0.02362,0.00000*
%
%ADD51ROUNDEDRECTD51*%
G04:AMPARAMS|DCode=52|XSize=39.37mil|YSize=70.87mil|CornerRadius=19.68mil|HoleSize=0mil|Usage=FLASHONLY|Rotation=270.000|XOffset=0mil|YOffset=0mil|HoleType=Round|Shape=RoundedRectangle|*
%AMROUNDEDRECTD52*
21,1,0.03937,0.03150,0,0,270.0*
21,1,0.00000,0.07087,0,0,270.0*
1,1,0.03937,-0.01575,0.00000*
1,1,0.03937,-0.01575,0.00000*
1,1,0.03937,0.01575,0.00000*
1,1,0.03937,0.01575,0.00000*
%
%ADD52ROUNDEDRECTD52*%
%ADD58C,0.01000*%
%ADD59C,0.02000*%
%ADD60R,0.01575X0.01575*%
%ADD61C,0.01500*%
%ADD62C,0.00623*%
%ADD63C,0.01200*%
%ADD64C,0.00603*%
%ADD65C,0.01001*%
%ADD66C,0.06400*%
%ADD67R,0.06400X0.06400*%
%ADD68C,0.04000*%
%ADD69R,0.04000X0.04000*%
%ADD70R,0.04000X0.04000*%
%ADD71C,0.02400*%
G36*
X256600Y90700D02*
X257000Y90000D01*
Y88900D01*
X255900Y87300D01*
Y86621D01*
X255899Y86618D01*
Y85382D01*
X255900Y85379D01*
Y84400D01*
X249460D01*
X248785Y85526D01*
Y85654D01*
X249307Y88608D01*
X249333Y88671D01*
Y88755D01*
X249531Y89868D01*
X250417Y90900D01*
X256500D01*
X256600Y90700D01*
D02*
G37*
G36*
X90122Y85683D02*
X89911Y78164D01*
X87524D01*
X86887Y78741D01*
X85527Y80083D01*
X85029Y80616D01*
X83719Y80607D01*
X82627Y81309D01*
X82755Y85850D01*
X84645Y86750D01*
X89055D01*
X90122Y85683D01*
D02*
G37*
G36*
X56717Y71689D02*
Y71200D01*
X57280Y70700D01*
X64100D01*
X64700Y69771D01*
Y68910D01*
X63519Y67719D01*
X62128Y66602D01*
X56717D01*
X56600Y59100D01*
X61137D01*
Y56495D01*
X55200D01*
X53600Y57800D01*
Y66300D01*
X50900Y68827D01*
Y68879D01*
X50901Y68882D01*
Y70118D01*
X50900Y70121D01*
Y70500D01*
X52300Y71200D01*
X55200Y73881D01*
X55322Y73995D01*
X56717D01*
Y71689D01*
D02*
G37*
G36*
X40714Y67725D02*
X41401Y67010D01*
X41384Y64322D01*
X41401Y63759D01*
X41344Y54020D01*
X39720Y53026D01*
X39650Y53020D01*
X36100D01*
X35960Y52992D01*
X35535Y52991D01*
X33121Y53577D01*
Y57894D01*
X33154Y57975D01*
Y58851D01*
X33121Y58931D01*
Y59074D01*
X32909Y64823D01*
Y65181D01*
X32896D01*
X32819Y67274D01*
X33330Y67797D01*
X40714Y67725D01*
D02*
G37*
G36*
X44500Y52000D02*
X56000Y40500D01*
X69860Y40450D01*
X70282Y40024D01*
X70275Y38678D01*
X70284Y37005D01*
X68970Y36097D01*
X62017Y36134D01*
Y37142D01*
X59871D01*
X59513Y36526D01*
X53940Y36497D01*
X41743Y48000D01*
X37048D01*
X36587Y48046D01*
X36351Y48180D01*
X35276Y48789D01*
Y51210D01*
X35855Y51789D01*
X36100Y52000D01*
X40500D01*
Y52000D01*
X40507Y52007D01*
X44500Y52000D01*
D02*
G37*
G36*
X252000Y62000D02*
Y38337D01*
X228663D01*
X227129Y39871D01*
Y62500D01*
X252000D01*
Y62000D01*
D02*
G37*
G36*
X120000Y16881D02*
X119715Y16596D01*
X88905D01*
X81500Y24000D01*
Y28488D01*
X69292Y28348D01*
Y25064D01*
X63500Y23500D01*
X59797Y22500D01*
X53560D01*
X53019Y22502D01*
X53015Y22501D01*
X53010Y22502D01*
X52609Y22500D01*
X48000D01*
Y31000D01*
X52457Y35457D01*
X60033Y35471D01*
X61514Y34000D01*
X63865Y34020D01*
X73202Y33990D01*
X87213Y46000D01*
X120000D01*
Y16881D01*
D02*
G37*
G36*
X36946Y46986D02*
X36997Y46990D01*
X37048Y46980D01*
X38783D01*
X40023Y46956D01*
X40251Y46953D01*
X40365Y46840D01*
X43000Y43500D01*
Y30795D01*
X35288D01*
X34603Y31480D01*
X34500Y41951D01*
Y44837D01*
X35394Y46146D01*
X36000Y47005D01*
X36754D01*
X36946Y46986D01*
D02*
G37*
G36*
X69484Y21420D02*
Y18144D01*
X67000Y15000D01*
X47706D01*
Y19857D01*
X49312Y21463D01*
X53015Y21483D01*
X58018Y21463D01*
X59194Y21459D01*
X61560Y21450D01*
X62707Y22009D01*
X68834D01*
X69484Y21420D01*
D02*
G37*
D11*
X76736Y66862D02*
X76738Y66860D01*
X75048Y68550D02*
X76736Y66862D01*
X76738Y66860D02*
X78075Y65523D01*
X74937Y68594D02*
Y69459D01*
Y68594D02*
X75048Y68550D01*
X78075Y65523D02*
X82664D01*
X67038Y69232D02*
X67227Y69420D01*
X66340Y66862D02*
X67038Y67560D01*
X64962Y65484D02*
X66340Y66862D01*
X67038Y67560D02*
Y69232D01*
X64962Y61182D02*
Y65484D01*
X71991Y66862D02*
X73757Y65095D01*
X71068Y67785D02*
X71991Y66862D01*
X71068Y67785D02*
Y69324D01*
X133709Y30009D02*
X133921Y56951D01*
X133627Y57666D02*
X133921Y57373D01*
X130597Y60696D02*
X133627Y57666D01*
X133921Y56951D02*
Y57373D01*
X116171Y64861D02*
X120336Y60696D01*
X130597D01*
X123944Y68401D02*
X124350Y66142D01*
X123944Y68401D02*
Y72950D01*
X78807Y80961D02*
X81004D01*
X80800Y80999D02*
X85699D01*
X78745Y80899D02*
X78807Y80961D01*
X85699Y80999D02*
X87260Y79438D01*
X78748Y76959D02*
X81004Y76887D01*
X80800Y76926D02*
X83703Y76833D01*
X83870Y76669D01*
X88312Y72312D01*
X80800Y72998D02*
X80950Y72992D01*
X79457Y73025D02*
X81004Y72960D01*
X85472Y65676D02*
X86914D01*
X81168Y72773D02*
X85243Y65905D01*
X80950Y72992D02*
X81168Y72773D01*
X85243Y65905D02*
X85472Y65676D01*
X80800Y74970D02*
X81562Y74949D01*
X81801Y74942D02*
X81970Y74773D01*
X87669Y69073D01*
X81562Y74949D02*
X81801Y74942D01*
X87669Y69073D02*
X91505D01*
X78761Y78946D02*
X81004D01*
X80800Y78984D02*
X84442D01*
X88304Y75121D01*
X75164Y85656D02*
Y86926D01*
X75563Y87567D02*
Y87946D01*
X74960Y86964D02*
X75563Y87567D01*
X216094Y29192D02*
X216109Y29207D01*
X216094Y22637D02*
X216109Y22622D01*
X216094Y22637D02*
Y29192D01*
X198921Y29921D02*
X211945D01*
X127852Y66246D02*
X138938Y72898D01*
X151385D02*
X154666Y69616D01*
X138938Y72898D02*
X151385D01*
X126901Y66224D02*
X127852Y66246D01*
X124350Y66142D02*
X126901Y66224D01*
X192177Y84028D02*
Y86120D01*
X242759Y87654D02*
X245000Y95000D01*
X242051Y86946D02*
X242759Y87654D01*
X192177Y86120D02*
X193003Y86946D01*
X241803D01*
X242051Y86946D01*
X190610Y21530D02*
X197689D01*
X201823Y17396D01*
X201882Y15181D01*
X153553Y58587D02*
X190610Y21530D01*
X150597Y58587D02*
X153553D01*
X154519Y61785D02*
X191663Y24641D01*
X196395D01*
X151697Y61785D02*
X154519D01*
X187055Y32719D02*
Y36520D01*
X193133Y26641D02*
X195566D01*
X187055Y32719D02*
X193133Y26641D01*
X199035Y26656D02*
X199065Y26625D01*
X211894D01*
X195566Y26641D02*
X195581Y26656D01*
X199035D01*
X89429Y74018D02*
X97229Y73871D01*
X101500Y78142D02*
Y81078D01*
X97229Y73871D02*
X101500Y78142D01*
X97599Y67119D02*
X100881D01*
X95935Y71895D02*
X96338Y71888D01*
X97027Y67690D02*
X97306Y67412D01*
X96338Y71888D02*
X96902Y71324D01*
X88596Y72034D02*
X95935Y71895D01*
X97306Y67412D02*
X97599Y67119D01*
X96902Y71324D02*
X97027Y67690D01*
X100881Y67119D02*
X101000Y67000D01*
X104105Y64863D02*
Y69989D01*
X103096Y63854D02*
X104105Y64863D01*
Y69989D02*
X105156Y71039D01*
X108758D01*
X101255Y63854D02*
X103096D01*
X101000Y63598D02*
X101255Y63854D01*
X154666Y67125D02*
Y69616D01*
Y67125D02*
X155650Y66142D01*
X116171Y64861D02*
Y67228D01*
X245000Y5000D02*
X245641D01*
X250360Y7589D02*
X260451Y17680D01*
X248230Y7589D02*
X250360D01*
X245641Y5000D02*
X248230Y7589D01*
X235000Y5000D02*
X235619D01*
X240629Y10009D02*
X249952D01*
X235619Y5000D02*
X240629Y10009D01*
X209213Y73487D02*
X211883D01*
X208400Y72673D02*
X209213Y73487D01*
X193871Y72673D02*
X208400D01*
X193677Y72867D02*
X193871Y72673D01*
X252951Y77621D02*
Y79168D01*
X249844Y82997D02*
X250177Y82664D01*
X252951Y79168D01*
X198721Y82997D02*
X249844D01*
X197494Y84224D02*
X198721Y82997D01*
X195743Y84224D02*
X197494D01*
X195402Y83882D02*
X195743Y84224D01*
X195402Y79000D02*
Y84118D01*
X211826Y17108D02*
Y17108D01*
X212221Y16631D02*
Y16714D01*
X212257Y14543D02*
X212299Y14500D01*
X212257Y14543D02*
Y16595D01*
X212221Y16631D02*
X212257Y16595D01*
X211826Y17108D02*
X212221Y16714D01*
X203017Y19845D02*
X209089D01*
X211826Y17108D01*
X170585Y57420D02*
X170586D01*
X173335Y54670D01*
X208287D02*
X209536Y53421D01*
X173335Y54670D02*
X208287D01*
X177959Y56711D02*
X211927D01*
X175759Y58911D02*
X177959Y56711D01*
X175637Y64044D02*
X179730Y59951D01*
X211856D01*
X175347Y64044D02*
X175637D01*
X209536Y53421D02*
X211870D01*
X211945Y53347D01*
X185480Y63386D02*
X211945D01*
X184286Y64579D02*
X185480Y63386D01*
X183907Y64579D02*
X184286D01*
X211856Y59951D02*
X211945Y60039D01*
X211927Y56711D02*
X211945Y56693D01*
X196468Y66732D02*
X211945D01*
X143560Y65624D02*
X150597Y58587D01*
X143560Y68649D02*
X143735Y68824D01*
X143560Y65624D02*
Y68649D01*
X150026Y63077D02*
X150405D01*
X151697Y61785D01*
X252890Y77559D02*
X252920Y77529D01*
Y72705D02*
Y77529D01*
Y72705D02*
X252950Y72675D01*
X29500Y70408D02*
X30391Y69517D01*
X28806Y71102D02*
X29500Y70408D01*
X30391Y69517D02*
X36548D01*
X38342Y71311D01*
X24764Y71102D02*
X28806D01*
X38342Y71311D02*
X38460D01*
X69032Y65946D02*
Y68556D01*
X165053Y29230D02*
X165059Y28667D01*
Y24365D02*
Y28667D01*
X161658Y29502D02*
X164372D01*
X165053Y29230D01*
X160373Y30787D02*
X161658Y29502D01*
X164748Y24224D02*
X165107Y23866D01*
X196409Y24656D02*
X198206D01*
X203017Y19845D01*
X196395Y24641D02*
X196409Y24656D01*
X189463Y39197D02*
X192801Y35859D01*
X201254D01*
X196276Y33127D02*
X211805D01*
X193534Y30385D02*
X196276Y33127D01*
X211805D02*
X211945Y33268D01*
X197246Y42010D02*
X206613D01*
X193909Y38673D02*
X197246Y42010D01*
X201254Y35859D02*
X202009Y36614D01*
X160373Y30787D02*
Y38510D01*
X153375Y45508D02*
Y48388D01*
Y45508D02*
X160373Y38510D01*
X177100Y23700D02*
X177100Y23701D01*
X171800Y23700D02*
X177100D01*
X171800Y23700D02*
X171800Y23700D01*
X88304Y75121D02*
X89429Y74018D01*
X88312Y72312D02*
X88596Y72034D01*
X58000Y73000D02*
X58063Y73063D01*
X63459D01*
X30190Y14048D02*
X31238Y13000D01*
X29133Y15105D02*
X30190Y14048D01*
X31238Y13000D02*
X40000D01*
X24777Y15105D02*
X29133D01*
X32876Y89798D02*
X37336D01*
X29731Y86653D02*
X32876Y89798D01*
X29731Y84471D02*
Y86653D01*
X28132Y82871D02*
X29500Y84240D01*
X29731Y84471D01*
X24806Y82871D02*
X28132D01*
X38554Y86220D02*
Y88579D01*
X37336Y89798D02*
X38554Y88579D01*
X108780Y63559D02*
X109239Y64018D01*
Y65600D02*
X114652Y71013D01*
X109239Y64018D02*
Y65600D01*
X201799Y14500D02*
X201882Y15181D01*
X206613Y42010D02*
X207843Y43240D01*
X211878D01*
X30402Y28402D02*
X40000D01*
X28929Y26929D02*
X30402Y28402D01*
X24764Y26929D02*
X28929D01*
X59510Y61191D02*
X64953D01*
X124301Y16191D02*
Y19902D01*
X133709Y30009D01*
X124350Y16142D02*
X155650D01*
X82664Y65523D02*
X83514Y64673D01*
Y58669D02*
Y64673D01*
X159736Y23797D02*
X164748D01*
X155965Y20026D02*
X159736Y23797D01*
X155965Y16457D02*
Y20026D01*
X155708Y66200D02*
X160385D01*
X162822Y68637D02*
X164944D01*
X160385Y66200D02*
X162822Y68637D01*
X181590Y68655D02*
X185262Y78831D01*
X165038Y68655D02*
X181590D01*
X185262Y78831D02*
X191437D01*
X192000Y79000D01*
X116700Y77710D02*
Y81299D01*
Y77710D02*
X123944Y72950D01*
X116242Y81299D02*
X116700Y81299D01*
X86876Y61260D02*
Y65610D01*
X78745Y74993D02*
X81004Y74931D01*
X83514Y58669D02*
X84876Y57307D01*
X101001Y74670D02*
X103789Y77458D01*
X108657D01*
X86771Y57307D02*
X86853Y57225D01*
X84876Y57307D02*
X86771D01*
X101001Y67001D02*
Y74670D01*
X101064Y81078D02*
X101500Y81598D01*
X114652Y71013D02*
Y77656D01*
X110512Y81796D02*
X112070Y80237D01*
X101697Y81796D02*
X110512D01*
X113635Y78672D02*
X114652Y77656D01*
X112070Y80211D02*
X113609Y78672D01*
X106586Y85028D02*
X108758Y85039D01*
X102181Y85028D02*
X106586D01*
X101500Y85000D02*
X102181Y85028D01*
X177007Y84657D02*
X182609Y90259D01*
X219393D02*
X224134Y95000D01*
X182609Y90259D02*
X219393D01*
X242909Y22150D02*
Y29705D01*
X205164Y5164D02*
Y14463D01*
X205000Y5000D02*
X205164Y5164D01*
X215039Y5038D02*
X215543Y5542D01*
X215672Y13819D01*
X215682Y14446D01*
X215000Y5000D02*
X215039Y5038D01*
X188900Y70100D02*
X188921Y70079D01*
X211945D01*
X224134Y95000D02*
X225000D01*
X173039Y84072D02*
X173625Y84657D01*
X173039Y81890D02*
Y84072D01*
X173625Y84657D02*
X177007D01*
X170280Y81870D02*
X172560D01*
X173019D01*
X173000D02*
X173019D01*
X176582Y81701D02*
X179000D01*
X173000Y78130D02*
X175410D01*
X175996Y78716D01*
Y81115D01*
X176582Y81701D01*
X167926Y79515D02*
X170280Y81870D01*
X202009Y36614D02*
X211945D01*
X200414Y38838D02*
X204505D01*
X200368Y38792D02*
X200414Y38838D01*
X204505D02*
X205628Y39961D01*
X211945D01*
X259539Y19596D02*
Y22397D01*
X249952Y10009D02*
X259539Y19596D01*
Y22397D02*
X259583Y22441D01*
X226115Y22425D02*
Y27055D01*
X226112Y22422D02*
X226115Y22425D01*
X226112Y27059D02*
X226115Y27055D01*
X219421Y22219D02*
X219423Y22221D01*
Y27034D01*
X219421Y27036D02*
X219423Y27034D01*
X222775Y22774D02*
X222777Y22771D01*
X222775Y29316D02*
X222777Y29319D01*
X222775Y22774D02*
Y29316D01*
X229334Y29565D02*
X229399Y29500D01*
Y22239D02*
Y29500D01*
Y22239D02*
X229487Y22151D01*
X232745Y22221D02*
Y27237D01*
X260452Y17680D02*
X260453Y17681D01*
X260451Y17680D02*
X260452D01*
X239561Y22150D02*
Y27165D01*
X246232Y22156D02*
Y27171D01*
X249549Y22122D02*
Y29677D01*
X236241Y22178D02*
Y29733D01*
X260453Y17681D02*
X262214D01*
X262214Y17681D01*
X262214D01*
X262800Y18267D02*
Y22311D01*
X262214Y17681D02*
X262800Y18267D01*
Y22311D02*
X262929Y22441D01*
X232813Y70165D02*
Y77721D01*
X222786Y72628D02*
Y77544D01*
X226172Y70350D02*
Y77648D01*
X236259Y72480D02*
Y77495D01*
X246204Y70101D02*
Y77656D01*
X219418Y70254D02*
Y77552D01*
X216114Y72802D02*
Y77469D01*
X229500Y72500D02*
Y77516D01*
X239504Y70004D02*
Y77559D01*
X243000Y72500D02*
Y77516D01*
X249500Y72500D02*
Y77516D01*
D16*
X191898Y51800D02*
D03*
X195299D02*
D03*
X72348Y51100D02*
D03*
X68946D02*
D03*
X198701Y51800D02*
D03*
X195299D02*
D03*
X201799Y14500D02*
D03*
X205201D02*
D03*
X52201Y75000D02*
D03*
X48799D02*
D03*
X52201Y80000D02*
D03*
X48799D02*
D03*
X90338Y61625D02*
D03*
X86936D02*
D03*
X90319Y65674D02*
D03*
X86917D02*
D03*
X90372Y57174D02*
D03*
X86970D02*
D03*
X88799Y84500D02*
D03*
X92201D02*
D03*
X195402Y84000D02*
D03*
X192000D02*
D03*
X195402Y79000D02*
D03*
X192000D02*
D03*
X72348Y51100D02*
D03*
X75750D02*
D03*
X212299Y14500D02*
D03*
X215701D02*
D03*
X198701Y44800D02*
D03*
X195299D02*
D03*
X195301Y44796D02*
D03*
X191899D02*
D03*
D17*
X108758Y71039D02*
D03*
Y85039D02*
D03*
D18*
Y63559D02*
D03*
X116242Y67299D02*
D03*
Y81299D02*
D03*
X108758Y77559D02*
D03*
D19*
X246691Y85974D02*
D03*
X250077D02*
D03*
X254607Y86000D02*
D03*
X257993D02*
D03*
X75709Y61484D02*
D03*
X72323D02*
D03*
X43688Y63053D02*
D03*
X40302D02*
D03*
X52193Y69500D02*
D03*
X48807D02*
D03*
Y85500D02*
D03*
X52193D02*
D03*
X88773Y79396D02*
D03*
X92159D02*
D03*
X262830Y86082D02*
D03*
X266215D02*
D03*
X41807Y37000D02*
D03*
X45193D02*
D03*
X72307Y56500D02*
D03*
X75693D02*
D03*
X265193Y15000D02*
D03*
X261807D02*
D03*
D20*
X32450Y81020D02*
D03*
Y83579D02*
D03*
X32217Y74966D02*
D03*
Y72407D02*
D03*
X32003Y22944D02*
D03*
Y25503D02*
D03*
X32000Y16441D02*
D03*
Y19000D02*
D03*
D21*
X64962Y57796D02*
D03*
Y61182D02*
D03*
X165107Y23866D02*
D03*
Y20480D02*
D03*
X165000Y68693D02*
D03*
Y65307D02*
D03*
X53500Y20307D02*
D03*
Y23693D02*
D03*
X58500Y20307D02*
D03*
Y23693D02*
D03*
Y37693D02*
D03*
Y34307D02*
D03*
D22*
X101000Y67000D02*
D03*
Y63598D02*
D03*
X59500Y57799D02*
D03*
Y61201D02*
D03*
X177100Y20299D02*
D03*
Y23701D02*
D03*
X165053Y32631D02*
D03*
Y29230D02*
D03*
X179000Y78299D02*
D03*
Y81701D02*
D03*
X38554Y82818D02*
D03*
Y86220D02*
D03*
X38460Y74713D02*
D03*
Y71311D02*
D03*
X101500Y85000D02*
D03*
Y81598D02*
D03*
X40000Y13000D02*
D03*
Y16402D02*
D03*
Y28402D02*
D03*
Y25000D02*
D03*
D23*
X171800Y19960D02*
D03*
Y23700D02*
D03*
X173000Y81870D02*
D03*
Y78130D02*
D03*
D24*
X24764Y9409D02*
D03*
Y34606D02*
D03*
Y31457D02*
D03*
Y12559D02*
D03*
Y65394D02*
D03*
Y90591D02*
D03*
Y87441D02*
D03*
Y68543D02*
D03*
D25*
Y15118D02*
D03*
Y17087D02*
D03*
Y19055D02*
D03*
Y21024D02*
D03*
Y22992D02*
D03*
Y24961D02*
D03*
Y26929D02*
D03*
Y28898D02*
D03*
Y71102D02*
D03*
Y73071D02*
D03*
Y75039D02*
D03*
Y77008D02*
D03*
Y78976D02*
D03*
Y80945D02*
D03*
Y82913D02*
D03*
Y84882D02*
D03*
D26*
X267063Y77559D02*
D03*
X211945D02*
D03*
X267063Y22441D02*
D03*
X211945D02*
D03*
D27*
X262929Y77559D02*
D03*
X259583D02*
D03*
X256236D02*
D03*
X252890D02*
D03*
X249543D02*
D03*
X246197D02*
D03*
X242850D02*
D03*
X239504D02*
D03*
X236157D02*
D03*
X232811D02*
D03*
X229465D02*
D03*
X226118D02*
D03*
X222772D02*
D03*
X219425D02*
D03*
X216079D02*
D03*
Y22441D02*
D03*
X219425D02*
D03*
X222772D02*
D03*
X226118D02*
D03*
X229465D02*
D03*
X232811D02*
D03*
X236157D02*
D03*
X239504D02*
D03*
X242850D02*
D03*
X246197D02*
D03*
X249543D02*
D03*
X252890D02*
D03*
X256236D02*
D03*
X259583D02*
D03*
X262929D02*
D03*
D28*
X211945Y73425D02*
D03*
Y70079D02*
D03*
Y66732D02*
D03*
Y63386D02*
D03*
Y60039D02*
D03*
Y56693D02*
D03*
Y53347D02*
D03*
Y50000D02*
D03*
Y46654D02*
D03*
Y43307D02*
D03*
Y39961D02*
D03*
Y36614D02*
D03*
Y33268D02*
D03*
Y29921D02*
D03*
Y26575D02*
D03*
X267063D02*
D03*
Y29921D02*
D03*
Y33268D02*
D03*
Y36614D02*
D03*
Y39961D02*
D03*
Y43307D02*
D03*
Y46654D02*
D03*
Y50000D02*
D03*
Y53347D02*
D03*
Y56693D02*
D03*
Y60039D02*
D03*
Y63386D02*
D03*
Y66732D02*
D03*
Y70079D02*
D03*
Y73425D02*
D03*
D29*
X239504Y50000D02*
D03*
X246000D02*
D03*
Y43504D02*
D03*
X239504D02*
D03*
X233008D02*
D03*
Y50000D02*
D03*
Y56496D02*
D03*
X239504D02*
D03*
D30*
X78541Y80937D02*
D03*
Y78969D02*
D03*
Y77000D02*
D03*
Y75032D02*
D03*
Y73063D02*
D03*
X63459D02*
D03*
Y75032D02*
D03*
Y77000D02*
D03*
Y78969D02*
D03*
Y80937D02*
D03*
D31*
X74937Y69459D02*
D03*
X72969D02*
D03*
X71000D02*
D03*
X69032D02*
D03*
X67063D02*
D03*
Y84541D02*
D03*
X69032D02*
D03*
X71000D02*
D03*
X72969D02*
D03*
D32*
X74937D02*
D03*
D33*
X124350Y83858D02*
D03*
X155650D02*
D03*
X124350Y66142D02*
D03*
X155650D02*
D03*
X124350Y33858D02*
D03*
X155650D02*
D03*
X124350Y16142D02*
D03*
X155650D02*
D03*
D34*
X65697Y38055D02*
D03*
Y29000D02*
D03*
Y19945D02*
D03*
D35*
X90303Y29000D02*
D03*
D36*
X31220Y63000D02*
D03*
X33779D02*
D03*
X32721Y37000D02*
D03*
X35280D02*
D03*
D47*
X71000Y77000D02*
D03*
D51*
X6752Y39016D02*
D03*
Y5000D02*
D03*
Y95000D02*
D03*
Y60984D02*
D03*
D52*
X22500Y39016D02*
D03*
Y5000D02*
D03*
Y95000D02*
D03*
Y60984D02*
D03*
D58*
X97306Y67412D02*
D03*
D59*
X160985Y82296D02*
G03*
X159047Y83800I-1938J-496D01*
G01*
X155700Y33909D02*
Y39100D01*
X155650Y33858D02*
X155700Y33909D01*
X175092Y32631D02*
X182062Y25661D01*
Y21534D02*
Y25661D01*
X165053Y32631D02*
X175092D01*
X239414Y61015D02*
X239459Y60971D01*
Y57535D02*
X239555Y57440D01*
X239459Y57535D02*
Y60971D01*
X37485Y63116D02*
Y65676D01*
X36313Y66848D02*
X37485Y65676D01*
X29669Y66848D02*
X36313D01*
X37450Y55050D02*
Y63024D01*
X246681Y85984D02*
Y88548D01*
X247133Y89000D01*
Y89109D01*
X29500Y67017D02*
X29669Y66848D01*
X28155Y68362D02*
X29500Y67017D01*
X24945Y68362D02*
X28155D01*
X24764Y68543D02*
X24945Y68362D01*
X148523Y50000D02*
X150324Y51800D01*
X156369D02*
X165053Y43116D01*
X150324Y51800D02*
X156369D01*
X165053Y32631D02*
Y43116D01*
X142500Y50000D02*
X148523D01*
X180891Y20362D02*
X182062Y21534D01*
X177163Y20362D02*
X180891D01*
X124872Y79600D02*
X126200D01*
X123700Y80772D02*
X124872Y79600D01*
X123700Y80772D02*
Y83208D01*
X124350Y83858D01*
X124600Y83609D01*
X124605Y83858D02*
X126164Y82299D01*
X124350Y83858D02*
X124605D01*
X157701Y83800D02*
X159047D01*
X24626Y87304D02*
X24708Y87385D01*
X19056Y70838D02*
X21214Y68681D01*
X19056Y85146D02*
X21214Y87304D01*
X24626D01*
X19056Y70838D02*
Y85146D01*
X21214Y68681D02*
X24547D01*
X24724Y68503D01*
X24854Y90501D02*
X29534D01*
X30354Y91321D01*
X30462D01*
X25846Y34606D02*
X27855Y36615D01*
X28871D01*
X28947Y36692D01*
X24764Y34606D02*
X25846D01*
X124430Y33938D02*
Y38954D01*
X123238Y40146D02*
X124430Y38954D01*
X123238Y40146D02*
Y40255D01*
X228820Y56519D02*
X232985D01*
X233008Y56496D01*
X228798Y56541D02*
X228820Y56519D01*
X19500Y30062D02*
X20000Y30562D01*
X20864Y31426D01*
X19500Y14000D02*
Y30062D01*
X20864Y31426D02*
X24733D01*
X19500Y14000D02*
X20000Y13500D01*
X20940Y12560D01*
X24763D01*
X245974Y42737D02*
X246077Y42634D01*
Y39753D02*
Y42634D01*
Y39753D02*
X246154Y39677D01*
X250424Y55857D02*
X250492Y55789D01*
X247008Y55857D02*
X250424D01*
X247133Y49855D02*
X247149Y49871D01*
X250440D01*
X250516Y49795D01*
X232883Y50043D02*
X232911Y50015D01*
X228623Y50043D02*
X232883D01*
X228580Y50086D02*
X228623Y50043D01*
X228753Y43700D02*
X232473D01*
X228677Y43777D02*
X228753Y43700D01*
X232473D02*
X232825Y43348D01*
X239417Y42692D02*
X239494Y42769D01*
X239417Y39707D02*
Y42692D01*
X239340Y39631D02*
X239417Y39707D01*
X160985Y82296D02*
X161700Y79500D01*
X155650Y83858D02*
X157701Y83800D01*
X155650Y83858D02*
X155955Y83553D01*
X211893Y22493D02*
X211945Y22441D01*
X204187Y22493D02*
X211893D01*
X204135Y22545D02*
X204187Y22493D01*
X267070Y18570D02*
Y22434D01*
X255000Y5000D02*
X255842Y5842D01*
X260500Y82575D02*
X260577Y82498D01*
X206000Y75500D02*
X208059Y77559D01*
X211945D01*
D60*
X246000Y56496D02*
D03*
D61*
X58287Y69259D02*
X61004D01*
X62277D01*
X52223Y69470D02*
X58077D01*
X58287Y69259D01*
X93958Y65674D02*
X98029Y61602D01*
X95940Y51969D02*
X98029Y54058D01*
Y61602D01*
X89788Y51969D02*
X95940D01*
X84747Y46928D02*
X89788Y51969D01*
X94365Y59972D02*
Y60503D01*
X90338Y61625D02*
X93243D01*
X94365Y60503D01*
Y59972D02*
X94538Y59800D01*
X267080Y53338D02*
X267088Y53330D01*
X262537Y53338D02*
X267080D01*
X262529Y53330D02*
X262537Y53338D01*
X262486Y56675D02*
X266984D01*
X262469Y56658D02*
X262486Y56675D01*
X266984D02*
X267001Y56658D01*
X262571Y60013D02*
X267065D01*
X262544Y59986D02*
X262571Y60013D01*
X267065D02*
X267072Y60006D01*
X262561Y63418D02*
X267028D01*
X267072Y63374D01*
X262529Y63450D02*
X262561Y63418D01*
X267040Y66710D02*
X267072Y66742D01*
X262461Y66710D02*
X267040D01*
X262439Y66687D02*
X262461Y66710D01*
X262618Y73388D02*
X267101D01*
X262529Y73298D02*
X262618Y73388D01*
X267035Y70107D02*
X267057Y70085D01*
X262392Y70107D02*
X267035D01*
X262363Y70136D02*
X262392Y70107D01*
X259577Y77566D02*
X259580Y77563D01*
Y73000D02*
Y77563D01*
X259577Y72997D02*
X259580Y73000D01*
X58346Y46928D02*
X84747D01*
X50274Y55000D02*
X58346Y46928D01*
X53500Y23693D02*
X53622Y23815D01*
Y25667D01*
X54428Y26473D02*
Y29230D01*
X53622Y25667D02*
X54428Y26473D01*
X54300Y29357D02*
X54428Y29230D01*
X58601Y16385D02*
X58643Y16426D01*
X53714Y16385D02*
X58601D01*
X53673Y16344D02*
X53714Y16385D01*
X53665Y16351D02*
X53673Y16344D01*
X49572Y16351D02*
X53665D01*
X49565Y16359D02*
X49572Y16351D01*
X52193Y69382D02*
Y69500D01*
Y69382D02*
X54931Y66643D01*
X254763Y86361D02*
Y88326D01*
X254504Y86103D02*
X254763Y86361D01*
Y88326D02*
X255462Y89025D01*
Y89268D01*
X251343Y89335D02*
Y89578D01*
Y89335D02*
X251572Y89105D01*
Y87470D02*
Y89105D01*
X250508Y86405D02*
X251572Y87470D01*
X250077Y86092D02*
X250390Y86405D01*
X250508D01*
X250077Y85974D02*
Y86092D01*
X254645Y83205D02*
X256199Y81651D01*
X254645Y83205D02*
Y85962D01*
X257993Y85882D02*
X258306Y85569D01*
X260328Y82747D02*
Y83935D01*
X257993Y85882D02*
Y86000D01*
X258306Y85569D02*
X258694D01*
X260328Y83935D01*
Y82747D02*
X260500Y82575D01*
X69032Y63223D02*
Y65946D01*
X72323Y61484D02*
Y61602D01*
X72010Y61915D02*
X72323Y61602D01*
X70340Y61915D02*
X72010D01*
X69032Y63223D02*
X70340Y61915D01*
X75756Y61531D02*
X79354D01*
X80352Y60533D02*
X80596D01*
X79354Y61531D02*
X80352Y60533D01*
X80186Y57448D02*
X80430D01*
X75693Y56500D02*
X79239D01*
X80186Y57448D01*
X92301Y84282D02*
Y84542D01*
X75546Y51141D02*
X79171D01*
X256199Y77596D02*
Y81651D01*
Y77596D02*
X256236Y77559D01*
X262959Y39939D02*
X266691D01*
X262937Y39918D02*
X262959Y39939D01*
X266691D02*
X266710Y39959D01*
X263100Y36700D02*
X263148Y36652D01*
X266650D02*
X266704Y36597D01*
X263148Y36652D02*
X266650D01*
X263084Y29834D02*
X263134Y29884D01*
X266562D02*
X266603Y29925D01*
X263134Y29884D02*
X266562D01*
X266994Y26612D02*
X267022Y26583D01*
X263218Y26612D02*
X266994D01*
X263181Y26649D02*
X263218Y26612D01*
X262586Y49963D02*
X266919D01*
X262519Y49895D02*
X262586Y49963D01*
X266919D02*
X266958Y50001D01*
X262602Y46665D02*
X267026D01*
X262590Y46677D02*
X262602Y46665D01*
X267026D02*
X267051Y46641D01*
X266801Y43293D02*
X266806Y43299D01*
X262818Y43279D02*
X262831Y43293D01*
X266801D01*
X266628Y33297D02*
X266653Y33272D01*
X263122Y33297D02*
X266628D01*
X263093Y33327D02*
X263122Y33297D01*
X264173Y89202D02*
X265902Y87472D01*
X264173Y89202D02*
Y94173D01*
X265902Y86395D02*
Y87472D01*
X264173Y94173D02*
X265000Y95000D01*
X258807Y90104D02*
X262399Y86513D01*
X255344Y95000D02*
X258807Y91537D01*
Y90104D02*
Y91537D01*
X262399Y86513D02*
X262517D01*
X262830Y86200D01*
Y86082D02*
Y86200D01*
X92472Y78965D02*
X93797D01*
X94954Y77808D01*
Y76917D02*
Y77808D01*
Y76917D02*
X95126Y76745D01*
X92159Y79278D02*
X92472Y78965D01*
X92159Y79278D02*
Y79396D01*
X54931Y66643D02*
X55200Y66375D01*
Y58678D02*
Y66375D01*
X52193Y69618D02*
X55575Y73000D01*
X56079Y57799D02*
X59500D01*
X55200Y58678D02*
X56079Y57799D01*
X59221Y58078D02*
X59500Y57799D01*
X94006Y84069D02*
X95335Y82740D01*
X92514Y84069D02*
X94006D01*
X92301Y84282D02*
X92514Y84069D01*
X95335Y82644D02*
Y82740D01*
X38509Y74762D02*
X41216D01*
X42544Y73434D01*
X46109Y69571D02*
X48494D01*
X44815Y71269D02*
X44987Y71097D01*
X48565Y69500D02*
X48807D01*
X48494Y69571D02*
X48565Y69500D01*
X44987Y70693D02*
X46109Y69571D01*
X44987Y70693D02*
Y71097D01*
X61140Y50024D02*
X62229Y51113D01*
X68686D01*
X60897Y50024D02*
X61140D01*
X72328Y51120D02*
X72348Y51100D01*
X72328Y51120D02*
Y56480D01*
X72307Y56500D02*
X72328Y56480D01*
X79171Y51141D02*
X80061Y50251D01*
X80304D01*
X37500Y55000D02*
X50274D01*
X64982Y55325D02*
X65002Y55305D01*
X64962Y57796D02*
X64982Y57776D01*
Y55325D02*
Y57776D01*
X90319Y65674D02*
X93958D01*
X24764Y65394D02*
X25846D01*
X26278Y64963D01*
Y64244D02*
Y64963D01*
X41882Y82818D02*
X42800Y81900D01*
X38554Y82818D02*
X41882D01*
X90303Y29000D02*
Y30807D01*
X92998Y33502D02*
Y33543D01*
X95909D01*
X93685Y57174D02*
X94831Y56027D01*
X94981D01*
X90372Y57174D02*
X93685D01*
X26278Y64244D02*
X27434Y63088D01*
X27737D01*
X27910Y62916D01*
X58825Y29070D02*
X58886Y29131D01*
X58734Y28979D02*
X58825Y29070D01*
X54605Y87867D02*
Y94605D01*
X52336Y85598D02*
X54605Y87867D01*
Y94605D02*
X55000Y95000D01*
X87260Y79438D02*
X88731D01*
X88773Y79396D02*
X88786Y79409D01*
Y84487D01*
X85300Y84500D02*
X88799D01*
X88786Y84487D02*
X88799Y84500D01*
X55575Y73000D02*
X58000D01*
X28592Y9440D02*
X28960Y9808D01*
X24794Y9440D02*
X28592D01*
X24764Y9409D02*
X24794Y9440D01*
X53500Y20307D02*
X53673Y19994D01*
Y16344D02*
Y19994D01*
X58500Y20307D02*
X58643Y19994D01*
Y16426D02*
Y19994D01*
X63002Y20080D02*
X65697Y19945D01*
X58931Y20080D02*
X63002D01*
X58500Y20307D02*
X58931Y20080D01*
X51183Y29439D02*
X51264Y29357D01*
X54300D01*
X58585Y29127D02*
X58734Y28979D01*
X54530Y29127D02*
X58585D01*
X54526Y29131D02*
X54530Y29127D01*
X58825Y28827D02*
Y28887D01*
X58521Y28523D02*
X58825Y28827D01*
X58521Y23714D02*
Y28523D01*
X58825Y29070D02*
Y33994D01*
X65566Y29131D02*
X65697Y29000D01*
X58886Y29131D02*
X65566D01*
X58500Y34307D02*
X58512D01*
X58825Y33994D01*
X256265Y22542D02*
Y27541D01*
X256294Y27570D01*
X256246Y22522D02*
X256265Y22542D01*
X163282Y20539D02*
X164197D01*
X162043Y19300D02*
X163282Y20539D01*
X161800Y19300D02*
X162043D01*
X72271Y56931D02*
Y61069D01*
X45961Y85758D02*
X48307D01*
X167787Y65313D02*
X169000Y64100D01*
X165006Y65313D02*
X167787D01*
X168586Y20631D02*
X169138Y20080D01*
X171680D01*
X168414Y21441D02*
X168586Y21269D01*
Y20631D02*
Y21269D01*
X252894Y22447D02*
Y27463D01*
X180141Y75216D02*
X181038D01*
X179242Y76115D02*
X180141Y75216D01*
X179242Y76115D02*
Y78057D01*
X179035Y78264D02*
X179242Y78057D01*
X255000Y95000D02*
X255344D01*
X261895Y12816D02*
Y14912D01*
X261807Y15000D02*
X261895Y14912D01*
X255842Y6763D02*
X261895Y12816D01*
X255842Y5842D02*
Y6763D01*
X265193Y5193D02*
Y15000D01*
X262929Y81679D02*
X263569Y82319D01*
X262929Y77559D02*
Y81679D01*
X263569Y82319D02*
X265891D01*
X260577Y82498D02*
X261066D01*
X261246Y82319D01*
X263569D01*
X265891D02*
X267063Y81147D01*
Y77559D02*
Y81147D01*
D62*
X52201Y79882D02*
Y80000D01*
Y79882D02*
X52952Y79130D01*
X53092D01*
X52201Y75118D02*
X53243Y76160D01*
X52201Y75000D02*
Y75118D01*
X53092Y79130D02*
X54639Y77583D01*
X53243Y76160D02*
X59719D01*
X54639Y77583D02*
X60308D01*
X59719Y76160D02*
X60800Y75079D01*
X60308Y77583D02*
X60800Y77091D01*
X61095Y76962D02*
X63662D01*
X60800Y75079D02*
X60848Y75032D01*
X60800Y77091D02*
X60891Y77000D01*
X61051Y74993D02*
X63662D01*
X31935Y75003D02*
X32057Y75125D01*
X24801Y75003D02*
X31935D01*
X24764Y75039D02*
X24801Y75003D01*
X32288Y80982D02*
X32350Y80920D01*
X24801Y80982D02*
X32288D01*
X24764Y80945D02*
X24801Y80982D01*
X32350Y79720D02*
X33288Y78782D01*
X34163D01*
X32350Y79720D02*
Y80920D01*
X24764Y80945D02*
X24814Y80995D01*
X21727Y75039D02*
X24764D01*
X27300Y77000D02*
X27976Y77676D01*
X20968Y75798D02*
Y78008D01*
X21925Y78965D02*
X24753D01*
X20968Y75798D02*
X21727Y75039D01*
X20968Y78008D02*
X21925Y78965D01*
X24764Y77008D02*
X24772Y77000D01*
X27300D01*
X27976Y77676D02*
Y80995D01*
X32057Y75125D02*
Y76224D01*
X30851Y77431D02*
X32057Y76224D01*
X45400Y75900D02*
X46300Y75000D01*
X48799D01*
X45600Y79300D02*
X46300Y80000D01*
X48799D01*
D63*
X37500Y44859D02*
Y45000D01*
Y44859D02*
X41762Y40597D01*
Y37045D02*
Y40597D01*
Y37045D02*
X41807Y37000D01*
X33804Y63024D02*
X40274D01*
X37500Y50000D02*
X43062D01*
X55262Y37800D02*
X58393D01*
X43062Y50000D02*
X55262Y37800D01*
X58681Y37874D02*
X65516D01*
X58500Y37693D02*
X58681Y37874D01*
X35117Y25503D02*
X35677Y24944D01*
X31906Y25414D02*
X32584D01*
X47813Y60775D02*
X47937Y60651D01*
X45848Y60775D02*
X47813D01*
X43688Y62935D02*
X45848Y60775D01*
X65516Y37874D02*
X65697Y38055D01*
X58393Y37800D02*
X58500Y37693D01*
X33031Y83678D02*
X34605Y85252D01*
Y86780D01*
X32943Y83579D02*
X33031Y83668D01*
Y83678D01*
X34605Y86780D02*
X34763Y86937D01*
X32450Y83579D02*
X32943D01*
X34852Y16377D02*
X35675Y17200D01*
X36000D01*
X32064Y16377D02*
X34852D01*
X43688Y62935D02*
Y63053D01*
X30537Y59155D02*
X30954Y58738D01*
X30537Y59155D02*
Y61824D01*
X30954Y58413D02*
Y58738D01*
X30537Y61824D02*
X31220Y62508D01*
Y63000D01*
X32217Y72407D02*
X32306Y72496D01*
X34123D01*
X35278Y73650D01*
Y74227D01*
X35507Y74456D01*
X32003Y25503D02*
X35117D01*
X24764Y31457D02*
X36457D01*
X38000Y33000D02*
Y36457D01*
X36457Y31457D02*
X38000Y33000D01*
X35280Y37000D02*
X38543D01*
X38000Y36457D02*
X38543Y37000D01*
X41807D01*
X47500D02*
X49500Y35000D01*
X45193Y37000D02*
X47500D01*
X42831Y16402D02*
X44796Y14437D01*
X40000Y16402D02*
X42831D01*
X40000Y25000D02*
X42767D01*
X44589Y26822D01*
X30500Y42000D02*
X32721Y39779D01*
Y37000D02*
Y39779D01*
D64*
X42990Y20091D02*
X43725Y19356D01*
X33583Y20091D02*
X42990D01*
X43956Y22556D02*
X44211D01*
X33946Y21494D02*
X42894D01*
X32495Y22944D02*
X33946Y21494D01*
X32492Y19000D02*
X33583Y20091D01*
X43725Y19356D02*
X44211D01*
X42894Y21494D02*
X43956Y22556D01*
X29856Y22944D02*
X32495D01*
X76830Y16847D02*
Y24967D01*
X69298Y11299D02*
X75427Y17428D01*
X76830Y24967D02*
X77733Y25869D01*
X74533Y25871D02*
Y26229D01*
X75427Y17428D02*
Y24977D01*
X70701Y10718D02*
X76830Y16847D01*
X74533Y25871D02*
X75427Y24977D01*
X77733Y25869D02*
Y26218D01*
X69298Y5353D02*
Y11299D01*
X70701Y5353D02*
Y10718D01*
X30190Y19024D02*
X31976D01*
X27988D02*
X30190D01*
X24797Y19022D02*
X27988D01*
X27634Y22992D02*
X27988Y22639D01*
Y19022D02*
Y22639D01*
X24764Y22992D02*
X27634D01*
X68945Y5000D02*
X69298Y5353D01*
X70701D02*
X71055Y5000D01*
X75000D01*
X65000D02*
X68945D01*
X201238Y51915D02*
X201490Y51663D01*
X198816Y51915D02*
X201238D01*
X198701Y51800D02*
X198816Y51915D01*
X198783Y44882D02*
X201147D01*
X201350Y45085D01*
X198701Y44800D02*
X198783Y44882D01*
X209602Y46654D02*
X211945D01*
X195343Y49325D02*
X195696Y48972D01*
X195343Y44838D02*
Y47215D01*
X195696Y48972D02*
X208665D01*
X195343Y47215D02*
X195696Y47569D01*
X208665Y48972D02*
X209693Y50000D01*
X208687Y47569D02*
X209602Y46654D01*
X195343Y49325D02*
Y51756D01*
X195696Y47569D02*
X208687D01*
X195299Y51800D02*
X195343Y51756D01*
X209693Y50000D02*
X211945D01*
X27855Y24945D02*
X29856Y22944D01*
X24748Y24945D02*
X27855D01*
X24748D02*
X24764Y24961D01*
X21924Y21060D02*
X24728D01*
X21571Y21413D02*
Y24592D01*
X21924Y24945D02*
X24748D01*
X21571Y21413D02*
X21924Y21060D01*
X21571Y24592D02*
X21924Y24945D01*
X32000Y19000D02*
X32492D01*
X188035Y46463D02*
X189657Y44842D01*
X191979D01*
X188376Y50500D02*
X189676Y51800D01*
X188000Y50500D02*
X188376D01*
X189676Y51800D02*
X191898D01*
D65*
X64953Y61191D02*
X64962Y61182D01*
X59500Y61201D02*
X59510Y61191D01*
X116171Y67228D02*
X116242Y67299D01*
X155650Y16142D02*
X155965Y16457D01*
X112070Y80211D02*
Y80237D01*
X113609Y78672D02*
X113635D01*
X101500Y81598D02*
X101697Y81796D01*
X70751Y87062D02*
X71204Y86311D01*
X70018Y87977D02*
X70547Y87100D01*
X71204Y84503D02*
Y86311D01*
X48307Y85758D02*
X48807Y85500D01*
D66*
X35000Y95000D02*
D03*
X45000D02*
D03*
X55000D02*
D03*
X65000D02*
D03*
X75000D02*
D03*
X85000D02*
D03*
X95000D02*
D03*
X105000D02*
D03*
X115000D02*
D03*
X125000D02*
D03*
X135000D02*
D03*
X145000D02*
D03*
X155000D02*
D03*
X165000D02*
D03*
X175000D02*
D03*
X185000D02*
D03*
X195000D02*
D03*
X205000D02*
D03*
X215000D02*
D03*
X225000D02*
D03*
X235000D02*
D03*
X245000D02*
D03*
X255000D02*
D03*
X35000Y5000D02*
D03*
X45000D02*
D03*
X55000D02*
D03*
X65000D02*
D03*
X75000D02*
D03*
X85000D02*
D03*
X95000D02*
D03*
X105000D02*
D03*
X115000D02*
D03*
X125000D02*
D03*
X135000D02*
D03*
X145000D02*
D03*
X155000D02*
D03*
X165000D02*
D03*
X175000D02*
D03*
X185000D02*
D03*
X195000D02*
D03*
X205000D02*
D03*
X215000D02*
D03*
X225000D02*
D03*
X235000D02*
D03*
X245000D02*
D03*
X255000D02*
D03*
D67*
X265000Y95000D02*
D03*
Y5000D02*
D03*
D68*
X37500Y45000D02*
D03*
Y50000D02*
D03*
X142500D02*
D03*
D69*
X37500Y55000D02*
D03*
D70*
X137500Y50000D02*
D03*
D71*
X62277Y69259D02*
D03*
X73815Y65095D02*
D03*
X75563Y87946D02*
D03*
X94538Y59800D02*
D03*
X262529Y53330D02*
D03*
X262469Y56658D02*
D03*
X262544Y59986D02*
D03*
X262529Y63450D02*
D03*
X262439Y66687D02*
D03*
X262529Y73298D02*
D03*
X262363Y70136D02*
D03*
X259577Y72997D02*
D03*
X216109Y29207D02*
D03*
X198921Y29921D02*
D03*
X155700Y39100D02*
D03*
X170585Y57513D02*
D03*
X175759Y58911D02*
D03*
X175347Y64044D02*
D03*
X180848Y62651D02*
D03*
X183907Y64579D02*
D03*
X196468Y66732D02*
D03*
X143735Y68824D02*
D03*
X150026Y63077D02*
D03*
X95335Y82644D02*
D03*
X239414Y61015D02*
D03*
X255462Y89268D02*
D03*
X247133Y89109D02*
D03*
X251343Y89578D02*
D03*
X80596Y60533D02*
D03*
X80430Y57448D02*
D03*
X187055Y36520D02*
D03*
X189320Y39251D02*
D03*
X193534Y30385D02*
D03*
X193909Y38673D02*
D03*
X153375Y48388D02*
D03*
X262937Y39918D02*
D03*
X263100Y36700D02*
D03*
X263084Y29834D02*
D03*
X263181Y26649D02*
D03*
X262519Y49895D02*
D03*
X262590Y46677D02*
D03*
X262818Y43279D02*
D03*
X263093Y33327D02*
D03*
X126200Y79600D02*
D03*
X95126Y76745D02*
D03*
X91505Y69073D02*
D03*
X44211Y22556D02*
D03*
Y19356D02*
D03*
X74533Y26229D02*
D03*
X77733Y26218D02*
D03*
X47937Y60651D02*
D03*
X42544Y73434D02*
D03*
X44815Y71269D02*
D03*
X60897Y50024D02*
D03*
X80304Y50251D02*
D03*
X65002Y55305D02*
D03*
X34163Y78782D02*
D03*
X34763Y86937D02*
D03*
X42800Y81900D02*
D03*
X30462Y91321D02*
D03*
X28947Y36692D02*
D03*
X36000Y17200D02*
D03*
X123238Y40255D02*
D03*
X94981Y56027D02*
D03*
X30954Y58413D02*
D03*
X27910Y62916D02*
D03*
X35507Y74456D02*
D03*
X30851Y77431D02*
D03*
X45400Y75900D02*
D03*
X45600Y79300D02*
D03*
X201147Y44882D02*
D03*
X201490Y51663D02*
D03*
X184800Y51900D02*
D03*
X184700Y45800D02*
D03*
X188035Y46463D02*
D03*
X188000Y50500D02*
D03*
X35397Y25223D02*
D03*
X204900Y45000D02*
D03*
Y51700D02*
D03*
X79300Y23400D02*
D03*
X72900D02*
D03*
X49500Y35000D02*
D03*
X44796Y14437D02*
D03*
X44589Y26822D02*
D03*
X30500Y42000D02*
D03*
X28960Y9808D02*
D03*
X51183Y29439D02*
D03*
X54382Y29276D02*
D03*
X49565Y16359D02*
D03*
X53673Y16344D02*
D03*
X58643Y16426D02*
D03*
X58734Y28979D02*
D03*
X228580Y50086D02*
D03*
X228798Y56541D02*
D03*
X239340Y39631D02*
D03*
X228677Y43777D02*
D03*
X250516Y49795D02*
D03*
X250492Y55789D02*
D03*
X246154Y39677D02*
D03*
X236245Y46755D02*
D03*
X242770Y46709D02*
D03*
X242752Y53176D02*
D03*
X236306Y53208D02*
D03*
X101584Y38398D02*
D03*
X106682Y38462D02*
D03*
X111907Y38525D02*
D03*
X117428Y38652D02*
D03*
X96147Y38440D02*
D03*
X101584Y43475D02*
D03*
X106555Y43411D02*
D03*
X111864Y43538D02*
D03*
X117449D02*
D03*
X96168Y43390D02*
D03*
X95909Y33543D02*
D03*
X117500Y33500D02*
D03*
X112000D02*
D03*
X107000D02*
D03*
X101500D02*
D03*
X256294Y27570D02*
D03*
X161800Y19300D02*
D03*
X161700Y79500D02*
D03*
X252950Y72675D02*
D03*
X69304Y74962D02*
D03*
X73004D02*
D03*
X73104Y78962D02*
D03*
X69104D02*
D03*
X70018Y87977D02*
D03*
X45961Y85758D02*
D03*
X85300Y84500D02*
D03*
X169000Y64100D02*
D03*
X188900Y70100D02*
D03*
X193677Y72867D02*
D03*
X167926Y79515D02*
D03*
X200368Y38792D02*
D03*
X168414Y21441D02*
D03*
X204135Y22545D02*
D03*
X226112Y27059D02*
D03*
X219421Y27036D02*
D03*
X222777Y29319D02*
D03*
X229334Y29565D02*
D03*
X246232Y27171D02*
D03*
X232745Y27237D02*
D03*
X181038Y75216D02*
D03*
X267063Y18563D02*
D03*
X260500Y82575D02*
D03*
X206000Y75500D02*
D03*
X222762Y72834D02*
D03*
X226174Y70348D02*
D03*
X236259Y72480D02*
D03*
X246204Y70101D02*
D03*
X252894Y27463D02*
D03*
X239561Y27165D02*
D03*
X216217Y72699D02*
D03*
X249549Y29677D02*
D03*
X242909Y29705D02*
D03*
X236241Y29733D02*
D03*
X219420Y70252D02*
D03*
X229500Y72500D02*
D03*
X232813Y70165D02*
D03*
X239504Y70004D02*
D03*
X243000Y72500D02*
D03*
X249500D02*
D03*
M02*
